<?xml version="1.0" encoding="UTF-8" standalone="no"?>
<svg
   width="24"
   height="24"
   viewBox="0 0 24 24"
   version="1.1"
   id="svg2"
   xmlns="http://www.w3.org/2000/svg"
   xmlns:svg="http://www.w3.org/2000/svg">
  <defs
     id="defs2" />
  <path
     fill="none"
     d="M 0,0 H 24 V 24 H 0 Z"
     id="path1" />
  <path
     d="m 20.38,8.57 -1.23,1.85 A 8,8 0 0 1 18.93,18 H 5.07 A 8,8 0 0 1 15.58,6.85 L 17.43,5.62 A 10,10 0 0 0 3.35,19 2,2 0 0 0 5.07,20 H 18.92 A 2,2 0 0 0 20.66,19 10,10 0 0 0 20.39,8.56 Z m -9.79,6.84 a 2,2 0 0 0 2.83,0 l 5.66,-8.49 -8.49,5.66 a 2,2 0 0 0 0,2.83 z"
     id="path2" />
</svg>
