<?xml version="1.0" encoding="UTF-8" standalone="no"?>

<svg
   width="512"
   height="512"
   viewBox="0 0 512 512">

  <defs>
    <filter id="f3" x="0" y="0" width="200%" height="200%">
      <feOffset result="offOut" in="SourceAlpha" dx="10" dy="10" />
      <feGaussianBlur result="blurOut" in="offOut" stdDeviation="10" />
      <feBlend in="SourceGraphic" in2="blurOut" mode="normal" />
    </filter>
  </defs>
  
  <rect
      x="0"
      y="0"
      width="512"
      height="512"
      style="fill:#008080"
      />
  
  <path
      transform="translate(90 25) scale(1.4)" 
      d="M193.5 100.4C186.7 65.9 156.4 40 120 40 91.1 40 66 56.4 53.5 80.4 23.4 83.6 0 109.1 0 140c0 33.1 26.9 60 60 60h130c27.6 0 50-22.4 50-50 0-26.4-20.5-47.8-46.5-49.6z"
      style="fill:#FFFFFF;stroke:none"
      filter="url(#f3)"
      />
  
  <rect
      x="96"
      y="357.5"
      width="35"
      height="25"
      style="fill:#FFFFFF;stroke:none"
      filter="url(#f3)"
      />

  <rect transform="translate(70 0)" 
      x="96"
      y="357.5"
      width="35"
      height="25"
      style="fill:#FFFFFF;stroke:none"
      filter="url(#f3)"
      />

  <rect transform="translate(140 0)" 
      x="96"
      y="357.5"
      width="35"
      height="25"
      style="fill:#FFFFFF;stroke:none"
      filter="url(#f3)"
      />

  <path
      d="M290 330 L416 360 L320 410 L320 370 z"
      style="fill:#FFFFFF;stroke:none"
      filter="url(#f3)"
      />

  <!--
      <rect
      x="64"
      y="64"
      width="384"
      height="384"
      style="fill:none;stroke:#000000"
      />
      
      <ellipse
      cx="256"
      cy="256"
      rx="176"
      ry="176"
      style="fill:none;stroke:#000000"
      />
      
      <rect
      x="96"
      y="96"
      width="320"
      height="320"
      style="fill:none;stroke:#000000"
      />
  -->
</svg>
