<?xml version="1.0" encoding="UTF-8" standalone="no"?>

<svg
   width="50mm"
   height="50mm"
   viewBox="0 0 50 50">

  <!-- Balloon side view: large envelope + small basket -->
  <!-- Envelope -->
  <path d="M25 3 C10 3 4 16 4 24 C4 32 12 38 20 40 L21 43 L29 43 L30 40 C38 38 46 32 46 24 C46 16 40 3 25 3 Z"
	style="fill:none;stroke:#000000;stroke-width:4"/>
  <path d="M25 3 C10 3 4 16 4 24 C4 32 12 38 20 40 L21 43 L29 43 L30 40 C38 38 46 32 46 24 C46 16 40 3 25 3 Z"
	style="fill:none;stroke:#ffffff;stroke-width:2"/>
  <path d="M25 3 C10 3 4 16 4 24 C4 32 12 38 20 40 L21 43 L29 43 L30 40 C38 38 46 32 46 24 C46 16 40 3 25 3 Z"
	style="fill:#00a000;stroke:none"/>

  <!-- Basket -->
  <rect x="19" y="44" width="12" height="5" rx="1"
	style="fill:none;stroke:#000000;stroke-width:4"/>
  <rect x="19" y="44" width="12" height="5" rx="1"
	style="fill:none;stroke:#ffffff;stroke-width:2"/>
  <rect x="19" y="44" width="12" height="5" rx="1"
	style="fill:#00a000;stroke:none"/>
</svg>
