<?xml version="1.0" encoding="UTF-8" standalone="no"?>
<svg
   id="icon"
   viewBox="0 0 90.000481 89.911285"
   version="1.1"
   width="90.000481"
   height="89.911285"
   xmlns="http://www.w3.org/2000/svg"
   xmlns:svg="http://www.w3.org/2000/svg">
  <defs
     id="defs51" />
  <title
     id="title1">uav</title>
  <path
     stroke="#000000"
     stroke-width="10"
     d="m 49.680217,54.650338 a 19,19 0 0 1 5.12,-5.1 0.67,0.67 0 0 0 0.33,-0.82 16.61,16.61 0 0 1 0,-7.68 0.62,0.62 0 0 0 -0.31,-0.77 18.57,18.57 0 0 1 -5.14,-5.16 0.64,0.64 0 0 0 -0.78,-0.31 15.73,15.73 0 0 1 -5.34,0.36 c -0.88,-0.1 -1.75,-0.25 -2.8,-0.41 a 0.89,0.89 0 0 0 -0.24,0.2 20.24,20.24 0 0 1 -5.32,5.35 0.67,0.67 0 0 0 -0.18,0.53 17.67,17.67 0 0 1 0,8.15 0.6,0.6 0 0 0 0.2,0.51 19.9,19.9 0 0 1 5.15,5.16 0.56,0.56 0 0 0 0.63,0.25 17,17 0 0 1 8,0 0.55,0.55 0 0 0 0.68,-0.26 z"
     id="path1" />
  <path
     stroke="#000000"
     stroke-width="10"
     d="m 23.880217,43.000338 a 19,19 0 1 0 -18.8800002,-19.09 19,19 0 0 0 18.8800002,19.09 z m 0.27,-36.9500003 A 17.92,17.92 0 1 1 6.1502168,23.790338 17.92,17.92 0 0 1 24.150217,6.0503377 Z"
     id="path2" />
  <path
     stroke="#000000"
     stroke-width="10"
     d="m 24.070217,46.810338 a 19,19 0 1 0 19,19.17 19.09,19.09 0 0 0 -19,-19.17 z m 0,37 a 17.92,17.92 0 1 1 17.93,-17.9 17.9,17.9 0 0 1 -18,17.88 z"
     id="path3" />
  <path
     stroke="#000000"
     stroke-width="10"
     d="m 66.060217,43.000338 a 19,19 0 1 0 -19.16,-19.15 19,19 0 0 0 19.16,19.15 z m -0.5,-36.9400003 a 17.91,17.91 0 1 1 -17.51,18.2300003 17.9,17.9 0 0 1 17.51,-18.2300003 z"
     id="path4" />
  <path
     stroke="#000000"
     stroke-width="10"
     d="m 65.900217,46.810338 a 19.05,19.05 0 1 0 19.1,19.1 19,19 0 0 0 -19.1,-19.1 z m 0,37 a 17.92,17.92 0 1 1 18,-18 17.93,17.93 0 0 1 -17.99,17.98 z"
     id="path5" />
  <path
     stroke="#000000"
     stroke-width="10"
     d="m 12.280217,35.910338 a 5.79,5.79 0 0 0 1.61,-0.55 19.66,19.66 0 0 0 5.32,-4.27 c 1.19,-1.31 2.25,-2.73 3.42,-4.18 a 20.52,20.52 0 0 1 6.37,3.85 c 0.69,-0.67 1.33,-1.3 2,-1.93 a 20.8,20.8 0 0 1 -4,-6.54 1.37,1.37 0 0 1 0.18,-0.15 24.46,24.46 0 0 0 7.14,-6.64 14.46,14.46 0 0 0 1.64,-3 c 0.39,-0.95 -0.3,-1.61 -1.28,-1.31 a 6.59,6.59 0 0 0 -1.51,0.66 24.56,24.56 0 0 0 -8,8 0.6,0.6 0 0 1 -0.78,0.35 3.11,3.11 0 0 0 -2.87,0.69 3.48,3.48 0 0 0 -1.07,3.81 25.1,25.1 0 0 0 -8.18,8 8.05,8.05 0 0 0 -1,2.33 c -0.08,0.61 0.33,0.98 1.01,0.88 z"
     id="path6" />
  <path
     stroke="#000000"
     stroke-width="10"
     d="m 31.180217,32.800338 c 1,1.73 2,3.35 3,5 a 15.87,15.87 0 0 0 3.82,-3.84 l -5,-3 z"
     id="path7" />
  <path
     stroke="#000000"
     stroke-width="10"
     d="m 31.400217,29.180338 -2,2 1.4,1.27 c 0.61,-0.56 1.27,-1.18 1.87,-1.75 z"
     id="path8" />
  <path
     stroke="#000000"
     stroke-width="10"
     d="m 33.520217,73.090338 a 23.4,23.4 0 0 0 -6.46,-5.65 21.63,21.63 0 0 1 3.94,-6.53 l -2,-1.88 a 20.75,20.75 0 0 1 -6.51,3.88 l -0.24,-0.38 a 24.6,24.6 0 0 0 -7.84,-7.82 8.11,8.11 0 0 0 -2.11,-0.85 0.77,0.77 0 0 0 -1,0.89 4.13,4.13 0 0 0 0.31,1.13 16.49,16.49 0 0 0 3.11,4.43 23.81,23.81 0 0 0 5.72,4.71 c 0,0.11 0,0.18 0,0.26 a 3.39,3.39 0 0 0 4.15,4.2 c 0.35,-0.11 0.45,0.07 0.58,0.31 a 23.26,23.26 0 0 0 6.83,7.26 18.52,18.52 0 0 0 2.87,1.48 0.8,0.8 0 0 0 1,-0.28 1.34,1.34 0 0 0 -0.08,-1.51 30.33,30.33 0 0 0 -2.27,-3.65 z"
     id="path9" />
  <path
     stroke="#000000"
     stroke-width="10"
     d="m 34.150217,51.970338 -3,4.89 1.85,1.87 4.93,-3 a 16.27,16.27 0 0 0 -3.78,-3.76 z"
     id="path10" />
  <path
     stroke="#000000"
     stroke-width="10"
     d="m 32.680217,59.070338 -2,-1.85 -1.13,1.18 1.8,2.05 z"
     id="path11" />
  <path
     stroke="#000000"
     stroke-width="10"
     d="m 55.410217,15.000338 a 25.78,25.78 0 0 0 7.66,7.26 20.85,20.85 0 0 1 -3.95,6.59 l 1.92,2 0.59,-0.49 a 21.1,21.1 0 0 1 5.61,-3.34 c 0.33,-0.14 0.48,-0.07 0.67,0.21 a 29.7,29.7 0 0 0 1.78,2.5 22.83,22.83 0 0 0 6.6,5.66 5.32,5.32 0 0 0 1.62,0.53 0.78,0.78 0 0 0 0.89,-1 4,4 0 0 0 -0.41,-1.28 29.63,29.63 0 0 0 -2.06,-3.09 24.1,24.1 0 0 0 -6.67,-5.85 1.08,1.08 0 0 1 0,-0.19 3.44,3.44 0 0 0 -4.2,-4.32 0.62,0.62 0 0 1 -0.46,-0.28 24.73,24.73 0 0 0 -7.08,-7.43 11.17,11.17 0 0 0 -2.68,-1.33 c -0.89,-0.31 -1.47,0.26 -1.16,1.14 a 10.78,10.78 0 0 0 1.33,2.71 z"
     id="path12" />
  <path
     stroke="#000000"
     stroke-width="10"
     d="m 55.900217,37.910338 3,-5.06 -1.9,-1.78 -5,3 a 17.53,17.53 0 0 0 3.9,3.84 z"
     id="path13" />
  <path
     stroke="#000000"
     stroke-width="10"
     d="m 57.400217,30.660338 1.93,1.83 1.3,-1.29 -1.89,-2 z"
     id="path14" />
  <path
     stroke="#000000"
     stroke-width="10"
     d="m 77.470217,53.910338 a 5.5,5.5 0 0 0 -1.2,0.49 20.44,20.44 0 0 0 -5.61,4.56 c -1.1,1.23 -2.07,2.57 -3.14,3.9 a 21,21 0 0 1 -6.44,-3.91 l -2,2 a 20.34,20.34 0 0 1 4,6.58 25.28,25.28 0 0 0 -7.77,7.39 13.24,13.24 0 0 0 -1.17,2.24 c -0.19,0.43 -0.34,1 0.1,1.31 a 1.94,1.94 0 0 0 1.27,0.08 3.55,3.55 0 0 0 1.19,-0.5 24.34,24.34 0 0 0 8.22,-8.08 c 0.16,-0.25 0.23,-0.48 0.66,-0.39 a 3.37,3.37 0 0 0 4.14,-4.1 0.49,0.49 0 0 1 0.25,-0.62 24.29,24.29 0 0 0 7.48,-7.11 11.21,11.21 0 0 0 1.26,-2.52 c 0.29,-0.98 -0.33,-1.62 -1.24,-1.32 z"
     id="path15" />
  <path
     stroke="#000000"
     stroke-width="10"
     d="m 59.000217,56.910338 -3,-5 a 16.1,16.1 0 0 0 -3.86,3.82 l 5,3 z"
     id="path16" />
  <path
     stroke="#000000"
     stroke-width="10"
     d="m 58.780217,60.460338 2,-1.93 -1.43,-1.23 -1.88,1.86 z"
     id="path17" />
  <path
     stroke="#ffffff"
     stroke-width="8"
     d="m 49.680217,54.650338 a 19,19 0 0 1 5.12,-5.1 0.67,0.67 0 0 0 0.33,-0.82 16.61,16.61 0 0 1 0,-7.68 0.62,0.62 0 0 0 -0.31,-0.77 18.57,18.57 0 0 1 -5.14,-5.16 0.64,0.64 0 0 0 -0.78,-0.31 15.73,15.73 0 0 1 -5.34,0.36 c -0.88,-0.1 -1.75,-0.25 -2.8,-0.41 a 0.89,0.89 0 0 0 -0.24,0.2 20.24,20.24 0 0 1 -5.32,5.35 0.67,0.67 0 0 0 -0.18,0.53 17.67,17.67 0 0 1 0,8.15 0.6,0.6 0 0 0 0.2,0.51 19.9,19.9 0 0 1 5.15,5.16 0.56,0.56 0 0 0 0.63,0.25 17,17 0 0 1 8,0 0.55,0.55 0 0 0 0.68,-0.26 z"
     id="path18" />
  <path
     stroke="#ffffff"
     stroke-width="8"
     d="m 23.880217,43.000338 a 19,19 0 1 0 -18.8800002,-19.09 19,19 0 0 0 18.8800002,19.09 z m 0.27,-36.9500003 A 17.92,17.92 0 1 1 6.1502168,23.790338 17.92,17.92 0 0 1 24.150217,6.0503377 Z"
     id="path19" />
  <path
     stroke="#ffffff"
     stroke-width="8"
     d="m 24.070217,46.810338 a 19,19 0 1 0 19,19.17 19.09,19.09 0 0 0 -19,-19.17 z m 0,37 a 17.92,17.92 0 1 1 17.93,-17.9 17.9,17.9 0 0 1 -18,17.88 z"
     id="path20" />
  <path
     stroke="#ffffff"
     stroke-width="8"
     d="m 66.060217,43.000338 a 19,19 0 1 0 -19.16,-19.15 19,19 0 0 0 19.16,19.15 z m -0.5,-36.9400003 a 17.91,17.91 0 1 1 -17.51,18.2300003 17.9,17.9 0 0 1 17.51,-18.2300003 z"
     id="path21" />
  <path
     stroke="#ffffff"
     stroke-width="8"
     d="m 65.900217,46.810338 a 19.05,19.05 0 1 0 19.1,19.1 19,19 0 0 0 -19.1,-19.1 z m 0,37 a 17.92,17.92 0 1 1 18,-18 17.93,17.93 0 0 1 -17.99,17.98 z"
     id="path22" />
  <path
     stroke="#ffffff"
     stroke-width="8"
     d="m 12.280217,35.910338 a 5.79,5.79 0 0 0 1.61,-0.55 19.66,19.66 0 0 0 5.32,-4.27 c 1.19,-1.31 2.25,-2.73 3.42,-4.18 a 20.52,20.52 0 0 1 6.37,3.85 c 0.69,-0.67 1.33,-1.3 2,-1.93 a 20.8,20.8 0 0 1 -4,-6.54 1.37,1.37 0 0 1 0.18,-0.15 24.46,24.46 0 0 0 7.14,-6.64 14.46,14.46 0 0 0 1.64,-3 c 0.39,-0.95 -0.3,-1.61 -1.28,-1.31 a 6.59,6.59 0 0 0 -1.51,0.66 24.56,24.56 0 0 0 -8,8 0.6,0.6 0 0 1 -0.78,0.35 3.11,3.11 0 0 0 -2.87,0.69 3.48,3.48 0 0 0 -1.07,3.81 25.1,25.1 0 0 0 -8.18,8 8.05,8.05 0 0 0 -1,2.33 c -0.08,0.61 0.33,0.98 1.01,0.88 z"
     id="path23" />
  <path
     stroke="#ffffff"
     stroke-width="8"
     d="m 31.180217,32.800338 c 1,1.73 2,3.35 3,5 a 15.87,15.87 0 0 0 3.82,-3.84 l -5,-3 z"
     id="path24" />
  <path
     stroke="#ffffff"
     stroke-width="8"
     d="m 31.400217,29.180338 -2,2 1.4,1.27 c 0.61,-0.56 1.27,-1.18 1.87,-1.75 z"
     id="path25" />
  <path
     stroke="#ffffff"
     stroke-width="8"
     d="m 33.520217,73.090338 a 23.4,23.4 0 0 0 -6.46,-5.65 21.63,21.63 0 0 1 3.94,-6.53 l -2,-1.88 a 20.75,20.75 0 0 1 -6.51,3.88 l -0.24,-0.38 a 24.6,24.6 0 0 0 -7.84,-7.82 8.11,8.11 0 0 0 -2.11,-0.85 0.77,0.77 0 0 0 -1,0.89 4.13,4.13 0 0 0 0.31,1.13 16.49,16.49 0 0 0 3.11,4.43 23.81,23.81 0 0 0 5.72,4.71 c 0,0.11 0,0.18 0,0.26 a 3.39,3.39 0 0 0 4.15,4.2 c 0.35,-0.11 0.45,0.07 0.58,0.31 a 23.26,23.26 0 0 0 6.83,7.26 18.52,18.52 0 0 0 2.87,1.48 0.8,0.8 0 0 0 1,-0.28 1.34,1.34 0 0 0 -0.08,-1.51 30.33,30.33 0 0 0 -2.27,-3.65 z"
     id="path26" />
  <path
     stroke="#ffffff"
     stroke-width="8"
     d="m 34.150217,51.970338 -3,4.89 1.85,1.87 4.93,-3 a 16.27,16.27 0 0 0 -3.78,-3.76 z"
     id="path27" />
  <path
     stroke="#ffffff"
     stroke-width="8"
     d="m 32.680217,59.070338 -2,-1.85 -1.13,1.18 1.8,2.05 z"
     id="path28" />
  <path
     stroke="#ffffff"
     stroke-width="8"
     d="m 55.410217,15.000338 a 25.78,25.78 0 0 0 7.66,7.26 20.85,20.85 0 0 1 -3.95,6.59 l 1.92,2 0.59,-0.49 a 21.1,21.1 0 0 1 5.61,-3.34 c 0.33,-0.14 0.48,-0.07 0.67,0.21 a 29.7,29.7 0 0 0 1.78,2.5 22.83,22.83 0 0 0 6.6,5.66 5.32,5.32 0 0 0 1.62,0.53 0.78,0.78 0 0 0 0.89,-1 4,4 0 0 0 -0.41,-1.28 29.63,29.63 0 0 0 -2.06,-3.09 24.1,24.1 0 0 0 -6.67,-5.85 1.08,1.08 0 0 1 0,-0.19 3.44,3.44 0 0 0 -4.2,-4.32 0.62,0.62 0 0 1 -0.46,-0.28 24.73,24.73 0 0 0 -7.08,-7.43 11.17,11.17 0 0 0 -2.68,-1.33 c -0.89,-0.31 -1.47,0.26 -1.16,1.14 a 10.78,10.78 0 0 0 1.33,2.71 z"
     id="path29" />
  <path
     stroke="#ffffff"
     stroke-width="8"
     d="m 55.900217,37.910338 3,-5.06 -1.9,-1.78 -5,3 a 17.53,17.53 0 0 0 3.9,3.84 z"
     id="path30" />
  <path
     stroke="#ffffff"
     stroke-width="8"
     d="m 57.400217,30.660338 1.93,1.83 1.3,-1.29 -1.89,-2 z"
     id="path31" />
  <path
     stroke="#ffffff"
     stroke-width="8"
     d="m 77.470217,53.910338 a 5.5,5.5 0 0 0 -1.2,0.49 20.44,20.44 0 0 0 -5.61,4.56 c -1.1,1.23 -2.07,2.57 -3.14,3.9 a 21,21 0 0 1 -6.44,-3.91 l -2,2 a 20.34,20.34 0 0 1 4,6.58 25.28,25.28 0 0 0 -7.77,7.39 13.24,13.24 0 0 0 -1.17,2.24 c -0.19,0.43 -0.34,1 0.1,1.31 a 1.94,1.94 0 0 0 1.27,0.08 3.55,3.55 0 0 0 1.19,-0.5 24.34,24.34 0 0 0 8.22,-8.08 c 0.16,-0.25 0.23,-0.48 0.66,-0.39 a 3.37,3.37 0 0 0 4.14,-4.1 0.49,0.49 0 0 1 0.25,-0.62 24.29,24.29 0 0 0 7.48,-7.11 11.21,11.21 0 0 0 1.26,-2.52 c 0.29,-0.98 -0.33,-1.62 -1.24,-1.32 z"
     id="path32" />
  <path
     stroke="#ffffff"
     stroke-width="8"
     d="m 59.000217,56.910338 -3,-5 a 16.1,16.1 0 0 0 -3.86,3.82 l 5,3 z"
     id="path33" />
  <path
     stroke="#ffffff"
     stroke-width="8"
     d="m 58.780217,60.460338 2,-1.93 -1.43,-1.23 -1.88,1.86 z"
     id="path34" />
  <path
     fill="#ffc0cb"
     d="m 49.680217,54.650338 a 19,19 0 0 1 5.12,-5.1 0.67,0.67 0 0 0 0.33,-0.82 16.61,16.61 0 0 1 0,-7.68 0.62,0.62 0 0 0 -0.31,-0.77 18.57,18.57 0 0 1 -5.14,-5.16 0.64,0.64 0 0 0 -0.78,-0.31 15.73,15.73 0 0 1 -5.34,0.36 c -0.88,-0.1 -1.75,-0.25 -2.8,-0.41 a 0.89,0.89 0 0 0 -0.24,0.2 20.24,20.24 0 0 1 -5.32,5.35 0.67,0.67 0 0 0 -0.18,0.53 17.67,17.67 0 0 1 0,8.15 0.6,0.6 0 0 0 0.2,0.51 19.9,19.9 0 0 1 5.15,5.16 0.56,0.56 0 0 0 0.63,0.25 17,17 0 0 1 8,0 0.55,0.55 0 0 0 0.68,-0.26 z"
     id="path35" />
  <path
     fill="#ffc0cb"
     d="m 23.880217,43.000338 a 19,19 0 1 0 -18.8800002,-19.09 19,19 0 0 0 18.8800002,19.09 z m 0.27,-36.9500003 A 17.92,17.92 0 1 1 6.1502168,23.790338 17.92,17.92 0 0 1 24.150217,6.0503377 Z"
     id="path36" />
  <path
     fill="#ffc0cb"
     d="m 24.070217,46.810338 a 19,19 0 1 0 19,19.17 19.09,19.09 0 0 0 -19,-19.17 z m 0,37 a 17.92,17.92 0 1 1 17.93,-17.9 17.9,17.9 0 0 1 -18,17.88 z"
     id="path37" />
  <path
     fill="#ffc0cb"
     d="m 66.060217,43.000338 a 19,19 0 1 0 -19.16,-19.15 19,19 0 0 0 19.16,19.15 z m -0.5,-36.9400003 a 17.91,17.91 0 1 1 -17.51,18.2300003 17.9,17.9 0 0 1 17.51,-18.2300003 z"
     id="path38" />
  <path
     fill="#ffc0cb"
     d="m 65.900217,46.810338 a 19.05,19.05 0 1 0 19.1,19.1 19,19 0 0 0 -19.1,-19.1 z m 0,37 a 17.92,17.92 0 1 1 18,-18 17.93,17.93 0 0 1 -17.99,17.98 z"
     id="path39" />
  <path
     fill="#ffc0cb"
     d="m 12.280217,35.910338 a 5.79,5.79 0 0 0 1.61,-0.55 19.66,19.66 0 0 0 5.32,-4.27 c 1.19,-1.31 2.25,-2.73 3.42,-4.18 a 20.52,20.52 0 0 1 6.37,3.85 c 0.69,-0.67 1.33,-1.3 2,-1.93 a 20.8,20.8 0 0 1 -4,-6.54 1.37,1.37 0 0 1 0.18,-0.15 24.46,24.46 0 0 0 7.14,-6.64 14.46,14.46 0 0 0 1.64,-3 c 0.39,-0.95 -0.3,-1.61 -1.28,-1.31 a 6.59,6.59 0 0 0 -1.51,0.66 24.56,24.56 0 0 0 -8,8 0.6,0.6 0 0 1 -0.78,0.35 3.11,3.11 0 0 0 -2.87,0.69 3.48,3.48 0 0 0 -1.07,3.81 25.1,25.1 0 0 0 -8.18,8 8.05,8.05 0 0 0 -1,2.33 c -0.08,0.61 0.33,0.98 1.01,0.88 z"
     id="path40" />
  <path
     fill="#ffc0cb"
     d="m 31.180217,32.800338 c 1,1.73 2,3.35 3,5 a 15.87,15.87 0 0 0 3.82,-3.84 l -5,-3 z"
     id="path41" />
  <path
     fill="#ffc0cb"
     d="m 31.400217,29.180338 -2,2 1.4,1.27 c 0.61,-0.56 1.27,-1.18 1.87,-1.75 z"
     id="path42" />
  <path
     fill="#ffc0cb"
     d="m 33.520217,73.090338 a 23.4,23.4 0 0 0 -6.46,-5.65 21.63,21.63 0 0 1 3.94,-6.53 l -2,-1.88 a 20.75,20.75 0 0 1 -6.51,3.88 l -0.24,-0.38 a 24.6,24.6 0 0 0 -7.84,-7.82 8.11,8.11 0 0 0 -2.11,-0.85 0.77,0.77 0 0 0 -1,0.89 4.13,4.13 0 0 0 0.31,1.13 16.49,16.49 0 0 0 3.11,4.43 23.81,23.81 0 0 0 5.72,4.71 c 0,0.11 0,0.18 0,0.26 a 3.39,3.39 0 0 0 4.15,4.2 c 0.35,-0.11 0.45,0.07 0.58,0.31 a 23.26,23.26 0 0 0 6.83,7.26 18.52,18.52 0 0 0 2.87,1.48 0.8,0.8 0 0 0 1,-0.28 1.34,1.34 0 0 0 -0.08,-1.51 30.33,30.33 0 0 0 -2.27,-3.65 z"
     id="path43" />
  <path
     fill="#ffc0cb"
     d="m 34.150217,51.970338 -3,4.89 1.85,1.87 4.93,-3 a 16.27,16.27 0 0 0 -3.78,-3.76 z"
     id="path44" />
  <path
     fill="#ffc0cb"
     d="m 32.680217,59.070338 -2,-1.85 -1.13,1.18 1.8,2.05 z"
     id="path45" />
  <path
     fill="#ffc0cb"
     d="m 55.410217,15.000338 a 25.78,25.78 0 0 0 7.66,7.26 20.85,20.85 0 0 1 -3.95,6.59 l 1.92,2 0.59,-0.49 a 21.1,21.1 0 0 1 5.61,-3.34 c 0.33,-0.14 0.48,-0.07 0.67,0.21 a 29.7,29.7 0 0 0 1.78,2.5 22.83,22.83 0 0 0 6.6,5.66 5.32,5.32 0 0 0 1.62,0.53 0.78,0.78 0 0 0 0.89,-1 4,4 0 0 0 -0.41,-1.28 29.63,29.63 0 0 0 -2.06,-3.09 24.1,24.1 0 0 0 -6.67,-5.85 1.08,1.08 0 0 1 0,-0.19 3.44,3.44 0 0 0 -4.2,-4.32 0.62,0.62 0 0 1 -0.46,-0.28 24.73,24.73 0 0 0 -7.08,-7.43 11.17,11.17 0 0 0 -2.68,-1.33 c -0.89,-0.31 -1.47,0.26 -1.16,1.14 a 10.78,10.78 0 0 0 1.33,2.71 z"
     id="path46" />
  <path
     fill="#ffc0cb"
     d="m 55.900217,37.910338 3,-5.06 -1.9,-1.78 -5,3 a 17.53,17.53 0 0 0 3.9,3.84 z"
     id="path47" />
  <path
     fill="#ffc0cb"
     d="m 57.400217,30.660338 1.93,1.83 1.3,-1.29 -1.89,-2 z"
     id="path48" />
  <path
     fill="#ffc0cb"
     d="m 77.470217,53.910338 a 5.5,5.5 0 0 0 -1.2,0.49 20.44,20.44 0 0 0 -5.61,4.56 c -1.1,1.23 -2.07,2.57 -3.14,3.9 a 21,21 0 0 1 -6.44,-3.91 l -2,2 a 20.34,20.34 0 0 1 4,6.58 25.28,25.28 0 0 0 -7.77,7.39 13.24,13.24 0 0 0 -1.17,2.24 c -0.19,0.43 -0.34,1 0.1,1.31 a 1.94,1.94 0 0 0 1.27,0.08 3.55,3.55 0 0 0 1.19,-0.5 24.34,24.34 0 0 0 8.22,-8.08 c 0.16,-0.25 0.23,-0.48 0.66,-0.39 a 3.37,3.37 0 0 0 4.14,-4.1 0.49,0.49 0 0 1 0.25,-0.62 24.29,24.29 0 0 0 7.48,-7.11 11.21,11.21 0 0 0 1.26,-2.52 c 0.29,-0.98 -0.33,-1.62 -1.24,-1.32 z"
     id="path49" />
  <path
     fill="#ffc0cb"
     d="m 59.000217,56.910338 -3,-5 a 16.1,16.1 0 0 0 -3.86,3.82 l 5,3 z"
     id="path50" />
  <path
     fill="#ffc0cb"
     d="m 58.780217,60.460338 2,-1.93 -1.43,-1.23 -1.88,1.86 z"
     id="path51" />
</svg>
