<?xml version="1.0" encoding="UTF-8" standalone="no"?>
<!-- Generator: Adobe Illustrator 28.0.0, SVG Export Plug-In . SVG Version: 6.00 Build 0)  -->

<svg
   version="1.1"
   id="icon"
   x="0px"
   y="0px"
   viewBox="0 0 131.3 113.38454"
   xml:space="preserve"
   width="135"
   height="135"
   xmlns="http://www.w3.org/2000/svg"
   xmlns:svg="http://www.w3.org/2000/svg"><defs
   id="defs3" />
<path
   stroke="#000000"
   stroke-width="10"
   d="m 71.9,35.500744 c 1.7,0.1 3.3,0.2 5,0.3 4.2,0.2 8.5,0.4 12.7,0.6 2.6,0.1 5.3,0.3 7.9,0.4 3.3,0.2 6.5,0.4 9.8,0.6 2.4,0.1 4.8,0.3 7.2,0.4 2.2,0.1 4.4,0.3 6.6,0.5 1.2,0.1 2.4,0.2 3.7,0.3 1,0.1 1.5,0.6 1.5,1.6 0,2.1 0,4.1 0,6.2 0,1.2 -0.5,1.8 -1.7,1.9 -3.2,0.3 -6.4,0.6 -9.7,0.9 -2.3,0.2 -4.5,0.4 -6.8,0.5 -2.9,0.2 -5.9,0.5 -8.8,0.7 -2,0.2 -3.9,0.3 -5.9,0.4 -3.2,0.2 -6.3,0.4 -9.5,0.6 -2,0.1 -3.9,0.2 -5.9,0.3 -2.1,0.1 -4.3,0.1 -6.4,0.2 -0.4,0 -0.6,0.1 -0.7,0.5 -0.9,3.5 -1.6,7.1 -1.7,10.7 -0.2,3.8 -0.4,7.7 -0.6,11.5 -0.2,3 -0.3,6 -0.5,9 -0.1,2.1 -0.3,4.3 -0.5,6.4 0,0.1 0,0.2 0,0.3 2,0.3 3.9,0.6 5.9,0.8 2.8,0.4 5.5,0.8 8.2,1.3 1.8,0.3 3.6,0.5 5.5,0.8 0.9,0.1 1.3,0.6 1.3,1.5 0,0.8 0,1.7 0,2.5 0,0.9 -0.5,1.4 -1.3,1.5 -1.6,0.2 -3.2,0.3 -4.8,0.4 -2.4,0.2 -4.8,0.3 -7.1,0.5 -1.6,0.1 -3.3,0.2 -4.9,0.3 -1.1,0.1 -2.1,0.199996 -3.1,0.199996 -0.4,2.1 -0.7,4.1 -1.1,6.1 0,0.2 -0.1,0.5 -0.2,0.7 -0.1,0.1 -0.2,0.3 -0.4,0.4 -0.1,-0.1 -0.3,-0.2 -0.4,-0.4 -0.3,-1.1 -0.5,-2.3 -0.8,-3.4 -0.2,-1.1 -0.3,-2.2 -0.4,-3.3 -0.9,-0.1 -1.9,-0.1 -2.8,-0.2 -2.3,-0.1 -4.6,-0.299996 -6.9,-0.399996 -3.4,-0.2 -6.8,-0.5 -10.1,-0.8 -0.9,-0.1 -1.4,-0.6 -1.4,-1.5 0,-0.8 0,-1.6 0,-2.5 0,-0.9 0.4,-1.4 1.2,-1.5 2.3,-0.4 4.7,-0.7 7,-1.1 2.1,-0.3 4.1,-0.6 6.2,-0.9 2.1,-0.3 4.1,-0.6 6.2,-0.9 0.1,0 0.2,0 0.3,-0.1 -0.1,-1.3 -0.2,-2.6 -0.2,-3.9 -0.1,-1.8 -0.2,-3.6 -0.4,-5.3 -0.2,-3 -0.3,-6 -0.5,-9 -0.1,-1.8 -0.2,-3.6 -0.3,-5.4 -0.2,-4.7 -0.5,-9.4 -1.8,-13.9 -0.1,-0.3 -0.2,-0.6 -0.3,-0.8 -2.3,-0.1 -4.5,-0.1 -6.7,-0.2 -2.7,-0.1 -5.5,-0.3 -8.2,-0.5 -2.2,-0.1 -4.3,-0.3 -6.5,-0.4 -2.6,-0.2 -5.1,-0.4 -7.7,-0.6 -1.8,-0.1 -3.6,-0.3 -5.4,-0.4 -1.9,-0.2 -3.9,-0.3 -5.8,-0.5 -1.8,-0.1 -3.6,-0.3 -5.3,-0.4 -2.3,-0.2 -4.7,-0.4 -7,-0.6 -0.4,0 -0.8,0 -1.2,-0.1 -1,-0.2 -1.4,-0.6 -1.4,-1.6 0,-2.2 0,-4.4 0,-6.6 0,-0.8 0.5,-1.3 1.3,-1.4 2.4,-0.2 4.8,-0.4 7.2,-0.5 2.4,-0.2 4.7,-0.3 7.1,-0.5 1.7,-0.1 3.3,-0.2 5,-0.3 3.7,-0.2 7.3,-0.4 11,-0.6 2,-0.1 4,-0.2 5.9,-0.3 2.9,-0.2 5.9,-0.3 8.8,-0.5 2.5,-0.1 5,-0.2 7.5,-0.4 0.2,0 0.4,0 0.7,-0.1 0,-0.4 0,-0.8 0,-1.1 0,-2.9 -0.1,-5.9 0,-8.8 0.2,-5.4 0.7,-10.7 2.6,-15.8000001 0.5,-1.3 1.2,-2.6 2,-3.8 1,-1.4 2.5,-1.3 3.5,0.1 1.6,2.1 2.3,4.6000001 3,7.1000001 1.4,5.7 1.7,11.6 1.6,17.4 -0.3,1.6 -0.3,3.2 -0.3,4.9 z"
   id="path1" />
<path
   stroke="#ffffff"
   stroke-width="8"
   d="m 71.9,35.500744 c 1.7,0.1 3.3,0.2 5,0.3 4.2,0.2 8.5,0.4 12.7,0.6 2.6,0.1 5.3,0.3 7.9,0.4 3.3,0.2 6.5,0.4 9.8,0.6 2.4,0.1 4.8,0.3 7.2,0.4 2.2,0.1 4.4,0.3 6.6,0.5 1.2,0.1 2.4,0.2 3.7,0.3 1,0.1 1.5,0.6 1.5,1.6 0,2.1 0,4.1 0,6.2 0,1.2 -0.5,1.8 -1.7,1.9 -3.2,0.3 -6.4,0.6 -9.7,0.9 -2.3,0.2 -4.5,0.4 -6.8,0.5 -2.9,0.2 -5.9,0.5 -8.8,0.7 -2,0.2 -3.9,0.3 -5.9,0.4 -3.2,0.2 -6.3,0.4 -9.5,0.6 -2,0.1 -3.9,0.2 -5.9,0.3 -2.1,0.1 -4.3,0.1 -6.4,0.2 -0.4,0 -0.6,0.1 -0.7,0.5 -0.9,3.5 -1.6,7.1 -1.7,10.7 -0.2,3.8 -0.4,7.7 -0.6,11.5 -0.2,3 -0.3,6 -0.5,9 -0.1,2.1 -0.3,4.3 -0.5,6.4 0,0.1 0,0.2 0,0.3 2,0.3 3.9,0.6 5.9,0.8 2.8,0.4 5.5,0.8 8.2,1.3 1.8,0.3 3.6,0.5 5.5,0.8 0.9,0.1 1.3,0.6 1.3,1.5 0,0.8 0,1.7 0,2.5 0,0.9 -0.5,1.4 -1.3,1.5 -1.6,0.2 -3.2,0.3 -4.8,0.4 -2.4,0.2 -4.8,0.3 -7.1,0.5 -1.6,0.1 -3.3,0.2 -4.9,0.3 -1.1,0.1 -2.1,0.199996 -3.1,0.199996 -0.4,2.1 -0.7,4.1 -1.1,6.1 0,0.2 -0.1,0.5 -0.2,0.7 -0.1,0.1 -0.2,0.3 -0.4,0.4 -0.1,-0.1 -0.3,-0.2 -0.4,-0.4 -0.3,-1.1 -0.5,-2.3 -0.8,-3.4 -0.2,-1.1 -0.3,-2.2 -0.4,-3.3 -0.9,-0.1 -1.9,-0.1 -2.8,-0.2 -2.3,-0.1 -4.6,-0.299996 -6.9,-0.399996 -3.4,-0.2 -6.8,-0.5 -10.1,-0.8 -0.9,-0.1 -1.4,-0.6 -1.4,-1.5 0,-0.8 0,-1.6 0,-2.5 0,-0.9 0.4,-1.4 1.2,-1.5 2.3,-0.4 4.7,-0.7 7,-1.1 2.1,-0.3 4.1,-0.6 6.2,-0.9 2.1,-0.3 4.1,-0.6 6.2,-0.9 0.1,0 0.2,0 0.3,-0.1 -0.1,-1.3 -0.2,-2.6 -0.2,-3.9 -0.1,-1.8 -0.2,-3.6 -0.4,-5.3 -0.2,-3 -0.3,-6 -0.5,-9 -0.1,-1.8 -0.2,-3.6 -0.3,-5.4 -0.2,-4.7 -0.5,-9.4 -1.8,-13.9 -0.1,-0.3 -0.2,-0.6 -0.3,-0.8 -2.3,-0.1 -4.5,-0.1 -6.7,-0.2 -2.7,-0.1 -5.5,-0.3 -8.2,-0.5 -2.2,-0.1 -4.3,-0.3 -6.5,-0.4 -2.6,-0.2 -5.1,-0.4 -7.7,-0.6 -1.8,-0.1 -3.6,-0.3 -5.4,-0.4 -1.9,-0.2 -3.9,-0.3 -5.8,-0.5 -1.8,-0.1 -3.6,-0.3 -5.3,-0.4 -2.3,-0.2 -4.7,-0.4 -7,-0.6 -0.4,0 -0.8,0 -1.2,-0.1 -1,-0.2 -1.4,-0.6 -1.4,-1.6 0,-2.2 0,-4.4 0,-6.6 0,-0.8 0.5,-1.3 1.3,-1.4 2.4,-0.2 4.8,-0.4 7.2,-0.5 2.4,-0.2 4.7,-0.3 7.1,-0.5 1.7,-0.1 3.3,-0.2 5,-0.3 3.7,-0.2 7.3,-0.4 11,-0.6 2,-0.1 4,-0.2 5.9,-0.3 2.9,-0.2 5.9,-0.3 8.8,-0.5 2.5,-0.1 5,-0.2 7.5,-0.4 0.2,0 0.4,0 0.7,-0.1 0,-0.4 0,-0.8 0,-1.1 0,-2.9 -0.1,-5.9 0,-8.8 0.2,-5.4 0.7,-10.7 2.6,-15.8000001 0.5,-1.3 1.2,-2.6 2,-3.8 1,-1.4 2.5,-1.3 3.5,0.1 1.6,2.1 2.3,4.6000001 3,7.1000001 1.4,5.7 1.7,11.6 1.6,17.4 -0.3,1.6 -0.3,3.2 -0.3,4.9 z"
   id="path2" />
<path
   fill="#000040"
   d="m 71.9,35.500744 c 1.7,0.1 3.3,0.2 5,0.3 4.2,0.2 8.5,0.4 12.7,0.6 2.6,0.1 5.3,0.3 7.9,0.4 3.3,0.2 6.5,0.4 9.8,0.6 2.4,0.1 4.8,0.3 7.2,0.4 2.2,0.1 4.4,0.3 6.6,0.5 1.2,0.1 2.4,0.2 3.7,0.3 1,0.1 1.5,0.6 1.5,1.6 0,2.1 0,4.1 0,6.2 0,1.2 -0.5,1.8 -1.7,1.9 -3.2,0.3 -6.4,0.6 -9.7,0.9 -2.3,0.2 -4.5,0.4 -6.8,0.5 -2.9,0.2 -5.9,0.5 -8.8,0.7 -2,0.2 -3.9,0.3 -5.9,0.4 -3.2,0.2 -6.3,0.4 -9.5,0.6 -2,0.1 -3.9,0.2 -5.9,0.3 -2.1,0.1 -4.3,0.1 -6.4,0.2 -0.4,0 -0.6,0.1 -0.7,0.5 -0.9,3.5 -1.6,7.1 -1.7,10.7 -0.2,3.8 -0.4,7.7 -0.6,11.5 -0.2,3 -0.3,6 -0.5,9 -0.1,2.1 -0.3,4.3 -0.5,6.4 0,0.1 0,0.2 0,0.3 2,0.3 3.9,0.6 5.9,0.8 2.8,0.4 5.5,0.8 8.2,1.3 1.8,0.3 3.6,0.5 5.5,0.8 0.9,0.1 1.3,0.6 1.3,1.5 0,0.8 0,1.7 0,2.5 0,0.9 -0.5,1.4 -1.3,1.5 -1.6,0.2 -3.2,0.3 -4.8,0.4 -2.4,0.2 -4.8,0.3 -7.1,0.5 -1.6,0.1 -3.3,0.2 -4.9,0.3 -1.1,0.1 -2.1,0.199996 -3.1,0.199996 -0.4,2.1 -0.7,4.1 -1.1,6.1 0,0.2 -0.1,0.5 -0.2,0.7 -0.1,0.1 -0.2,0.3 -0.4,0.4 -0.1,-0.1 -0.3,-0.2 -0.4,-0.4 -0.3,-1.1 -0.5,-2.3 -0.8,-3.4 -0.2,-1.1 -0.3,-2.2 -0.4,-3.3 -0.9,-0.1 -1.9,-0.1 -2.8,-0.2 -2.3,-0.1 -4.6,-0.299996 -6.9,-0.399996 -3.4,-0.2 -6.8,-0.5 -10.1,-0.8 -0.9,-0.1 -1.4,-0.6 -1.4,-1.5 0,-0.8 0,-1.6 0,-2.5 0,-0.9 0.4,-1.4 1.2,-1.5 2.3,-0.4 4.7,-0.7 7,-1.1 2.1,-0.3 4.1,-0.6 6.2,-0.9 2.1,-0.3 4.1,-0.6 6.2,-0.9 0.1,0 0.2,0 0.3,-0.1 -0.1,-1.3 -0.2,-2.6 -0.2,-3.9 -0.1,-1.8 -0.2,-3.6 -0.4,-5.3 -0.2,-3 -0.3,-6 -0.5,-9 -0.1,-1.8 -0.2,-3.6 -0.3,-5.4 -0.2,-4.7 -0.5,-9.4 -1.8,-13.9 -0.1,-0.3 -0.2,-0.6 -0.3,-0.8 -2.3,-0.1 -4.5,-0.1 -6.7,-0.2 -2.7,-0.1 -5.5,-0.3 -8.2,-0.5 -2.2,-0.1 -4.3,-0.3 -6.5,-0.4 -2.6,-0.2 -5.1,-0.4 -7.7,-0.6 -1.8,-0.1 -3.6,-0.3 -5.4,-0.4 -1.9,-0.2 -3.9,-0.3 -5.8,-0.5 -1.8,-0.1 -3.6,-0.3 -5.3,-0.4 -2.3,-0.2 -4.7,-0.4 -7,-0.6 -0.4,0 -0.8,0 -1.2,-0.1 -1,-0.2 -1.4,-0.6 -1.4,-1.6 0,-2.2 0,-4.4 0,-6.6 0,-0.8 0.5,-1.3 1.3,-1.4 2.4,-0.2 4.8,-0.4 7.2,-0.5 2.4,-0.2 4.7,-0.3 7.1,-0.5 1.7,-0.1 3.3,-0.2 5,-0.3 3.7,-0.2 7.3,-0.4 11,-0.6 2,-0.1 4,-0.2 5.9,-0.3 2.9,-0.2 5.9,-0.3 8.8,-0.5 2.5,-0.1 5,-0.2 7.5,-0.4 0.2,0 0.4,0 0.7,-0.1 0,-0.4 0,-0.8 0,-1.1 0,-2.9 -0.1,-5.9 0,-8.8 0.2,-5.4 0.7,-10.7 2.6,-15.8000001 0.5,-1.3 1.2,-2.6 2,-3.8 1,-1.4 2.5,-1.3 3.5,0.1 1.6,2.1 2.3,4.6000001 3,7.1000001 1.4,5.7 1.7,11.6 1.6,17.4 -0.3,1.6 -0.3,3.2 -0.3,4.9 z"
   id="path3" />
</svg>
