<?xml version="1.0" encoding="utf-8"?>
<svg version="1.1" id="icon" xmlns="http://www.w3.org/2000/svg" xmlns:xlink="http://www.w3.org/1999/xlink" x="0px" y="0px"
	 viewBox="0 0 200 200" style="enable-background:new 0 0 200 200;" xml:space="preserve">
<path stroke="black" stroke-width="10" d="M104.2,128.8c1.1,0.2,2.2,0.5,3.3,0.7c3.3,0.6,6.6,1.2,9.9,1.9c1.2,0.2,2.4,0.4,3.5,0.7c2,0.4,2.9,1.6,2.9,3.6
	c0,1.1,0,2.2,0,3.2c0,2-1.2,3.5-3.1,3.7c-2.7,0.4-5.4,0.7-8.1,1c-1.8,0.2-3.6,0.5-5.4,0.7c-1.5,0.2-2.7-0.2-3.7-1.4
	c-0.4-0.4-0.8-0.8-1.2-1.2c-0.1,0-0.1,0.1-0.2,0.1c-0.1,1.2-0.2,2.3-0.4,3.5c-0.2,0.9-0.7,1.5-1.5,1.6c-0.7,0.1-1.2-0.2-1.4-0.8
	c-0.2-0.4-0.4-0.8-0.5-1.3c-0.1-0.8-0.2-1.5-0.3-2.3c0-0.2-0.1-0.5-0.2-1c-0.5,0.5-1,0.8-1.3,1.2c-1,1.3-2.4,1.8-4,1.5
	c-3-0.4-6-0.8-9-1.2c-1.4-0.2-2.8-0.4-4.2-0.6c-1.8-0.4-2.9-1.8-2.9-3.6c0-1.1,0-2.2,0-3.3c0-2,0.9-3.2,2.9-3.6
	c3-0.6,6.1-1.2,9.1-1.8c2.3-0.5,4.7-0.9,7-1.4c0.5-0.1,0.6-0.3,0.5-0.7c-0.7-3.8-1.3-7.5-2-11.3c-0.5-3.2-1.1-6.3-1.6-9.5
	c-0.3-1.8-0.5-3.6-0.9-5.3c-0.4-2-1.5-2.7-3.5-2.8c-4.4-0.2-8.9-0.3-13.3-0.5c-2-0.1-4-0.4-6-0.7c-2.3-0.3-4.7-0.6-7-0.8
	c-2.3-0.3-4.6-0.6-6.9-0.8c-2.2-0.3-4.4-0.6-6.6-0.8c-1.9-0.2-3.5-0.7-4.6-2.4c-0.7-1.1-0.8-2.3-0.8-3.5c0-2.8-0.1-5.7,0-8.5
	c0.1-2.8,2.3-4.4,4.5-4.4c10.9,0,21.8,0,32.8,0c3.4,0,6.8-0.1,10.3-0.1c0.4,0,0.7-0.1,0.8-0.6c0.5-3.2,1-6.5,1.6-9.7
	c0.2-1.1,0.6-2.2,1-3.3c0.6-1.7,1.9-2.7,3.6-3.2c0.4-0.2,0.5-0.4,0.5-0.8c0-0.4-0.4-0.5-0.7-0.5c-1.4,0-2.9,0.1-4.3,0.1
	c-3,0-6-0.1-9-0.1c-0.3,0-0.7-0.1-0.9-0.3c-0.3-0.3-0.6-0.7-0.6-1c0-0.3,0.4-0.8,0.7-0.9c0.7-0.2,1.4-0.3,2.1-0.3
	c4.1,0,8.1,0,12.2,0.1c0.6,0,0.8-0.2,1-0.8c0.2-0.7,0.5-1.3,1-1.9c0.7-0.8,1.7-0.8,2.3,0c0.5,0.6,0.7,1.3,1,2
	c0.1,0.2,0.1,0.4,0.2,0.6c1.2,0,2.4,0,3.6,0c3.5,0,7,0,10.5,0c0.1,0,0.2,0,0.3,0c0.7,0.1,1.3,0.4,1.4,0.9c0.1,0.5-0.5,1.2-1.1,1.4
	c-0.4,0.1-0.9,0.1-1.3,0.1c-3.7,0-7.5,0-11.2,0c-0.4,0-0.7,0-1.1,0c-0.3,0-0.7-0.1-0.7,0.4c0,0.4-0.1,0.7,0.5,0.9
	c2.4,0.8,3.7,2.6,4.2,5c0.5,2.6,1,5.2,1.4,7.8c0.2,1.2,0.4,2.4,0.5,3.6c0.1,0.4,0.3,0.4,0.6,0.4c2.5,0,5,0.1,7.5,0.1
	c11.8,0,23.6,0,35.4,0c2.8,0,4.9,2,4.9,4.7c0,3,0.1,6,0,9c-0.1,2.9-1.9,4.7-4.7,5c-3.4,0.4-6.9,0.8-10.3,1.3
	c-3.3,0.4-6.6,0.8-10,1.2c-4.4,0.6-8.8,1-13.3,1.1c-2.5,0-5.1,0.1-7.6,0.2c-1.3,0-2.4,0.6-2.9,1.8c-0.3,0.6-0.3,1.3-0.4,2
	c-0.4,2.8-0.9,5.6-1.3,8.4c-0.4,2.8-0.9,5.6-1.3,8.3C105.2,122.7,104.7,125.7,104.2,128.8z"/>
<path stroke="white" stroke-width="8" d="M104.2,128.8c1.1,0.2,2.2,0.5,3.3,0.7c3.3,0.6,6.6,1.2,9.9,1.9c1.2,0.2,2.4,0.4,3.5,0.7c2,0.4,2.9,1.6,2.9,3.6
	c0,1.1,0,2.2,0,3.2c0,2-1.2,3.5-3.1,3.7c-2.7,0.4-5.4,0.7-8.1,1c-1.8,0.2-3.6,0.5-5.4,0.7c-1.5,0.2-2.7-0.2-3.7-1.4
	c-0.4-0.4-0.8-0.8-1.2-1.2c-0.1,0-0.1,0.1-0.2,0.1c-0.1,1.2-0.2,2.3-0.4,3.5c-0.2,0.9-0.7,1.5-1.5,1.6c-0.7,0.1-1.2-0.2-1.4-0.8
	c-0.2-0.4-0.4-0.8-0.5-1.3c-0.1-0.8-0.2-1.5-0.3-2.3c0-0.2-0.1-0.5-0.2-1c-0.5,0.5-1,0.8-1.3,1.2c-1,1.3-2.4,1.8-4,1.5
	c-3-0.4-6-0.8-9-1.2c-1.4-0.2-2.8-0.4-4.2-0.6c-1.8-0.4-2.9-1.8-2.9-3.6c0-1.1,0-2.2,0-3.3c0-2,0.9-3.2,2.9-3.6
	c3-0.6,6.1-1.2,9.1-1.8c2.3-0.5,4.7-0.9,7-1.4c0.5-0.1,0.6-0.3,0.5-0.7c-0.7-3.8-1.3-7.5-2-11.3c-0.5-3.2-1.1-6.3-1.6-9.5
	c-0.3-1.8-0.5-3.6-0.9-5.3c-0.4-2-1.5-2.7-3.5-2.8c-4.4-0.2-8.9-0.3-13.3-0.5c-2-0.1-4-0.4-6-0.7c-2.3-0.3-4.7-0.6-7-0.8
	c-2.3-0.3-4.6-0.6-6.9-0.8c-2.2-0.3-4.4-0.6-6.6-0.8c-1.9-0.2-3.5-0.7-4.6-2.4c-0.7-1.1-0.8-2.3-0.8-3.5c0-2.8-0.1-5.7,0-8.5
	c0.1-2.8,2.3-4.4,4.5-4.4c10.9,0,21.8,0,32.8,0c3.4,0,6.8-0.1,10.3-0.1c0.4,0,0.7-0.1,0.8-0.6c0.5-3.2,1-6.5,1.6-9.7
	c0.2-1.1,0.6-2.2,1-3.3c0.6-1.7,1.9-2.7,3.6-3.2c0.4-0.2,0.5-0.4,0.5-0.8c0-0.4-0.4-0.5-0.7-0.5c-1.4,0-2.9,0.1-4.3,0.1
	c-3,0-6-0.1-9-0.1c-0.3,0-0.7-0.1-0.9-0.3c-0.3-0.3-0.6-0.7-0.6-1c0-0.3,0.4-0.8,0.7-0.9c0.7-0.2,1.4-0.3,2.1-0.3
	c4.1,0,8.1,0,12.2,0.1c0.6,0,0.8-0.2,1-0.8c0.2-0.7,0.5-1.3,1-1.9c0.7-0.8,1.7-0.8,2.3,0c0.5,0.6,0.7,1.3,1,2
	c0.1,0.2,0.1,0.4,0.2,0.6c1.2,0,2.4,0,3.6,0c3.5,0,7,0,10.5,0c0.1,0,0.2,0,0.3,0c0.7,0.1,1.3,0.4,1.4,0.9c0.1,0.5-0.5,1.2-1.1,1.4
	c-0.4,0.1-0.9,0.1-1.3,0.1c-3.7,0-7.5,0-11.2,0c-0.4,0-0.7,0-1.1,0c-0.3,0-0.7-0.1-0.7,0.4c0,0.4-0.1,0.7,0.5,0.9
	c2.4,0.8,3.7,2.6,4.2,5c0.5,2.6,1,5.2,1.4,7.8c0.2,1.2,0.4,2.4,0.5,3.6c0.1,0.4,0.3,0.4,0.6,0.4c2.5,0,5,0.1,7.5,0.1
	c11.8,0,23.6,0,35.4,0c2.8,0,4.9,2,4.9,4.7c0,3,0.1,6,0,9c-0.1,2.9-1.9,4.7-4.7,5c-3.4,0.4-6.9,0.8-10.3,1.3
	c-3.3,0.4-6.6,0.8-10,1.2c-4.4,0.6-8.8,1-13.3,1.1c-2.5,0-5.1,0.1-7.6,0.2c-1.3,0-2.4,0.6-2.9,1.8c-0.3,0.6-0.3,1.3-0.4,2
	c-0.4,2.8-0.9,5.6-1.3,8.4c-0.4,2.8-0.9,5.6-1.3,8.3C105.2,122.7,104.7,125.7,104.2,128.8z"/>
<path fill="pink" d="M104.2,128.8c1.1,0.2,2.2,0.5,3.3,0.7c3.3,0.6,6.6,1.2,9.9,1.9c1.2,0.2,2.4,0.4,3.5,0.7c2,0.4,2.9,1.6,2.9,3.6
	c0,1.1,0,2.2,0,3.2c0,2-1.2,3.5-3.1,3.7c-2.7,0.4-5.4,0.7-8.1,1c-1.8,0.2-3.6,0.5-5.4,0.7c-1.5,0.2-2.7-0.2-3.7-1.4
	c-0.4-0.4-0.8-0.8-1.2-1.2c-0.1,0-0.1,0.1-0.2,0.1c-0.1,1.2-0.2,2.3-0.4,3.5c-0.2,0.9-0.7,1.5-1.5,1.6c-0.7,0.1-1.2-0.2-1.4-0.8
	c-0.2-0.4-0.4-0.8-0.5-1.3c-0.1-0.8-0.2-1.5-0.3-2.3c0-0.2-0.1-0.5-0.2-1c-0.5,0.5-1,0.8-1.3,1.2c-1,1.3-2.4,1.8-4,1.5
	c-3-0.4-6-0.8-9-1.2c-1.4-0.2-2.8-0.4-4.2-0.6c-1.8-0.4-2.9-1.8-2.9-3.6c0-1.1,0-2.2,0-3.3c0-2,0.9-3.2,2.9-3.6
	c3-0.6,6.1-1.2,9.1-1.8c2.3-0.5,4.7-0.9,7-1.4c0.5-0.1,0.6-0.3,0.5-0.7c-0.7-3.8-1.3-7.5-2-11.3c-0.5-3.2-1.1-6.3-1.6-9.5
	c-0.3-1.8-0.5-3.6-0.9-5.3c-0.4-2-1.5-2.7-3.5-2.8c-4.4-0.2-8.9-0.3-13.3-0.5c-2-0.1-4-0.4-6-0.7c-2.3-0.3-4.7-0.6-7-0.8
	c-2.3-0.3-4.6-0.6-6.9-0.8c-2.2-0.3-4.4-0.6-6.6-0.8c-1.9-0.2-3.5-0.7-4.6-2.4c-0.7-1.1-0.8-2.3-0.8-3.5c0-2.8-0.1-5.7,0-8.5
	c0.1-2.8,2.3-4.4,4.5-4.4c10.9,0,21.8,0,32.8,0c3.4,0,6.8-0.1,10.3-0.1c0.4,0,0.7-0.1,0.8-0.6c0.5-3.2,1-6.5,1.6-9.7
	c0.2-1.1,0.6-2.2,1-3.3c0.6-1.7,1.9-2.7,3.6-3.2c0.4-0.2,0.5-0.4,0.5-0.8c0-0.4-0.4-0.5-0.7-0.5c-1.4,0-2.9,0.1-4.3,0.1
	c-3,0-6-0.1-9-0.1c-0.3,0-0.7-0.1-0.9-0.3c-0.3-0.3-0.6-0.7-0.6-1c0-0.3,0.4-0.8,0.7-0.9c0.7-0.2,1.4-0.3,2.1-0.3
	c4.1,0,8.1,0,12.2,0.1c0.6,0,0.8-0.2,1-0.8c0.2-0.7,0.5-1.3,1-1.9c0.7-0.8,1.7-0.8,2.3,0c0.5,0.6,0.7,1.3,1,2
	c0.1,0.2,0.1,0.4,0.2,0.6c1.2,0,2.4,0,3.6,0c3.5,0,7,0,10.5,0c0.1,0,0.2,0,0.3,0c0.7,0.1,1.3,0.4,1.4,0.9c0.1,0.5-0.5,1.2-1.1,1.4
	c-0.4,0.1-0.9,0.1-1.3,0.1c-3.7,0-7.5,0-11.2,0c-0.4,0-0.7,0-1.1,0c-0.3,0-0.7-0.1-0.7,0.4c0,0.4-0.1,0.7,0.5,0.9
	c2.4,0.8,3.7,2.6,4.2,5c0.5,2.6,1,5.2,1.4,7.8c0.2,1.2,0.4,2.4,0.5,3.6c0.1,0.4,0.3,0.4,0.6,0.4c2.5,0,5,0.1,7.5,0.1
	c11.8,0,23.6,0,35.4,0c2.8,0,4.9,2,4.9,4.7c0,3,0.1,6,0,9c-0.1,2.9-1.9,4.7-4.7,5c-3.4,0.4-6.9,0.8-10.3,1.3
	c-3.3,0.4-6.6,0.8-10,1.2c-4.4,0.6-8.8,1-13.3,1.1c-2.5,0-5.1,0.1-7.6,0.2c-1.3,0-2.4,0.6-2.9,1.8c-0.3,0.6-0.3,1.3-0.4,2
	c-0.4,2.8-0.9,5.6-1.3,8.4c-0.4,2.8-0.9,5.6-1.3,8.3C105.2,122.7,104.7,125.7,104.2,128.8z"/>

</svg>
