<svg id="icon" xmlns="http://www.w3.org/2000/svg" viewBox="0 0 200 200">
  <title>ballon</title>
  <path stroke="black" stroke-width="10" d="M134,79.12a25.75,25.75,0,0,0-6.55-14.4c-4.93-5.31-11.27-7.82-18.24-9-1.75-.3-3.53-.48-5.29-.71h-1.23c7.07,1.54,11.13,6.26,13.46,12.8A43,43,0,0,1,118.28,79a78.56,78.56,0,0,1-2.21,24.15c-.37,1.58-.77,3.16-1.15,4.74a1.21,1.21,0,0,0,.24.07c3.93,0,7.86,0,11.79,0a1.06,1.06,0,0,0,.73-.56c.8-1.56,1.61-3.12,2.32-4.73C133.27,95.13,135.12,87.37,134,79.12Z"/>
  <path stroke="black" stroke-width="10" d="M84.22,107.94c.28,0,.55,0,.87,0-.06-.29-.1-.48-.15-.68A92.83,92.83,0,0,1,81.63,87.5a53.24,53.24,0,0,1,2-18.87A20.92,20.92,0,0,1,90.46,58.1a18,18,0,0,1,6.9-3.1H96.13a6.41,6.41,0,0,1-.76.16,44,44,0,0,0-10.83,2.1c-5.88,2-10.88,5.22-14.33,10.5C66.07,74.1,65.14,81.14,66,88.5c.75,6.7,3.17,12.87,6.26,18.8a1.12,1.12,0,0,0,1.17.66C77,107.94,80.62,108,84.22,107.94Z"/>
  <path stroke="black" stroke-width="10" d="M89.29,68.41a40.08,40.08,0,0,0-2.47,14.38,84,84,0,0,0,3.62,24.59c.16.55.45.58.89.58H100c2.87,0,5.75,0,8.62,0,.57,0,.83-.16.95-.73.74-3.25,1.62-6.47,2.26-9.75a62.56,62.56,0,0,0,.44-23.58A21.16,21.16,0,0,0,108.12,64a10.5,10.5,0,0,0-14.79-1.46A14.38,14.38,0,0,0,89.29,68.41Z"/>
  <path stroke="black" stroke-width="10" d="M124.08,113.22c-1.81,0-3.63,0-5.44,0a1.37,1.37,0,0,0-1.22.64c-2.47,3.13-5,6.22-7.44,9.34a1.55,1.55,0,0,1-1.35.61c-5.75,0-11.49,0-17.24,0a1.6,1.6,0,0,1-1.41-.66C87.52,120,85,117,82.57,113.87c-.19-.23-.44-.6-.67-.61-2-.05-4,0-6,0l-.16.24,7.62,10.33H81.59v5.28h5.23V145h26.39V129.05h5.2v-5.31h-1.73l7.58-10.27Z"/>

  <path stroke="white" stroke-width="8" d="M134,79.12a25.75,25.75,0,0,0-6.55-14.4c-4.93-5.31-11.27-7.82-18.24-9-1.75-.3-3.53-.48-5.29-.71h-1.23c7.07,1.54,11.13,6.26,13.46,12.8A43,43,0,0,1,118.28,79a78.56,78.56,0,0,1-2.21,24.15c-.37,1.58-.77,3.16-1.15,4.74a1.21,1.21,0,0,0,.24.07c3.93,0,7.86,0,11.79,0a1.06,1.06,0,0,0,.73-.56c.8-1.56,1.61-3.12,2.32-4.73C133.27,95.13,135.12,87.37,134,79.12Z"/>
  <path stroke="white" stroke-width="8" d="M84.22,107.94c.28,0,.55,0,.87,0-.06-.29-.1-.48-.15-.68A92.83,92.83,0,0,1,81.63,87.5a53.24,53.24,0,0,1,2-18.87A20.92,20.92,0,0,1,90.46,58.1a18,18,0,0,1,6.9-3.1H96.13a6.41,6.41,0,0,1-.76.16,44,44,0,0,0-10.83,2.1c-5.88,2-10.88,5.22-14.33,10.5C66.07,74.1,65.14,81.14,66,88.5c.75,6.7,3.17,12.87,6.26,18.8a1.12,1.12,0,0,0,1.17.66C77,107.94,80.62,108,84.22,107.94Z"/>
  <path stroke="white" stroke-width="8" d="M89.29,68.41a40.08,40.08,0,0,0-2.47,14.38,84,84,0,0,0,3.62,24.59c.16.55.45.58.89.58H100c2.87,0,5.75,0,8.62,0,.57,0,.83-.16.95-.73.74-3.25,1.62-6.47,2.26-9.75a62.56,62.56,0,0,0,.44-23.58A21.16,21.16,0,0,0,108.12,64a10.5,10.5,0,0,0-14.79-1.46A14.38,14.38,0,0,0,89.29,68.41Z"/>
  <path stroke="white" stroke-width="8" d="M124.08,113.22c-1.81,0-3.63,0-5.44,0a1.37,1.37,0,0,0-1.22.64c-2.47,3.13-5,6.22-7.44,9.34a1.55,1.55,0,0,1-1.35.61c-5.75,0-11.49,0-17.24,0a1.6,1.6,0,0,1-1.41-.66C87.52,120,85,117,82.57,113.87c-.19-.23-.44-.6-.67-.61-2-.05-4,0-6,0l-.16.24,7.62,10.33H81.59v5.28h5.23V145h26.39V129.05h5.2v-5.31h-1.73l7.58-10.27Z"/>

  <path fill="pink" d="M134,79.12a25.75,25.75,0,0,0-6.55-14.4c-4.93-5.31-11.27-7.82-18.24-9-1.75-.3-3.53-.48-5.29-.71h-1.23c7.07,1.54,11.13,6.26,13.46,12.8A43,43,0,0,1,118.28,79a78.56,78.56,0,0,1-2.21,24.15c-.37,1.58-.77,3.16-1.15,4.74a1.21,1.21,0,0,0,.24.07c3.93,0,7.86,0,11.79,0a1.06,1.06,0,0,0,.73-.56c.8-1.56,1.61-3.12,2.32-4.73C133.27,95.13,135.12,87.37,134,79.12Z"/>
  <path fill="pink" d="M84.22,107.94c.28,0,.55,0,.87,0-.06-.29-.1-.48-.15-.68A92.83,92.83,0,0,1,81.63,87.5a53.24,53.24,0,0,1,2-18.87A20.92,20.92,0,0,1,90.46,58.1a18,18,0,0,1,6.9-3.1H96.13a6.41,6.41,0,0,1-.76.16,44,44,0,0,0-10.83,2.1c-5.88,2-10.88,5.22-14.33,10.5C66.07,74.1,65.14,81.14,66,88.5c.75,6.7,3.17,12.87,6.26,18.8a1.12,1.12,0,0,0,1.17.66C77,107.94,80.62,108,84.22,107.94Z"/>
  <path fill="pink" d="M89.29,68.41a40.08,40.08,0,0,0-2.47,14.38,84,84,0,0,0,3.62,24.59c.16.55.45.58.89.58H100c2.87,0,5.75,0,8.62,0,.57,0,.83-.16.95-.73.74-3.25,1.62-6.47,2.26-9.75a62.56,62.56,0,0,0,.44-23.58A21.16,21.16,0,0,0,108.12,64a10.5,10.5,0,0,0-14.79-1.46A14.38,14.38,0,0,0,89.29,68.41Z"/>
  <path fill="pink" d="M124.08,113.22c-1.81,0-3.63,0-5.44,0a1.37,1.37,0,0,0-1.22.64c-2.47,3.13-5,6.22-7.44,9.34a1.55,1.55,0,0,1-1.35.61c-5.75,0-11.49,0-17.24,0a1.6,1.6,0,0,1-1.41-.66C87.52,120,85,117,82.57,113.87c-.19-.23-.44-.6-.67-.61-2-.05-4,0-6,0l-.16.24,7.62,10.33H81.59v5.28h5.23V145h26.39V129.05h5.2v-5.31h-1.73l7.58-10.27Z"/>
</svg>