<?xml version="1.0" encoding="utf-8"?>
<!-- Generator: Adobe Illustrator 28.0.0, SVG Export Plug-In . SVG Version: 6.00 Build 0)  -->
<svg version="1.1" id="icon" xmlns="http://www.w3.org/2000/svg" xmlns:xlink="http://www.w3.org/1999/xlink" x="0px" y="0px"
	 viewBox="0 0 200 200" style="enable-background:new 0 0 200 200;" xml:space="preserve">
<path stroke="black" stroke-width="10" d="M106.4,79.3c1.7,0.1,3.3,0.2,5,0.3c4.2,0.2,8.5,0.4,12.7,0.6c2.6,0.1,5.3,0.3,7.9,0.4c3.3,0.2,6.5,0.4,9.8,0.6
	c2.4,0.1,4.8,0.3,7.2,0.4c2.2,0.1,4.4,0.3,6.6,0.5c1.2,0.1,2.4,0.2,3.7,0.3c1,0.1,1.5,0.6,1.5,1.6c0,2.1,0,4.1,0,6.2
	c0,1.2-0.5,1.8-1.7,1.9c-3.2,0.3-6.4,0.6-9.7,0.9c-2.3,0.2-4.5,0.4-6.8,0.5c-2.9,0.2-5.9,0.5-8.8,0.7c-2,0.2-3.9,0.3-5.9,0.4
	c-3.2,0.2-6.3,0.4-9.5,0.6c-2,0.1-3.9,0.2-5.9,0.3c-2.1,0.1-4.3,0.1-6.4,0.2c-0.4,0-0.6,0.1-0.7,0.5c-0.9,3.5-1.6,7.1-1.7,10.7
	c-0.2,3.8-0.4,7.7-0.6,11.5c-0.2,3-0.3,6-0.5,9c-0.1,2.1-0.3,4.3-0.5,6.4c0,0.1,0,0.2,0,0.3c2,0.3,3.9,0.6,5.9,0.8
	c2.8,0.4,5.5,0.8,8.2,1.3c1.8,0.3,3.6,0.5,5.5,0.8c0.9,0.1,1.3,0.6,1.3,1.5c0,0.8,0,1.7,0,2.5c0,0.9-0.5,1.4-1.3,1.5
	c-1.6,0.2-3.2,0.3-4.8,0.4c-2.4,0.2-4.8,0.3-7.1,0.5c-1.6,0.1-3.3,0.2-4.9,0.3c-1.1,0.1-2.1,0.2-3.1,0.2c-0.4,2.1-0.7,4.1-1.1,6.1
	c0,0.2-0.1,0.5-0.2,0.7c-0.1,0.1-0.2,0.3-0.4,0.4c-0.1-0.1-0.3-0.2-0.4-0.4c-0.3-1.1-0.5-2.3-0.8-3.4c-0.2-1.1-0.3-2.2-0.4-3.3
	c-0.9-0.1-1.9-0.1-2.8-0.2c-2.3-0.1-4.6-0.3-6.9-0.4c-3.4-0.2-6.8-0.5-10.1-0.8c-0.9-0.1-1.4-0.6-1.4-1.5c0-0.8,0-1.6,0-2.5
	c0-0.9,0.4-1.4,1.2-1.5c2.3-0.4,4.7-0.7,7-1.1c2.1-0.3,4.1-0.6,6.2-0.9c2.1-0.3,4.1-0.6,6.2-0.9c0.1,0,0.2,0,0.3-0.1
	c-0.1-1.3-0.2-2.6-0.2-3.9c-0.1-1.8-0.2-3.6-0.4-5.3c-0.2-3-0.3-6-0.5-9c-0.1-1.8-0.2-3.6-0.3-5.4c-0.2-4.7-0.5-9.4-1.8-13.9
	c-0.1-0.3-0.2-0.6-0.3-0.8c-2.3-0.1-4.5-0.1-6.7-0.2c-2.7-0.1-5.5-0.3-8.2-0.5c-2.2-0.1-4.3-0.3-6.5-0.4c-2.6-0.2-5.1-0.4-7.7-0.6
	c-1.8-0.1-3.6-0.3-5.4-0.4c-1.9-0.2-3.9-0.3-5.8-0.5c-1.8-0.1-3.6-0.3-5.3-0.4c-2.3-0.2-4.7-0.4-7-0.6c-0.4,0-0.8,0-1.2-0.1
	c-1-0.2-1.4-0.6-1.4-1.6c0-2.2,0-4.4,0-6.6c0-0.8,0.5-1.3,1.3-1.4c2.4-0.2,4.8-0.4,7.2-0.5c2.4-0.2,4.7-0.3,7.1-0.5
	c1.7-0.1,3.3-0.2,5-0.3c3.7-0.2,7.3-0.4,11-0.6c2-0.1,4-0.2,5.9-0.3c2.9-0.2,5.9-0.3,8.8-0.5c2.5-0.1,5-0.2,7.5-0.4
	c0.2,0,0.4,0,0.7-0.1c0-0.4,0-0.8,0-1.1c0-2.9-0.1-5.9,0-8.8c0.2-5.4,0.7-10.7,2.6-15.8c0.5-1.3,1.2-2.6,2-3.8
	c1-1.4,2.5-1.3,3.5,0.1c1.6,2.1,2.3,4.6,3,7.1c1.4,5.7,1.7,11.6,1.6,17.4C106.4,76,106.4,77.6,106.4,79.3z"/>
<path stroke="white" stroke-width="8" d="M106.4,79.3c1.7,0.1,3.3,0.2,5,0.3c4.2,0.2,8.5,0.4,12.7,0.6c2.6,0.1,5.3,0.3,7.9,0.4c3.3,0.2,6.5,0.4,9.8,0.6
	c2.4,0.1,4.8,0.3,7.2,0.4c2.2,0.1,4.4,0.3,6.6,0.5c1.2,0.1,2.4,0.2,3.7,0.3c1,0.1,1.5,0.6,1.5,1.6c0,2.1,0,4.1,0,6.2
	c0,1.2-0.5,1.8-1.7,1.9c-3.2,0.3-6.4,0.6-9.7,0.9c-2.3,0.2-4.5,0.4-6.8,0.5c-2.9,0.2-5.9,0.5-8.8,0.7c-2,0.2-3.9,0.3-5.9,0.4
	c-3.2,0.2-6.3,0.4-9.5,0.6c-2,0.1-3.9,0.2-5.9,0.3c-2.1,0.1-4.3,0.1-6.4,0.2c-0.4,0-0.6,0.1-0.7,0.5c-0.9,3.5-1.6,7.1-1.7,10.7
	c-0.2,3.8-0.4,7.7-0.6,11.5c-0.2,3-0.3,6-0.5,9c-0.1,2.1-0.3,4.3-0.5,6.4c0,0.1,0,0.2,0,0.3c2,0.3,3.9,0.6,5.9,0.8
	c2.8,0.4,5.5,0.8,8.2,1.3c1.8,0.3,3.6,0.5,5.5,0.8c0.9,0.1,1.3,0.6,1.3,1.5c0,0.8,0,1.7,0,2.5c0,0.9-0.5,1.4-1.3,1.5
	c-1.6,0.2-3.2,0.3-4.8,0.4c-2.4,0.2-4.8,0.3-7.1,0.5c-1.6,0.1-3.3,0.2-4.9,0.3c-1.1,0.1-2.1,0.2-3.1,0.2c-0.4,2.1-0.7,4.1-1.1,6.1
	c0,0.2-0.1,0.5-0.2,0.7c-0.1,0.1-0.2,0.3-0.4,0.4c-0.1-0.1-0.3-0.2-0.4-0.4c-0.3-1.1-0.5-2.3-0.8-3.4c-0.2-1.1-0.3-2.2-0.4-3.3
	c-0.9-0.1-1.9-0.1-2.8-0.2c-2.3-0.1-4.6-0.3-6.9-0.4c-3.4-0.2-6.8-0.5-10.1-0.8c-0.9-0.1-1.4-0.6-1.4-1.5c0-0.8,0-1.6,0-2.5
	c0-0.9,0.4-1.4,1.2-1.5c2.3-0.4,4.7-0.7,7-1.1c2.1-0.3,4.1-0.6,6.2-0.9c2.1-0.3,4.1-0.6,6.2-0.9c0.1,0,0.2,0,0.3-0.1
	c-0.1-1.3-0.2-2.6-0.2-3.9c-0.1-1.8-0.2-3.6-0.4-5.3c-0.2-3-0.3-6-0.5-9c-0.1-1.8-0.2-3.6-0.3-5.4c-0.2-4.7-0.5-9.4-1.8-13.9
	c-0.1-0.3-0.2-0.6-0.3-0.8c-2.3-0.1-4.5-0.1-6.7-0.2c-2.7-0.1-5.5-0.3-8.2-0.5c-2.2-0.1-4.3-0.3-6.5-0.4c-2.6-0.2-5.1-0.4-7.7-0.6
	c-1.8-0.1-3.6-0.3-5.4-0.4c-1.9-0.2-3.9-0.3-5.8-0.5c-1.8-0.1-3.6-0.3-5.3-0.4c-2.3-0.2-4.7-0.4-7-0.6c-0.4,0-0.8,0-1.2-0.1
	c-1-0.2-1.4-0.6-1.4-1.6c0-2.2,0-4.4,0-6.6c0-0.8,0.5-1.3,1.3-1.4c2.4-0.2,4.8-0.4,7.2-0.5c2.4-0.2,4.7-0.3,7.1-0.5
	c1.7-0.1,3.3-0.2,5-0.3c3.7-0.2,7.3-0.4,11-0.6c2-0.1,4-0.2,5.9-0.3c2.9-0.2,5.9-0.3,8.8-0.5c2.5-0.1,5-0.2,7.5-0.4
	c0.2,0,0.4,0,0.7-0.1c0-0.4,0-0.8,0-1.1c0-2.9-0.1-5.9,0-8.8c0.2-5.4,0.7-10.7,2.6-15.8c0.5-1.3,1.2-2.6,2-3.8
	c1-1.4,2.5-1.3,3.5,0.1c1.6,2.1,2.3,4.6,3,7.1c1.4,5.7,1.7,11.6,1.6,17.4C106.4,76,106.4,77.6,106.4,79.3z"/>
<path fill="pink" d="M106.4,79.3c1.7,0.1,3.3,0.2,5,0.3c4.2,0.2,8.5,0.4,12.7,0.6c2.6,0.1,5.3,0.3,7.9,0.4c3.3,0.2,6.5,0.4,9.8,0.6
	c2.4,0.1,4.8,0.3,7.2,0.4c2.2,0.1,4.4,0.3,6.6,0.5c1.2,0.1,2.4,0.2,3.7,0.3c1,0.1,1.5,0.6,1.5,1.6c0,2.1,0,4.1,0,6.2
	c0,1.2-0.5,1.8-1.7,1.9c-3.2,0.3-6.4,0.6-9.7,0.9c-2.3,0.2-4.5,0.4-6.8,0.5c-2.9,0.2-5.9,0.5-8.8,0.7c-2,0.2-3.9,0.3-5.9,0.4
	c-3.2,0.2-6.3,0.4-9.5,0.6c-2,0.1-3.9,0.2-5.9,0.3c-2.1,0.1-4.3,0.1-6.4,0.2c-0.4,0-0.6,0.1-0.7,0.5c-0.9,3.5-1.6,7.1-1.7,10.7
	c-0.2,3.8-0.4,7.7-0.6,11.5c-0.2,3-0.3,6-0.5,9c-0.1,2.1-0.3,4.3-0.5,6.4c0,0.1,0,0.2,0,0.3c2,0.3,3.9,0.6,5.9,0.8
	c2.8,0.4,5.5,0.8,8.2,1.3c1.8,0.3,3.6,0.5,5.5,0.8c0.9,0.1,1.3,0.6,1.3,1.5c0,0.8,0,1.7,0,2.5c0,0.9-0.5,1.4-1.3,1.5
	c-1.6,0.2-3.2,0.3-4.8,0.4c-2.4,0.2-4.8,0.3-7.1,0.5c-1.6,0.1-3.3,0.2-4.9,0.3c-1.1,0.1-2.1,0.2-3.1,0.2c-0.4,2.1-0.7,4.1-1.1,6.1
	c0,0.2-0.1,0.5-0.2,0.7c-0.1,0.1-0.2,0.3-0.4,0.4c-0.1-0.1-0.3-0.2-0.4-0.4c-0.3-1.1-0.5-2.3-0.8-3.4c-0.2-1.1-0.3-2.2-0.4-3.3
	c-0.9-0.1-1.9-0.1-2.8-0.2c-2.3-0.1-4.6-0.3-6.9-0.4c-3.4-0.2-6.8-0.5-10.1-0.8c-0.9-0.1-1.4-0.6-1.4-1.5c0-0.8,0-1.6,0-2.5
	c0-0.9,0.4-1.4,1.2-1.5c2.3-0.4,4.7-0.7,7-1.1c2.1-0.3,4.1-0.6,6.2-0.9c2.1-0.3,4.1-0.6,6.2-0.9c0.1,0,0.2,0,0.3-0.1
	c-0.1-1.3-0.2-2.6-0.2-3.9c-0.1-1.8-0.2-3.6-0.4-5.3c-0.2-3-0.3-6-0.5-9c-0.1-1.8-0.2-3.6-0.3-5.4c-0.2-4.7-0.5-9.4-1.8-13.9
	c-0.1-0.3-0.2-0.6-0.3-0.8c-2.3-0.1-4.5-0.1-6.7-0.2c-2.7-0.1-5.5-0.3-8.2-0.5c-2.2-0.1-4.3-0.3-6.5-0.4c-2.6-0.2-5.1-0.4-7.7-0.6
	c-1.8-0.1-3.6-0.3-5.4-0.4c-1.9-0.2-3.9-0.3-5.8-0.5c-1.8-0.1-3.6-0.3-5.3-0.4c-2.3-0.2-4.7-0.4-7-0.6c-0.4,0-0.8,0-1.2-0.1
	c-1-0.2-1.4-0.6-1.4-1.6c0-2.2,0-4.4,0-6.6c0-0.8,0.5-1.3,1.3-1.4c2.4-0.2,4.8-0.4,7.2-0.5c2.4-0.2,4.7-0.3,7.1-0.5
	c1.7-0.1,3.3-0.2,5-0.3c3.7-0.2,7.3-0.4,11-0.6c2-0.1,4-0.2,5.9-0.3c2.9-0.2,5.9-0.3,8.8-0.5c2.5-0.1,5-0.2,7.5-0.4
	c0.2,0,0.4,0,0.7-0.1c0-0.4,0-0.8,0-1.1c0-2.9-0.1-5.9,0-8.8c0.2-5.4,0.7-10.7,2.6-15.8c0.5-1.3,1.2-2.6,2-3.8
	c1-1.4,2.5-1.3,3.5,0.1c1.6,2.1,2.3,4.6,3,7.1c1.4,5.7,1.7,11.6,1.6,17.4C106.4,76,106.4,77.6,106.4,79.3z"/>
</svg>
