<?xml version="1.0" encoding="utf-8"?>
<!-- Generator: Adobe Illustrator 28.0.0, SVG Export Plug-In . SVG Version: 6.00 Build 0)  -->
<svg version="1.1" id="icon" xmlns="http://www.w3.org/2000/svg" xmlns:xlink="http://www.w3.org/1999/xlink" x="0px" y="0px"
	 viewBox="0 0 200 200" style="enable-background:new 0 0 200 200;" xml:space="preserve">
<path stroke="black" stroke-width="10" d="M103.3,150.8c-0.5,1.8-0.9,3.6-1.4,5.3c-0.2,0.7-0.4,1.4-0.6,2.1c-0.2,0.7-0.6,1.2-1.4,1.2c-0.7,0-1-0.6-1.2-1.2
	c-0.7-2.3-1.4-4.7-2.1-7c0-0.1-0.1-0.2-0.1-0.4c-3.9,1.3-7.9,2.5-11.8,3.8c-2.8,0.9-5.6,1.8-8.4,2.7c-0.8,0.3-1.6-0.3-1.6-1.2
	c0-1.2,0-2.4,0-3.5c0-0.7,0.5-1.1,0.9-1.5c4.7-3.6,9.5-7.2,14.2-10.8c1.1-0.8,2.2-1.7,3.3-2.5c0.2-0.2,0.3-0.6,0.3-0.8
	c-0.9-3.1-1.5-6.2-1.8-9.3c-0.2-1.9-0.1-3.9-0.1-5.9c0-5.5,0-10.9,0-16.4c0-0.3,0-0.5,0-1c-1.7,0.6-3.2,1.1-4.8,1.6
	c-8.9,3.2-17.7,6.3-26.6,9.5c-5.3,1.9-10.7,3.9-16,5.8c-0.3,0.1-0.7,0.2-1,0.2c-0.7,0-1.2-0.4-1.2-1.1c0-1.7-0.1-3.3,0-5
	c0-0.5,0.5-1,0.9-1.3c1.3-1.1,2.7-2,4.1-3.1c2.8-2,5.5-4.1,8.3-6.1c0.2-0.1,0.3-0.3,0.6-0.5c-1.8-2.5-1-5.5-1.1-8.3
	c-0.1-1.5,0.9-2.3,2.4-2.3c0.8,0,1.5,0,2.3,0c1.3,0,2,0.6,2.1,2c0.1,1.2,0,2.4,0,3.6c0,0.3,0,0.6,0.1,1.1c4.1-3,8-5.8,12-8.7
	c-0.1-0.2-0.1-0.4-0.2-0.6c-0.6-1.3-0.9-2.6-0.8-4.1c0.1-1.1,0-2.3,0-3.4c0-1.4,0.6-2.2,2-2.3c1.1-0.1,2.2,0,3.3,0
	c0.9,0.1,1.3,0.6,1.4,1.4c0.1,1.5,0,3.1,0,4.8c0.5-0.3,0.8-0.5,1.1-0.7c3.4-2.4,6.7-4.9,10.1-7.3c0.9-0.6,1.3-1.3,1.3-2.4
	c-0.1-6-0.1-12,0-18c0.1-4.8,0.8-9.5,3-13.8c0.7-1.3,1.5-2.5,2.5-3.6c0.5-0.6,1.4-1,2.1-1.4c0.4-0.2,1-0.2,1.4,0
	c1.2,0.4,2.2,1.2,3,2.2c2.3,2.9,3.4,6.4,4.1,10c0.8,4.1,0.7,8.3,0.7,12.4c0,4,0.1,7.9,0,11.9c-0.1,1.5,0.5,2.3,1.6,3.1
	c3.5,2.5,7,5,10.6,7.7c0.1-0.7,0.1-1.2,0.1-1.7c0-0.8,0-1.7,0-2.5c0-1.5,0.6-2.1,2-2.1c1,0,1.9,0,2.9,0c0.8,0,1.5,0.7,1.6,1.6
	c0.1,1.4,0.1,2.9,0.2,4.3c0.1,1.6-0.2,3.1-1,4.6c4,2.9,8,5.8,12.1,8.8c0-0.6,0-1.1,0-1.5c0-1.1,0-2.2,0.1-3.3
	c0.1-1.1,0.6-1.5,1.7-1.6c1-0.1,2-0.1,3,0c1.2,0.1,1.8,0.7,1.8,1.9c0,1,0,1.9,0,2.9c0,1.9,0.2,3.8-1,5.5c1.8,1.4,3.5,2.7,5.3,3.9
	c2.7,2,5.4,4,8.1,5.9c0.5,0.3,0.7,0.7,0.7,1.3c0,1.3,0,2.7,0,4c0,1.7-0.7,2.2-2.3,1.6c-3.4-1.2-6.8-2.4-10.1-3.7
	c-9.7-3.5-19.4-6.9-29.1-10.4c-2.6-0.9-5.2-1.8-7.8-2.7c-0.1,0-0.2-0.1-0.4-0.1c0,0.4,0,0.7,0,1.1c0,7.2,0,14.4-0.1,21.7
	c0,3.3-0.9,6.5-1.9,9.6c-0.2,0.5,0,0.8,0.3,1c5.5,4.1,10.9,8.3,16.4,12.4c2,1.5,2,1.5,2,3.9c0,0.7,0,1.3,0,2c0,0.9-0.7,1.3-1.5,1
	C116.8,155.1,110.1,153,103.3,150.8z"/>
<path stroke="white" stroke-width="8" d="M103.3,150.8c-0.5,1.8-0.9,3.6-1.4,5.3c-0.2,0.7-0.4,1.4-0.6,2.1c-0.2,0.7-0.6,1.2-1.4,1.2c-0.7,0-1-0.6-1.2-1.2
	c-0.7-2.3-1.4-4.7-2.1-7c0-0.1-0.1-0.2-0.1-0.4c-3.9,1.3-7.9,2.5-11.8,3.8c-2.8,0.9-5.6,1.8-8.4,2.7c-0.8,0.3-1.6-0.3-1.6-1.2
	c0-1.2,0-2.4,0-3.5c0-0.7,0.5-1.1,0.9-1.5c4.7-3.6,9.5-7.2,14.2-10.8c1.1-0.8,2.2-1.7,3.3-2.5c0.2-0.2,0.3-0.6,0.3-0.8
	c-0.9-3.1-1.5-6.2-1.8-9.3c-0.2-1.9-0.1-3.9-0.1-5.9c0-5.5,0-10.9,0-16.4c0-0.3,0-0.5,0-1c-1.7,0.6-3.2,1.1-4.8,1.6
	c-8.9,3.2-17.7,6.3-26.6,9.5c-5.3,1.9-10.7,3.9-16,5.8c-0.3,0.1-0.7,0.2-1,0.2c-0.7,0-1.2-0.4-1.2-1.1c0-1.7-0.1-3.3,0-5
	c0-0.5,0.5-1,0.9-1.3c1.3-1.1,2.7-2,4.1-3.1c2.8-2,5.5-4.1,8.3-6.1c0.2-0.1,0.3-0.3,0.6-0.5c-1.8-2.5-1-5.5-1.1-8.3
	c-0.1-1.5,0.9-2.3,2.4-2.3c0.8,0,1.5,0,2.3,0c1.3,0,2,0.6,2.1,2c0.1,1.2,0,2.4,0,3.6c0,0.3,0,0.6,0.1,1.1c4.1-3,8-5.8,12-8.7
	c-0.1-0.2-0.1-0.4-0.2-0.6c-0.6-1.3-0.9-2.6-0.8-4.1c0.1-1.1,0-2.3,0-3.4c0-1.4,0.6-2.2,2-2.3c1.1-0.1,2.2,0,3.3,0
	c0.9,0.1,1.3,0.6,1.4,1.4c0.1,1.5,0,3.1,0,4.8c0.5-0.3,0.8-0.5,1.1-0.7c3.4-2.4,6.7-4.9,10.1-7.3c0.9-0.6,1.3-1.3,1.3-2.4
	c-0.1-6-0.1-12,0-18c0.1-4.8,0.8-9.5,3-13.8c0.7-1.3,1.5-2.5,2.5-3.6c0.5-0.6,1.4-1,2.1-1.4c0.4-0.2,1-0.2,1.4,0
	c1.2,0.4,2.2,1.2,3,2.2c2.3,2.9,3.4,6.4,4.1,10c0.8,4.1,0.7,8.3,0.7,12.4c0,4,0.1,7.9,0,11.9c-0.1,1.5,0.5,2.3,1.6,3.1
	c3.5,2.5,7,5,10.6,7.7c0.1-0.7,0.1-1.2,0.1-1.7c0-0.8,0-1.7,0-2.5c0-1.5,0.6-2.1,2-2.1c1,0,1.9,0,2.9,0c0.8,0,1.5,0.7,1.6,1.6
	c0.1,1.4,0.1,2.9,0.2,4.3c0.1,1.6-0.2,3.1-1,4.6c4,2.9,8,5.8,12.1,8.8c0-0.6,0-1.1,0-1.5c0-1.1,0-2.2,0.1-3.3
	c0.1-1.1,0.6-1.5,1.7-1.6c1-0.1,2-0.1,3,0c1.2,0.1,1.8,0.7,1.8,1.9c0,1,0,1.9,0,2.9c0,1.9,0.2,3.8-1,5.5c1.8,1.4,3.5,2.7,5.3,3.9
	c2.7,2,5.4,4,8.1,5.9c0.5,0.3,0.7,0.7,0.7,1.3c0,1.3,0,2.7,0,4c0,1.7-0.7,2.2-2.3,1.6c-3.4-1.2-6.8-2.4-10.1-3.7
	c-9.7-3.5-19.4-6.9-29.1-10.4c-2.6-0.9-5.2-1.8-7.8-2.7c-0.1,0-0.2-0.1-0.4-0.1c0,0.4,0,0.7,0,1.1c0,7.2,0,14.4-0.1,21.7
	c0,3.3-0.9,6.5-1.9,9.6c-0.2,0.5,0,0.8,0.3,1c5.5,4.1,10.9,8.3,16.4,12.4c2,1.5,2,1.5,2,3.9c0,0.7,0,1.3,0,2c0,0.9-0.7,1.3-1.5,1
	C116.8,155.1,110.1,153,103.3,150.8z"/>
<path fill="pink" d="M103.3,150.8c-0.5,1.8-0.9,3.6-1.4,5.3c-0.2,0.7-0.4,1.4-0.6,2.1c-0.2,0.7-0.6,1.2-1.4,1.2c-0.7,0-1-0.6-1.2-1.2
	c-0.7-2.3-1.4-4.7-2.1-7c0-0.1-0.1-0.2-0.1-0.4c-3.9,1.3-7.9,2.5-11.8,3.8c-2.8,0.9-5.6,1.8-8.4,2.7c-0.8,0.3-1.6-0.3-1.6-1.2
	c0-1.2,0-2.4,0-3.5c0-0.7,0.5-1.1,0.9-1.5c4.7-3.6,9.5-7.2,14.2-10.8c1.1-0.8,2.2-1.7,3.3-2.5c0.2-0.2,0.3-0.6,0.3-0.8
	c-0.9-3.1-1.5-6.2-1.8-9.3c-0.2-1.9-0.1-3.9-0.1-5.9c0-5.5,0-10.9,0-16.4c0-0.3,0-0.5,0-1c-1.7,0.6-3.2,1.1-4.8,1.6
	c-8.9,3.2-17.7,6.3-26.6,9.5c-5.3,1.9-10.7,3.9-16,5.8c-0.3,0.1-0.7,0.2-1,0.2c-0.7,0-1.2-0.4-1.2-1.1c0-1.7-0.1-3.3,0-5
	c0-0.5,0.5-1,0.9-1.3c1.3-1.1,2.7-2,4.1-3.1c2.8-2,5.5-4.1,8.3-6.1c0.2-0.1,0.3-0.3,0.6-0.5c-1.8-2.5-1-5.5-1.1-8.3
	c-0.1-1.5,0.9-2.3,2.4-2.3c0.8,0,1.5,0,2.3,0c1.3,0,2,0.6,2.1,2c0.1,1.2,0,2.4,0,3.6c0,0.3,0,0.6,0.1,1.1c4.1-3,8-5.8,12-8.7
	c-0.1-0.2-0.1-0.4-0.2-0.6c-0.6-1.3-0.9-2.6-0.8-4.1c0.1-1.1,0-2.3,0-3.4c0-1.4,0.6-2.2,2-2.3c1.1-0.1,2.2,0,3.3,0
	c0.9,0.1,1.3,0.6,1.4,1.4c0.1,1.5,0,3.1,0,4.8c0.5-0.3,0.8-0.5,1.1-0.7c3.4-2.4,6.7-4.9,10.1-7.3c0.9-0.6,1.3-1.3,1.3-2.4
	c-0.1-6-0.1-12,0-18c0.1-4.8,0.8-9.5,3-13.8c0.7-1.3,1.5-2.5,2.5-3.6c0.5-0.6,1.4-1,2.1-1.4c0.4-0.2,1-0.2,1.4,0
	c1.2,0.4,2.2,1.2,3,2.2c2.3,2.9,3.4,6.4,4.1,10c0.8,4.1,0.7,8.3,0.7,12.4c0,4,0.1,7.9,0,11.9c-0.1,1.5,0.5,2.3,1.6,3.1
	c3.5,2.5,7,5,10.6,7.7c0.1-0.7,0.1-1.2,0.1-1.7c0-0.8,0-1.7,0-2.5c0-1.5,0.6-2.1,2-2.1c1,0,1.9,0,2.9,0c0.8,0,1.5,0.7,1.6,1.6
	c0.1,1.4,0.1,2.9,0.2,4.3c0.1,1.6-0.2,3.1-1,4.6c4,2.9,8,5.8,12.1,8.8c0-0.6,0-1.1,0-1.5c0-1.1,0-2.2,0.1-3.3
	c0.1-1.1,0.6-1.5,1.7-1.6c1-0.1,2-0.1,3,0c1.2,0.1,1.8,0.7,1.8,1.9c0,1,0,1.9,0,2.9c0,1.9,0.2,3.8-1,5.5c1.8,1.4,3.5,2.7,5.3,3.9
	c2.7,2,5.4,4,8.1,5.9c0.5,0.3,0.7,0.7,0.7,1.3c0,1.3,0,2.7,0,4c0,1.7-0.7,2.2-2.3,1.6c-3.4-1.2-6.8-2.4-10.1-3.7
	c-9.7-3.5-19.4-6.9-29.1-10.4c-2.6-0.9-5.2-1.8-7.8-2.7c-0.1,0-0.2-0.1-0.4-0.1c0,0.4,0,0.7,0,1.1c0,7.2,0,14.4-0.1,21.7
	c0,3.3-0.9,6.5-1.9,9.6c-0.2,0.5,0,0.8,0.3,1c5.5,4.1,10.9,8.3,16.4,12.4c2,1.5,2,1.5,2,3.9c0,0.7,0,1.3,0,2c0,0.9-0.7,1.3-1.5,1
	C116.8,155.1,110.1,153,103.3,150.8z"/>
</svg>
