<?xml version="1.0" encoding="UTF-8" standalone="no"?>
<svg
   id="icon"
   viewBox="0 0 150.00999 63.629543"
   version="1.1"
   width="155"
   height="155"
   xmlns="http://www.w3.org/2000/svg"
   xmlns:svg="http://www.w3.org/2000/svg">
  <defs
     id="defs18" />
  <title
     id="title1">para_glider</title>
  <path
     stroke="#000000"
     stroke-width="10"
     d="m 39.12,20.159545 -9.81,23.39 23.79,-7.02 5.08,-26.17 z"
     id="path1" />
  <path
     stroke="#000000"
     stroke-width="10"
     d="m 91.82,10.359545 5.08,26.17 23.79,7.02 -9.81,-23.39 z"
     id="path2" />
  <path
     stroke="#000000"
     stroke-width="10"
     d="m 5,46.889545 v 0.11 c 0,1.82 2.09,3.1 4.09,2.51 l 11.33,-3.34 8.77,-20.91 -15,7.72 c -5.7,2.93 -9.19,8.21 -9.19,13.91 z"
     id="path3" />
  <path
     stroke="#000000"
     stroke-width="10"
     d="m 135.82,32.979545 -15,-7.72 8.77,20.91 11.33,3.34 c 2,0.59 4.09,-0.69 4.09,-2.51 v -0.11 c -0.01,-5.7 -3.5,-10.98 -9.19,-13.91 z"
     id="path4" />
  <path
     stroke="#000000"
     stroke-width="10"
     d="m 82,32.149545 7,2 -5.38,-27.7300004 a 27,27 0 0 0 -17.28,0 L 61,34.199545 l 7,-2 a 25,25 0 0 1 14,-0.05 z"
     id="path5" />
  <path
     stroke="#000000"
     stroke-width="10"
     d="M 92.32,48.099545 H 57.68 c -2.42,0 -4.39,2.36 -4.39,5.26 0,2.9 2,5.27 4.39,5.27 h 34.64 c 2.42,0 4.39,-2.36 4.39,-5.27 0,-2.91 -1.97,-5.26 -4.39,-5.26 z"
     id="path6" />
  <path
     stroke="#ffffff"
     stroke-width="8"
     d="m 39.12,20.159545 -9.81,23.39 23.79,-7.02 5.08,-26.17 z"
     id="path7" />
  <path
     stroke="#ffffff"
     stroke-width="8"
     d="m 91.82,10.359545 5.08,26.17 23.79,7.02 -9.81,-23.39 z"
     id="path8" />
  <path
     stroke="#ffffff"
     stroke-width="8"
     d="m 5,46.889545 v 0.11 c 0,1.82 2.09,3.1 4.09,2.51 l 11.33,-3.34 8.77,-20.91 -15,7.72 c -5.7,2.93 -9.19,8.21 -9.19,13.91 z"
     id="path9" />
  <path
     stroke="#ffffff"
     stroke-width="8"
     d="m 135.82,32.979545 -15,-7.72 8.77,20.91 11.33,3.34 c 2,0.59 4.09,-0.69 4.09,-2.51 v -0.11 c -0.01,-5.7 -3.5,-10.98 -9.19,-13.91 z"
     id="path10" />
  <path
     stroke="#ffffff"
     stroke-width="8"
     d="m 82,32.149545 7,2 -5.38,-27.7300004 a 27,27 0 0 0 -17.28,0 L 61,34.199545 l 7,-2 a 25,25 0 0 1 14,-0.05 z"
     id="path11" />
  <path
     stroke="#ffffff"
     stroke-width="8"
     d="M 92.32,48.099545 H 57.68 c -2.42,0 -4.39,2.36 -4.39,5.26 0,2.9 2,5.27 4.39,5.27 h 34.64 c 2.42,0 4.39,-2.36 4.39,-5.27 0,-2.91 -1.97,-5.26 -4.39,-5.26 z"
     id="path12" />
  <path
     fill="#ffc0cb"
     d="m 39.12,20.159545 -9.81,23.39 23.79,-7.02 5.08,-26.17 z"
     id="path13" />
  <path
     fill="#ffc0cb"
     d="m 91.82,10.359545 5.08,26.17 23.79,7.02 -9.81,-23.39 z"
     id="path14" />
  <path
     fill="#ffc0cb"
     d="m 5,46.889545 v 0.11 c 0,1.82 2.09,3.1 4.09,2.51 l 11.33,-3.34 8.77,-20.91 -15,7.72 c -5.7,2.93 -9.19,8.21 -9.19,13.91 z"
     id="path15" />
  <path
     fill="#ffc0cb"
     d="m 135.82,32.979545 -15,-7.72 8.77,20.91 11.33,3.34 c 2,0.59 4.09,-0.69 4.09,-2.51 v -0.11 c -0.01,-5.7 -3.5,-10.98 -9.19,-13.91 z"
     id="path16" />
  <path
     fill="#ffc0cb"
     d="m 82,32.149545 7,2 -5.38,-27.7300004 a 27,27 0 0 0 -17.28,0 L 61,34.199545 l 7,-2 a 25,25 0 0 1 14,-0.05 z"
     id="path17" />
  <path
     fill="#ffc0cb"
     d="M 92.32,48.099545 H 57.68 c -2.42,0 -4.39,2.36 -4.39,5.26 0,2.9 2,5.27 4.39,5.27 h 34.64 c 2.42,0 4.39,-2.36 4.39,-5.27 0,-2.91 -1.97,-5.26 -4.39,-5.26 z"
     id="path18" />
</svg>
