<?xml version="1.0" encoding="UTF-8" standalone="no"?>
<svg
   id="icon"
   viewBox="0 0 140.00293 63.522617"
   version="1.1"
   xmlns="http://www.w3.org/2000/svg"
   xmlns:svg="http://www.w3.org/2000/svg">
  <defs
     id="defs8" />
  <title
     id="title1">hand_glider</title>
  <path
     stroke="#000000"
     stroke-width="10"
     d="m 126.48146,36.532618 -45.309996,-28.32 a 21,21 0 0 0 -22.34,0 l -45.31,28.32 a 18.49,18.49 0 0 0 -8.5199999,15.71 v 0.11 a 2.89,2.89 0 0 0 3.8,2.84 l 54.6599999,-19.6 a 19.33,19.33 0 0 1 13.08,0 l 54.659996,19.6 a 2.89,2.89 0 0 0 3.8,-2.84 v -0.11 a 18.49,18.49 0 0 0 -8.52,-15.71 z"
     id="path1" />
  <path
     d="m 86.081464,48.752618 h -32.16 c -2.25,0 -4.08,2.18 -4.08,4.88 0,2.7 1.83,4.89 4.08,4.89 h 32.16 c 2.25,0 4.08,-2.19 4.08,-4.89 0,-2.7 -1.83,-4.88 -4.08,-4.88 z"
     id="path2" />
  <path
     stroke="#000000"
     stroke-width="10"
     d="m 86.081464,48.752618 h -32.16 c -2.25,0 -4.08,2.18 -4.08,4.88 0,2.7 1.83,4.89 4.08,4.89 h 32.16 c 2.25,0 4.08,-2.19 4.08,-4.89 0,-2.7 -1.83,-4.88 -4.08,-4.88 z"
     id="path3" />
  <path
     stroke="#ffffff"
     stroke-width="8"
     d="m 126.48146,36.532618 -45.309996,-28.32 a 21,21 0 0 0 -22.34,0 l -45.31,28.32 a 18.49,18.49 0 0 0 -8.5199999,15.71 v 0.11 a 2.89,2.89 0 0 0 3.8,2.84 l 54.6599999,-19.6 a 19.33,19.33 0 0 1 13.08,0 l 54.659996,19.6 a 2.89,2.89 0 0 0 3.8,-2.84 v -0.11 a 18.49,18.49 0 0 0 -8.52,-15.71 z"
     id="path4" />
  <path
     d="m 86.081464,48.752618 h -32.16 c -2.25,0 -4.08,2.18 -4.08,4.88 0,2.7 1.83,4.89 4.08,4.89 h 32.16 c 2.25,0 4.08,-2.19 4.08,-4.89 0,-2.7 -1.83,-4.88 -4.08,-4.88 z"
     id="path5" />
  <path
     stroke="#ffffff"
     stroke-width="8"
     d="m 86.081464,48.752618 h -32.16 c -2.25,0 -4.08,2.18 -4.08,4.88 0,2.7 1.83,4.89 4.08,4.89 h 32.16 c 2.25,0 4.08,-2.19 4.08,-4.89 0,-2.7 -1.83,-4.88 -4.08,-4.88 z"
     id="path6" />
  <path
     fill="#000040"
     d="m 126.48146,36.532618 -45.309996,-28.32 a 21,21 0 0 0 -22.34,0 l -45.31,28.32 a 18.49,18.49 0 0 0 -8.5199999,15.71 v 0.11 a 2.89,2.89 0 0 0 3.8,2.84 l 54.6599999,-19.6 a 19.33,19.33 0 0 1 13.08,0 l 54.659996,19.6 a 2.89,2.89 0 0 0 3.8,-2.84 v -0.11 a 18.49,18.49 0 0 0 -8.52,-15.71 z"
     id="path7" />
  <path
     fill="#000040"
     d="m 86.081464,48.752618 h -32.16 c -2.25,0 -4.08,2.18 -4.08,4.88 0,2.7 1.83,4.89 4.08,4.89 h 32.16 c 2.25,0 4.08,-2.19 4.08,-4.89 0,-2.7 -1.83,-4.88 -4.08,-4.88 z"
     id="path8" />
</svg>
