<?xml version="1.0" encoding="UTF-8" standalone="no"?>
<svg
   viewBox="0 0 83.805931 122.88081"
   version="1.1"
   id="svg3"
   width="83.805931"
   height="122.88081"
   xmlns="http://www.w3.org/2000/svg"
   xmlns:svg="http://www.w3.org/2000/svg">
  <defs
     id="defs3" />
  <title
     id="title1">aircrafts-icons</title>
  <path
     stroke="#000000"
     stroke-width="10"
     d="m 34.096092,54.615864 c -0.51,0.44 -0.84,0.68 -1.11,1 q -10.08,10.61 -20.08,21.24 c -1.29,1.37 -2.62,2.71 -4.0000005,4 a 2.43,2.43 0 0 1 -3.43,0.2 2.74,2.74 0 0 1 0.43,-3.59 q 7.7600005,-7.34 15.5300005,-14.63 4.42,-4.17 8.79,-8.38 a 1.7,1.7 0 0 0 0.52,-1.07 c -0.06,-3.66 -0.25,-7.32 -0.22,-11 a 3.38,3.38 0 0 1 1.23,-2.21 c 1.37,-1.13 1.58,-2.22 0.31,-3.43 -3.49,-3.31 -7,-6.58 -10.49,-9.89 q -7.74,-7.36 -15.4900005,-14.81 c -1.25,-1.2 -1.44,-2.6399996 -0.53,-3.5899996 0.91,-0.95 2.47,-0.88 3.73,0.43 2.2600005,2.3399996 4.4600005,4.7399996 6.6900005,7.0999996 l 15.73,16.62 a 13.38,13.38 0 0 0 1.14,0.89 c 0.17,-2.5 0.33,-4.68 0.47,-6.86 a 50.84,50.84 0 0 1 3.53,-16.7799996 13.74,13.74 0 0 1 2.06,-3.32 c 1.8,-2.18 4.48,-2 6.26,0.28 a 21.52,21.52 0 0 1 3.58,8.1799996 83.57,83.57 0 0 1 2.1,16.52 c 0,0.54 0.1,1.07 0.18,2 0.59,-0.53 0.94,-0.8 1.24,-1.11 l 19.47,-20.49 c 0.84,-0.89 1.63,-1.82 2.47,-2.7099996 a 5.17,5.17 0 0 1 1.08,-0.9 c 1,-0.63 2.09,-0.93 3,0.19 a 2.41,2.41 0 0 1 -0.24,3.2199996 c -1.58,1.62 -3.23,3.16 -4.87,4.72 q -10.69,10.17 -21.41,20.33 c -1.32,1.26 -1.14,2.32 0.22,3.44 a 3.64,3.64 0 0 1 1.31,2.29 64.19,64.19 0 0 1 -0.06,9.61 3.52,3.52 0 0 0 1.41,3.38 q 11.49,10.77 22.91,21.62 a 4.91,4.91 0 0 1 0.57,0.63 c 0.85,1.13 0.91,2.65 0.14,3.36 a 2.56,2.56 0 0 1 -3.55,-0.38 c -6.2,-6.51 -12.37,-13.06 -18.56,-19.58 -1.82,-1.92 -3.65,-3.82 -5.51,-5.69 -1,-1 -1.5,-0.86 -1.86,0.58 a 23.83,23.83 0 0 1 -3.31,8.19 4.32,4.32 0 0 0 -0.47,2.18 c -0.44,8.18 -0.83,16.37 -1.3,24.56 -0.08,1.37 0.42,1.74 1.7,1.66 1.28,-0.08 2.73,0 4.1,0 a 1.25,1.25 0 0 1 1.4,1.38 c 0,0.52 0,1 0,1.55 0,1 -0.51,1.44 -1.47,1.45 -1.6,0 -3.21,0 -4.81,0 -1,0 -1.34,0.42 -1.35,1.36 0,1.999996 -0.17,3.999996 -0.16,5.939996 0,0.36 0.44,0.73 0.67,1.09 0.27,-0.37 0.75,-0.73 0.77,-1.12 0.09,-1.69 0,-3.4 0.1,-5.089996 0,-0.47 0.55,-0.9 0.85,-1.35 0.32,0.43 0.93,0.86 0.93,1.29 q 0.12,7.349996 0,14.709996 c 0,0.39 -0.58,0.77 -0.89,1.16 -0.32,-0.38 -0.88,-0.73 -0.91,-1.13 -0.11,-1.64 -0.09,-3.3 -0.06,-5 0,-1 -0.28,-1.44 -1.37,-1.43 -2.29,0 -2.31,0 -2.43,-2.33 -0.12,-2.33 -0.23,-4.43 -0.26,-6.639996 0,-1.08 -0.42,-1.55 -1.51,-1.52 -1.51,0 -3,0 -4.53,0 -1.53,0 -1.57,-0.26 -1.57,-2.39 0,-1.21 0.24,-2 1.71,-2 1.47,0 2.83,0 4.25,0 1,0 1.34,-0.34 1.28,-1.34 -0.34,-5.55 -0.64,-11.11 -0.94,-16.66 -0.13,-2.4 -0.28,-4.8 -0.34,-7.2 a 7.91,7.91 0 0 0 -1.17,-3.49 78.07,78.07 0 0 1 -3.11,-7.82 c -0.16,-0.36 -0.28,-0.78 -0.49,-1.42 z"
     id="path1" />
  <path
     stroke="#ffffff"
     stroke-width="8"
     d="m 34.096092,54.615864 c -0.51,0.44 -0.84,0.68 -1.11,1 q -10.08,10.61 -20.08,21.24 c -1.29,1.37 -2.62,2.71 -4.0000005,4 a 2.43,2.43 0 0 1 -3.43,0.2 2.74,2.74 0 0 1 0.43,-3.59 q 7.7600005,-7.34 15.5300005,-14.63 4.42,-4.17 8.79,-8.38 a 1.7,1.7 0 0 0 0.52,-1.07 c -0.06,-3.66 -0.25,-7.32 -0.22,-11 a 3.38,3.38 0 0 1 1.23,-2.21 c 1.37,-1.13 1.58,-2.22 0.31,-3.43 -3.49,-3.31 -7,-6.58 -10.49,-9.89 q -7.74,-7.36 -15.4900005,-14.81 c -1.25,-1.2 -1.44,-2.6399996 -0.53,-3.5899996 0.91,-0.95 2.47,-0.88 3.73,0.43 2.2600005,2.3399996 4.4600005,4.7399996 6.6900005,7.0999996 l 15.73,16.62 a 13.38,13.38 0 0 0 1.14,0.89 c 0.17,-2.5 0.33,-4.68 0.47,-6.86 a 50.84,50.84 0 0 1 3.53,-16.7799996 13.74,13.74 0 0 1 2.06,-3.32 c 1.8,-2.18 4.48,-2 6.26,0.28 a 21.52,21.52 0 0 1 3.58,8.1799996 83.57,83.57 0 0 1 2.1,16.52 c 0,0.54 0.1,1.07 0.18,2 0.59,-0.53 0.94,-0.8 1.24,-1.11 l 19.47,-20.49 c 0.84,-0.89 1.63,-1.82 2.47,-2.7099996 a 5.17,5.17 0 0 1 1.08,-0.9 c 1,-0.63 2.09,-0.93 3,0.19 a 2.41,2.41 0 0 1 -0.24,3.2199996 c -1.58,1.62 -3.23,3.16 -4.87,4.72 q -10.69,10.17 -21.41,20.33 c -1.32,1.26 -1.14,2.32 0.22,3.44 a 3.64,3.64 0 0 1 1.31,2.29 64.19,64.19 0 0 1 -0.06,9.61 3.52,3.52 0 0 0 1.41,3.38 q 11.49,10.77 22.91,21.62 a 4.91,4.91 0 0 1 0.57,0.63 c 0.85,1.13 0.91,2.65 0.14,3.36 a 2.56,2.56 0 0 1 -3.55,-0.38 c -6.2,-6.51 -12.37,-13.06 -18.56,-19.58 -1.82,-1.92 -3.65,-3.82 -5.51,-5.69 -1,-1 -1.5,-0.86 -1.86,0.58 a 23.83,23.83 0 0 1 -3.31,8.19 4.32,4.32 0 0 0 -0.47,2.18 c -0.44,8.18 -0.83,16.37 -1.3,24.56 -0.08,1.37 0.42,1.74 1.7,1.66 1.28,-0.08 2.73,0 4.1,0 a 1.25,1.25 0 0 1 1.4,1.38 c 0,0.52 0,1 0,1.55 0,1 -0.51,1.44 -1.47,1.45 -1.6,0 -3.21,0 -4.81,0 -1,0 -1.34,0.42 -1.35,1.36 0,1.999996 -0.17,3.999996 -0.16,5.939996 0,0.36 0.44,0.73 0.67,1.09 0.27,-0.37 0.75,-0.73 0.77,-1.12 0.09,-1.69 0,-3.4 0.1,-5.089996 0,-0.47 0.55,-0.9 0.85,-1.35 0.32,0.43 0.93,0.86 0.93,1.29 q 0.12,7.349996 0,14.709996 c 0,0.39 -0.58,0.77 -0.89,1.16 -0.32,-0.38 -0.88,-0.73 -0.91,-1.13 -0.11,-1.64 -0.09,-3.3 -0.06,-5 0,-1 -0.28,-1.44 -1.37,-1.43 -2.29,0 -2.31,0 -2.43,-2.33 -0.12,-2.33 -0.23,-4.43 -0.26,-6.639996 0,-1.08 -0.42,-1.55 -1.51,-1.52 -1.51,0 -3,0 -4.53,0 -1.53,0 -1.57,-0.26 -1.57,-2.39 0,-1.21 0.24,-2 1.71,-2 1.47,0 2.83,0 4.25,0 1,0 1.34,-0.34 1.28,-1.34 -0.34,-5.55 -0.64,-11.11 -0.94,-16.66 -0.13,-2.4 -0.28,-4.8 -0.34,-7.2 a 7.91,7.91 0 0 0 -1.17,-3.49 78.07,78.07 0 0 1 -3.11,-7.82 c -0.16,-0.36 -0.28,-0.78 -0.49,-1.42 z"
     id="path2" />
  <path
     fill="#ffc0cb"
     d="m 34.096092,54.615864 c -0.51,0.44 -0.84,0.68 -1.11,1 q -10.08,10.61 -20.08,21.24 c -1.29,1.37 -2.62,2.71 -4.0000005,4 a 2.43,2.43 0 0 1 -3.43,0.2 2.74,2.74 0 0 1 0.43,-3.59 q 7.7600005,-7.34 15.5300005,-14.63 4.42,-4.17 8.79,-8.38 a 1.7,1.7 0 0 0 0.52,-1.07 c -0.06,-3.66 -0.25,-7.32 -0.22,-11 a 3.38,3.38 0 0 1 1.23,-2.21 c 1.37,-1.13 1.58,-2.22 0.31,-3.43 -3.49,-3.31 -7,-6.58 -10.49,-9.89 q -7.74,-7.36 -15.4900005,-14.81 c -1.25,-1.2 -1.44,-2.6399996 -0.53,-3.5899996 0.91,-0.95 2.47,-0.88 3.73,0.43 2.2600005,2.3399996 4.4600005,4.7399996 6.6900005,7.0999996 l 15.73,16.62 a 13.38,13.38 0 0 0 1.14,0.89 c 0.17,-2.5 0.33,-4.68 0.47,-6.86 a 50.84,50.84 0 0 1 3.53,-16.7799996 13.74,13.74 0 0 1 2.06,-3.32 c 1.8,-2.18 4.48,-2 6.26,0.28 a 21.52,21.52 0 0 1 3.58,8.1799996 83.57,83.57 0 0 1 2.1,16.52 c 0,0.54 0.1,1.07 0.18,2 0.59,-0.53 0.94,-0.8 1.24,-1.11 l 19.47,-20.49 c 0.84,-0.89 1.63,-1.82 2.47,-2.7099996 a 5.17,5.17 0 0 1 1.08,-0.9 c 1,-0.63 2.09,-0.93 3,0.19 a 2.41,2.41 0 0 1 -0.24,3.2199996 c -1.58,1.62 -3.23,3.16 -4.87,4.72 q -10.69,10.17 -21.41,20.33 c -1.32,1.26 -1.14,2.32 0.22,3.44 a 3.64,3.64 0 0 1 1.31,2.29 64.19,64.19 0 0 1 -0.06,9.61 3.52,3.52 0 0 0 1.41,3.38 q 11.49,10.77 22.91,21.62 a 4.91,4.91 0 0 1 0.57,0.63 c 0.85,1.13 0.91,2.65 0.14,3.36 a 2.56,2.56 0 0 1 -3.55,-0.38 c -6.2,-6.51 -12.37,-13.06 -18.56,-19.58 -1.82,-1.92 -3.65,-3.82 -5.51,-5.69 -1,-1 -1.5,-0.86 -1.86,0.58 a 23.83,23.83 0 0 1 -3.31,8.19 4.32,4.32 0 0 0 -0.47,2.18 c -0.44,8.18 -0.83,16.37 -1.3,24.56 -0.08,1.37 0.42,1.74 1.7,1.66 1.28,-0.08 2.73,0 4.1,0 a 1.25,1.25 0 0 1 1.4,1.38 c 0,0.52 0,1 0,1.55 0,1 -0.51,1.44 -1.47,1.45 -1.6,0 -3.21,0 -4.81,0 -1,0 -1.34,0.42 -1.35,1.36 0,1.999996 -0.17,3.999996 -0.16,5.939996 0,0.36 0.44,0.73 0.67,1.09 0.27,-0.37 0.75,-0.73 0.77,-1.12 0.09,-1.69 0,-3.4 0.1,-5.089996 0,-0.47 0.55,-0.9 0.85,-1.35 0.32,0.43 0.93,0.86 0.93,1.29 q 0.12,7.349996 0,14.709996 c 0,0.39 -0.58,0.77 -0.89,1.16 -0.32,-0.38 -0.88,-0.73 -0.91,-1.13 -0.11,-1.64 -0.09,-3.3 -0.06,-5 0,-1 -0.28,-1.44 -1.37,-1.43 -2.29,0 -2.31,0 -2.43,-2.33 -0.12,-2.33 -0.23,-4.43 -0.26,-6.639996 0,-1.08 -0.42,-1.55 -1.51,-1.52 -1.51,0 -3,0 -4.53,0 -1.53,0 -1.57,-0.26 -1.57,-2.39 0,-1.21 0.24,-2 1.71,-2 1.47,0 2.83,0 4.25,0 1,0 1.34,-0.34 1.28,-1.34 -0.34,-5.55 -0.64,-11.11 -0.94,-16.66 -0.13,-2.4 -0.28,-4.8 -0.34,-7.2 a 7.91,7.91 0 0 0 -1.17,-3.49 78.07,78.07 0 0 1 -3.11,-7.82 c -0.16,-0.36 -0.28,-0.78 -0.49,-1.42 z"
     id="path3" />
</svg>
