<?xml version="1.0" encoding="UTF-8" standalone="no"?>
<!-- Generator: Adobe Illustrator 28.0.0, SVG Export Plug-In . SVG Version: 6.00 Build 0)  -->

<svg
   version="1.1"
   id="icon"
   x="0px"
   y="0px"
   viewBox="0 0 126.54805 129.29295"
   xml:space="preserve"
   width="130"
   height="130"
   xmlns="http://www.w3.org/2000/svg"
   xmlns:svg="http://www.w3.org/2000/svg"><defs
   id="defs3" />
<path
   stroke="#000000"
   stroke-width="10"
   d="m 66.448047,115.69296 c -0.5,1.8 -0.9,3.6 -1.4,5.3 -0.2,0.7 -0.4,1.4 -0.6,2.1 -0.2,0.7 -0.6,1.2 -1.4,1.2 -0.7,0 -1,-0.6 -1.2,-1.2 -0.7,-2.3 -1.4,-4.7 -2.1,-7 0,-0.1 -0.1,-0.2 -0.1,-0.4 -3.9,1.3 -7.9,2.5 -11.8,3.8 -2.8,0.9 -5.6,1.8 -8.4,2.7 -0.8,0.3 -1.6,-0.3 -1.6,-1.2 0,-1.2 0,-2.4 0,-3.5 0,-0.7 0.5,-1.1 0.9,-1.5 4.7,-3.6 9.5,-7.2 14.2,-10.8 1.1,-0.8 2.2,-1.7 3.3,-2.5 0.2,-0.2 0.3,-0.6 0.3,-0.8 -0.9,-3.100004 -1.5,-6.200004 -1.8,-9.300004 -0.2,-1.9 -0.1,-3.9 -0.1,-5.9 0,-5.5 0,-10.9 0,-16.4 0,-0.3 0,-0.5 0,-1 -1.7,0.6 -3.2,1.1 -4.8,1.6 -8.9,3.2 -17.7,6.3 -26.6,9.5 -5.3,1.9 -10.7,3.9 -16.0000004,5.8 -0.3,0.1 -0.7,0.2 -1,0.2 -0.7,0 -1.2,-0.4 -1.2,-1.1 0,-1.7 -0.1,-3.3 0,-5 0,-0.5 0.5,-1 0.9,-1.3 1.3,-1.1 2.7,-2 4.1000004,-3.1 2.8,-2 5.5,-4.1 8.3,-6.1 0.2,-0.1 0.3,-0.3 0.6,-0.5 -1.8,-2.5 -1,-5.5 -1.1,-8.3 -0.1,-1.5 0.9,-2.3 2.4,-2.3 0.8,0 1.5,0 2.3,0 1.3,0 2,0.6 2.1,2 0.1,1.2 0,2.4 0,3.6 0,0.3 0,0.6 0.1,1.1 4.1,-3 8,-5.8 12,-8.7 -0.1,-0.2 -0.1,-0.4 -0.2,-0.6 -0.6,-1.3 -0.9,-2.6 -0.8,-4.1 0.1,-1.1 0,-2.3 0,-3.4 0,-1.4 0.6,-2.2 2,-2.3 1.1,-0.1 2.2,0 3.3,0 0.9,0.1 1.3,0.6 1.4,1.4 0.1,1.5 0,3.1 0,4.8 0.5,-0.3 0.8,-0.5 1.1,-0.7 3.4,-2.4 6.7,-4.9 10.1,-7.3 0.9,-0.6 1.3,-1.3 1.3,-2.4 -0.1,-6 -0.1,-12 0,-18 0.1,-4.8 0.8,-9.5 3,-13.8 0.7,-1.2999997 1.5,-2.4999997 2.5,-3.5999997 0.5,-0.6 1.4,-1 2.1,-1.4 0.4,-0.2 1,-0.2 1.4,0 1.2,0.4 2.2,1.2 3,2.2 2.3,2.8999997 3.4,6.3999997 4.1,9.9999997 0.8,4.1 0.7,8.3 0.7,12.4 0,4 0.1,7.9 0,11.9 -0.1,1.5 0.5,2.3 1.6,3.1 3.5,2.5 7,5 10.6,7.7 0.1,-0.7 0.1,-1.2 0.1,-1.7 0,-0.8 0,-1.7 0,-2.5 0,-1.5 0.6,-2.1 2,-2.1 1,0 1.9,0 2.9,0 0.8,0 1.5,0.7 1.6,1.6 0.1,1.4 0.1,2.9 0.2,4.3 0.1,1.6 -0.2,3.1 -1,4.6 4,2.9 8,5.8 12.100003,8.8 0,-0.6 0,-1.1 0,-1.5 0,-1.1 0,-2.2 0.1,-3.3 0.1,-1.1 0.6,-1.5 1.7,-1.6 1,-0.1 2,-0.1 3,0 1.2,0.1 1.8,0.7 1.8,1.9 0,1 0,1.9 0,2.9 0,1.9 0.2,3.8 -1,5.5 1.8,1.4 3.5,2.7 5.3,3.9 2.7,2 5.4,4 8.1,5.9 0.5,0.3 0.7,0.7 0.7,1.3 0,1.3 0,2.7 0,4 0,1.7 -0.7,2.2 -2.3,1.6 -3.4,-1.2 -6.8,-2.4 -10.1,-3.7 -9.700003,-3.5 -19.400003,-6.9 -29.100003,-10.4 -2.6,-0.9 -5.2,-1.8 -7.8,-2.7 -0.1,0 -0.2,-0.1 -0.4,-0.1 0,0.4 0,0.7 0,1.1 0,7.2 0,14.4 -0.1,21.7 0,3.3 -0.9,6.5 -1.9,9.600004 -0.2,0.5 0,0.8 0.3,1 5.5,4.1 10.9,8.3 16.4,12.4 2,1.5 2,1.5 2,3.9 0,0.7 0,1.3 0,2 0,0.9 -0.7,1.3 -1.5,1 -7.1,-2 -13.8,-4.1 -20.6,-6.3 z"
   id="path1" />
<path
   stroke="#ffffff"
   stroke-width="8"
   d="m 66.448047,115.69296 c -0.5,1.8 -0.9,3.6 -1.4,5.3 -0.2,0.7 -0.4,1.4 -0.6,2.1 -0.2,0.7 -0.6,1.2 -1.4,1.2 -0.7,0 -1,-0.6 -1.2,-1.2 -0.7,-2.3 -1.4,-4.7 -2.1,-7 0,-0.1 -0.1,-0.2 -0.1,-0.4 -3.9,1.3 -7.9,2.5 -11.8,3.8 -2.8,0.9 -5.6,1.8 -8.4,2.7 -0.8,0.3 -1.6,-0.3 -1.6,-1.2 0,-1.2 0,-2.4 0,-3.5 0,-0.7 0.5,-1.1 0.9,-1.5 4.7,-3.6 9.5,-7.2 14.2,-10.8 1.1,-0.8 2.2,-1.7 3.3,-2.5 0.2,-0.2 0.3,-0.6 0.3,-0.8 -0.9,-3.100004 -1.5,-6.200004 -1.8,-9.300004 -0.2,-1.9 -0.1,-3.9 -0.1,-5.9 0,-5.5 0,-10.9 0,-16.4 0,-0.3 0,-0.5 0,-1 -1.7,0.6 -3.2,1.1 -4.8,1.6 -8.9,3.2 -17.7,6.3 -26.6,9.5 -5.3,1.9 -10.7,3.9 -16.0000004,5.8 -0.3,0.1 -0.7,0.2 -1,0.2 -0.7,0 -1.2,-0.4 -1.2,-1.1 0,-1.7 -0.1,-3.3 0,-5 0,-0.5 0.5,-1 0.9,-1.3 1.3,-1.1 2.7,-2 4.1000004,-3.1 2.8,-2 5.5,-4.1 8.3,-6.1 0.2,-0.1 0.3,-0.3 0.6,-0.5 -1.8,-2.5 -1,-5.5 -1.1,-8.3 -0.1,-1.5 0.9,-2.3 2.4,-2.3 0.8,0 1.5,0 2.3,0 1.3,0 2,0.6 2.1,2 0.1,1.2 0,2.4 0,3.6 0,0.3 0,0.6 0.1,1.1 4.1,-3 8,-5.8 12,-8.7 -0.1,-0.2 -0.1,-0.4 -0.2,-0.6 -0.6,-1.3 -0.9,-2.6 -0.8,-4.1 0.1,-1.1 0,-2.3 0,-3.4 0,-1.4 0.6,-2.2 2,-2.3 1.1,-0.1 2.2,0 3.3,0 0.9,0.1 1.3,0.6 1.4,1.4 0.1,1.5 0,3.1 0,4.8 0.5,-0.3 0.8,-0.5 1.1,-0.7 3.4,-2.4 6.7,-4.9 10.1,-7.3 0.9,-0.6 1.3,-1.3 1.3,-2.4 -0.1,-6 -0.1,-12 0,-18 0.1,-4.8 0.8,-9.5 3,-13.8 0.7,-1.2999997 1.5,-2.4999997 2.5,-3.5999997 0.5,-0.6 1.4,-1 2.1,-1.4 0.4,-0.2 1,-0.2 1.4,0 1.2,0.4 2.2,1.2 3,2.2 2.3,2.8999997 3.4,6.3999997 4.1,9.9999997 0.8,4.1 0.7,8.3 0.7,12.4 0,4 0.1,7.9 0,11.9 -0.1,1.5 0.5,2.3 1.6,3.1 3.5,2.5 7,5 10.6,7.7 0.1,-0.7 0.1,-1.2 0.1,-1.7 0,-0.8 0,-1.7 0,-2.5 0,-1.5 0.6,-2.1 2,-2.1 1,0 1.9,0 2.9,0 0.8,0 1.5,0.7 1.6,1.6 0.1,1.4 0.1,2.9 0.2,4.3 0.1,1.6 -0.2,3.1 -1,4.6 4,2.9 8,5.8 12.100003,8.8 0,-0.6 0,-1.1 0,-1.5 0,-1.1 0,-2.2 0.1,-3.3 0.1,-1.1 0.6,-1.5 1.7,-1.6 1,-0.1 2,-0.1 3,0 1.2,0.1 1.8,0.7 1.8,1.9 0,1 0,1.9 0,2.9 0,1.9 0.2,3.8 -1,5.5 1.8,1.4 3.5,2.7 5.3,3.9 2.7,2 5.4,4 8.1,5.9 0.5,0.3 0.7,0.7 0.7,1.3 0,1.3 0,2.7 0,4 0,1.7 -0.7,2.2 -2.3,1.6 -3.4,-1.2 -6.8,-2.4 -10.1,-3.7 -9.700003,-3.5 -19.400003,-6.9 -29.100003,-10.4 -2.6,-0.9 -5.2,-1.8 -7.8,-2.7 -0.1,0 -0.2,-0.1 -0.4,-0.1 0,0.4 0,0.7 0,1.1 0,7.2 0,14.4 -0.1,21.7 0,3.3 -0.9,6.5 -1.9,9.600004 -0.2,0.5 0,0.8 0.3,1 5.5,4.1 10.9,8.3 16.4,12.4 2,1.5 2,1.5 2,3.9 0,0.7 0,1.3 0,2 0,0.9 -0.7,1.3 -1.5,1 -7.1,-2 -13.8,-4.1 -20.6,-6.3 z"
   id="path2" />
<path
   fill="#ffc0cb"
   d="m 66.448047,115.69296 c -0.5,1.8 -0.9,3.6 -1.4,5.3 -0.2,0.7 -0.4,1.4 -0.6,2.1 -0.2,0.7 -0.6,1.2 -1.4,1.2 -0.7,0 -1,-0.6 -1.2,-1.2 -0.7,-2.3 -1.4,-4.7 -2.1,-7 0,-0.1 -0.1,-0.2 -0.1,-0.4 -3.9,1.3 -7.9,2.5 -11.8,3.8 -2.8,0.9 -5.6,1.8 -8.4,2.7 -0.8,0.3 -1.6,-0.3 -1.6,-1.2 0,-1.2 0,-2.4 0,-3.5 0,-0.7 0.5,-1.1 0.9,-1.5 4.7,-3.6 9.5,-7.2 14.2,-10.8 1.1,-0.8 2.2,-1.7 3.3,-2.5 0.2,-0.2 0.3,-0.6 0.3,-0.8 -0.9,-3.100004 -1.5,-6.200004 -1.8,-9.300004 -0.2,-1.9 -0.1,-3.9 -0.1,-5.9 0,-5.5 0,-10.9 0,-16.4 0,-0.3 0,-0.5 0,-1 -1.7,0.6 -3.2,1.1 -4.8,1.6 -8.9,3.2 -17.7,6.3 -26.6,9.5 -5.3,1.9 -10.7,3.9 -16.0000004,5.8 -0.3,0.1 -0.7,0.2 -1,0.2 -0.7,0 -1.2,-0.4 -1.2,-1.1 0,-1.7 -0.1,-3.3 0,-5 0,-0.5 0.5,-1 0.9,-1.3 1.3,-1.1 2.7,-2 4.1000004,-3.1 2.8,-2 5.5,-4.1 8.3,-6.1 0.2,-0.1 0.3,-0.3 0.6,-0.5 -1.8,-2.5 -1,-5.5 -1.1,-8.3 -0.1,-1.5 0.9,-2.3 2.4,-2.3 0.8,0 1.5,0 2.3,0 1.3,0 2,0.6 2.1,2 0.1,1.2 0,2.4 0,3.6 0,0.3 0,0.6 0.1,1.1 4.1,-3 8,-5.8 12,-8.7 -0.1,-0.2 -0.1,-0.4 -0.2,-0.6 -0.6,-1.3 -0.9,-2.6 -0.8,-4.1 0.1,-1.1 0,-2.3 0,-3.4 0,-1.4 0.6,-2.2 2,-2.3 1.1,-0.1 2.2,0 3.3,0 0.9,0.1 1.3,0.6 1.4,1.4 0.1,1.5 0,3.1 0,4.8 0.5,-0.3 0.8,-0.5 1.1,-0.7 3.4,-2.4 6.7,-4.9 10.1,-7.3 0.9,-0.6 1.3,-1.3 1.3,-2.4 -0.1,-6 -0.1,-12 0,-18 0.1,-4.8 0.8,-9.5 3,-13.8 0.7,-1.2999997 1.5,-2.4999997 2.5,-3.5999997 0.5,-0.6 1.4,-1 2.1,-1.4 0.4,-0.2 1,-0.2 1.4,0 1.2,0.4 2.2,1.2 3,2.2 2.3,2.8999997 3.4,6.3999997 4.1,9.9999997 0.8,4.1 0.7,8.3 0.7,12.4 0,4 0.1,7.9 0,11.9 -0.1,1.5 0.5,2.3 1.6,3.1 3.5,2.5 7,5 10.6,7.7 0.1,-0.7 0.1,-1.2 0.1,-1.7 0,-0.8 0,-1.7 0,-2.5 0,-1.5 0.6,-2.1 2,-2.1 1,0 1.9,0 2.9,0 0.8,0 1.5,0.7 1.6,1.6 0.1,1.4 0.1,2.9 0.2,4.3 0.1,1.6 -0.2,3.1 -1,4.6 4,2.9 8,5.8 12.100003,8.8 0,-0.6 0,-1.1 0,-1.5 0,-1.1 0,-2.2 0.1,-3.3 0.1,-1.1 0.6,-1.5 1.7,-1.6 1,-0.1 2,-0.1 3,0 1.2,0.1 1.8,0.7 1.8,1.9 0,1 0,1.9 0,2.9 0,1.9 0.2,3.8 -1,5.5 1.8,1.4 3.5,2.7 5.3,3.9 2.7,2 5.4,4 8.1,5.9 0.5,0.3 0.7,0.7 0.7,1.3 0,1.3 0,2.7 0,4 0,1.7 -0.7,2.2 -2.3,1.6 -3.4,-1.2 -6.8,-2.4 -10.1,-3.7 -9.700003,-3.5 -19.400003,-6.9 -29.100003,-10.4 -2.6,-0.9 -5.2,-1.8 -7.8,-2.7 -0.1,0 -0.2,-0.1 -0.4,-0.1 0,0.4 0,0.7 0,1.1 0,7.2 0,14.4 -0.1,21.7 0,3.3 -0.9,6.5 -1.9,9.600004 -0.2,0.5 0,0.8 0.3,1 5.5,4.1 10.9,8.3 16.4,12.4 2,1.5 2,1.5 2,3.9 0,0.7 0,1.3 0,2 0,0.9 -0.7,1.3 -1.5,1 -7.1,-2 -13.8,-4.1 -20.6,-6.3 z"
   id="path3" />
</svg>
