<svg xmlns="http://www.w3.org/2000/svg" viewBox="0 0 150 150">
  <title>aircrafts-icons</title>
  <path stroke="black" stroke-width="10" d="M67.19,69.62c-.51.44-.84.68-1.11,1Q56,81.23,46,91.86c-1.29,1.37-2.62,2.71-4,4a2.43,2.43,0,0,1-3.43.2A2.74,2.74,0,0,1,39,92.47q7.76-7.34,15.53-14.63,4.42-4.17,8.79-8.38a1.7,1.7,0,0,0,.52-1.07c-.06-3.66-.25-7.32-.22-11a3.38,3.38,0,0,1,1.23-2.21c1.37-1.13,1.58-2.22.31-3.43-3.49-3.31-7-6.58-10.49-9.89Q46.93,34.5,39.18,27.05c-1.25-1.2-1.44-2.64-.53-3.59s2.47-.88,3.73.43c2.26,2.34,4.46,4.74,6.69,7.1L64.8,47.61a13.38,13.38,0,0,0,1.14.89c.17-2.5.33-4.68.47-6.86a50.84,50.84,0,0,1,3.53-16.78A13.74,13.74,0,0,1,72,21.54c1.8-2.18,4.48-2,6.26.28A21.52,21.52,0,0,1,81.84,30a83.57,83.57,0,0,1,2.1,16.52c0,.54.1,1.07.18,2,.59-.53.94-.8,1.24-1.11l19.47-20.49c.84-.89,1.63-1.82,2.47-2.71a5.17,5.17,0,0,1,1.08-.9c1-.63,2.09-.93,3,.19a2.41,2.41,0,0,1-.24,3.22c-1.58,1.62-3.23,3.16-4.87,4.72Q95.58,41.61,84.86,51.77c-1.32,1.26-1.14,2.32.22,3.44a3.64,3.64,0,0,1,1.31,2.29,64.19,64.19,0,0,1-.06,9.61,3.52,3.52,0,0,0,1.41,3.38q11.49,10.77,22.91,21.62a4.91,4.91,0,0,1,.57.63c.85,1.13.91,2.65.14,3.36a2.56,2.56,0,0,1-3.55-.38c-6.2-6.51-12.37-13.06-18.56-19.58-1.82-1.92-3.65-3.82-5.51-5.69-1-1-1.5-.86-1.86.58a23.83,23.83,0,0,1-3.31,8.19,4.32,4.32,0,0,0-.47,2.18c-.44,8.18-.83,16.37-1.3,24.56-.08,1.37.42,1.74,1.7,1.66s2.73,0,4.1,0A1.25,1.25,0,0,1,84,109c0,.52,0,1,0,1.55,0,1-.51,1.44-1.47,1.45-1.6,0-3.21,0-4.81,0-1,0-1.34.42-1.35,1.36,0,2-.17,4-.16,5.94,0,.36.44.73.67,1.09.27-.37.75-.73.77-1.12.09-1.69,0-3.4.1-5.09,0-.47.55-.9.85-1.35.32.43.93.86.93,1.29q.12,7.35,0,14.71c0,.39-.58.77-.89,1.16-.32-.38-.88-.73-.91-1.13-.11-1.64-.09-3.3-.06-5,0-1-.28-1.44-1.37-1.43-2.29,0-2.31,0-2.43-2.33s-.23-4.43-.26-6.64c0-1.08-.42-1.55-1.51-1.52-1.51,0-3,0-4.53,0S66,111.68,66,109.55c0-1.21.24-2,1.71-2s2.83,0,4.25,0c1,0,1.34-.34,1.28-1.34-.34-5.55-.64-11.11-.94-16.66-.13-2.4-.28-4.8-.34-7.2a7.91,7.91,0,0,0-1.17-3.49,78.07,78.07,0,0,1-3.11-7.82C67.52,70.68,67.4,70.26,67.19,69.62Z"/>
  <path stroke="white" stroke-width="8" d="M67.19,69.62c-.51.44-.84.68-1.11,1Q56,81.23,46,91.86c-1.29,1.37-2.62,2.71-4,4a2.43,2.43,0,0,1-3.43.2A2.74,2.74,0,0,1,39,92.47q7.76-7.34,15.53-14.63,4.42-4.17,8.79-8.38a1.7,1.7,0,0,0,.52-1.07c-.06-3.66-.25-7.32-.22-11a3.38,3.38,0,0,1,1.23-2.21c1.37-1.13,1.58-2.22.31-3.43-3.49-3.31-7-6.58-10.49-9.89Q46.93,34.5,39.18,27.05c-1.25-1.2-1.44-2.64-.53-3.59s2.47-.88,3.73.43c2.26,2.34,4.46,4.74,6.69,7.1L64.8,47.61a13.38,13.38,0,0,0,1.14.89c.17-2.5.33-4.68.47-6.86a50.84,50.84,0,0,1,3.53-16.78A13.74,13.74,0,0,1,72,21.54c1.8-2.18,4.48-2,6.26.28A21.52,21.52,0,0,1,81.84,30a83.57,83.57,0,0,1,2.1,16.52c0,.54.1,1.07.18,2,.59-.53.94-.8,1.24-1.11l19.47-20.49c.84-.89,1.63-1.82,2.47-2.71a5.17,5.17,0,0,1,1.08-.9c1-.63,2.09-.93,3,.19a2.41,2.41,0,0,1-.24,3.22c-1.58,1.62-3.23,3.16-4.87,4.72Q95.58,41.61,84.86,51.77c-1.32,1.26-1.14,2.32.22,3.44a3.64,3.64,0,0,1,1.31,2.29,64.19,64.19,0,0,1-.06,9.61,3.52,3.52,0,0,0,1.41,3.38q11.49,10.77,22.91,21.62a4.91,4.91,0,0,1,.57.63c.85,1.13.91,2.65.14,3.36a2.56,2.56,0,0,1-3.55-.38c-6.2-6.51-12.37-13.06-18.56-19.58-1.82-1.92-3.65-3.82-5.51-5.69-1-1-1.5-.86-1.86.58a23.83,23.83,0,0,1-3.31,8.19,4.32,4.32,0,0,0-.47,2.18c-.44,8.18-.83,16.37-1.3,24.56-.08,1.37.42,1.74,1.7,1.66s2.73,0,4.1,0A1.25,1.25,0,0,1,84,109c0,.52,0,1,0,1.55,0,1-.51,1.44-1.47,1.45-1.6,0-3.21,0-4.81,0-1,0-1.34.42-1.35,1.36,0,2-.17,4-.16,5.94,0,.36.44.73.67,1.09.27-.37.75-.73.77-1.12.09-1.69,0-3.4.1-5.09,0-.47.55-.9.85-1.35.32.43.93.86.93,1.29q.12,7.35,0,14.71c0,.39-.58.77-.89,1.16-.32-.38-.88-.73-.91-1.13-.11-1.64-.09-3.3-.06-5,0-1-.28-1.44-1.37-1.43-2.29,0-2.31,0-2.43-2.33s-.23-4.43-.26-6.64c0-1.08-.42-1.55-1.51-1.52-1.51,0-3,0-4.53,0S66,111.68,66,109.55c0-1.21.24-2,1.71-2s2.83,0,4.25,0c1,0,1.34-.34,1.28-1.34-.34-5.55-.64-11.11-.94-16.66-.13-2.4-.28-4.8-.34-7.2a7.91,7.91,0,0,0-1.17-3.49,78.07,78.07,0,0,1-3.11-7.82C67.52,70.68,67.4,70.26,67.19,69.62Z"/>
  <path fill="pink" d="M67.19,69.62c-.51.44-.84.68-1.11,1Q56,81.23,46,91.86c-1.29,1.37-2.62,2.71-4,4a2.43,2.43,0,0,1-3.43.2A2.74,2.74,0,0,1,39,92.47q7.76-7.34,15.53-14.63,4.42-4.17,8.79-8.38a1.7,1.7,0,0,0,.52-1.07c-.06-3.66-.25-7.32-.22-11a3.38,3.38,0,0,1,1.23-2.21c1.37-1.13,1.58-2.22.31-3.43-3.49-3.31-7-6.58-10.49-9.89Q46.93,34.5,39.18,27.05c-1.25-1.2-1.44-2.64-.53-3.59s2.47-.88,3.73.43c2.26,2.34,4.46,4.74,6.69,7.1L64.8,47.61a13.38,13.38,0,0,0,1.14.89c.17-2.5.33-4.68.47-6.86a50.84,50.84,0,0,1,3.53-16.78A13.74,13.74,0,0,1,72,21.54c1.8-2.18,4.48-2,6.26.28A21.52,21.52,0,0,1,81.84,30a83.57,83.57,0,0,1,2.1,16.52c0,.54.1,1.07.18,2,.59-.53.94-.8,1.24-1.11l19.47-20.49c.84-.89,1.63-1.82,2.47-2.71a5.17,5.17,0,0,1,1.08-.9c1-.63,2.09-.93,3,.19a2.41,2.41,0,0,1-.24,3.22c-1.58,1.62-3.23,3.16-4.87,4.72Q95.58,41.61,84.86,51.77c-1.32,1.26-1.14,2.32.22,3.44a3.64,3.64,0,0,1,1.31,2.29,64.19,64.19,0,0,1-.06,9.61,3.52,3.52,0,0,0,1.41,3.38q11.49,10.77,22.91,21.62a4.91,4.91,0,0,1,.57.63c.85,1.13.91,2.65.14,3.36a2.56,2.56,0,0,1-3.55-.38c-6.2-6.51-12.37-13.06-18.56-19.58-1.82-1.92-3.65-3.82-5.51-5.69-1-1-1.5-.86-1.86.58a23.83,23.83,0,0,1-3.31,8.19,4.32,4.32,0,0,0-.47,2.18c-.44,8.18-.83,16.37-1.3,24.56-.08,1.37.42,1.74,1.7,1.66s2.73,0,4.1,0A1.25,1.25,0,0,1,84,109c0,.52,0,1,0,1.55,0,1-.51,1.44-1.47,1.45-1.6,0-3.21,0-4.81,0-1,0-1.34.42-1.35,1.36,0,2-.17,4-.16,5.94,0,.36.44.73.67,1.09.27-.37.75-.73.77-1.12.09-1.69,0-3.4.1-5.09,0-.47.55-.9.85-1.35.32.43.93.86.93,1.29q.12,7.35,0,14.71c0,.39-.58.77-.89,1.16-.32-.38-.88-.73-.91-1.13-.11-1.64-.09-3.3-.06-5,0-1-.28-1.44-1.37-1.43-2.29,0-2.31,0-2.43-2.33s-.23-4.43-.26-6.64c0-1.08-.42-1.55-1.51-1.52-1.51,0-3,0-4.53,0S66,111.68,66,109.55c0-1.21.24-2,1.71-2s2.83,0,4.25,0c1,0,1.34-.34,1.28-1.34-.34-5.55-.64-11.11-.94-16.66-.13-2.4-.28-4.8-.34-7.2a7.91,7.91,0,0,0-1.17-3.49,78.07,78.07,0,0,1-3.11-7.82C67.52,70.68,67.4,70.26,67.19,69.62Z"/>
</svg>
