<?xml version="1.0" encoding="UTF-8" standalone="no"?>

<svg
   width="50mm"
   height="50mm"
   viewBox="0 0 50 50">

  <path d="M25 5 L28 18 L44 30 L42 34 L28 26 L29 38 L35 42 L35 45 L28 43 L27 48 L23 48 L22 43 L15 45 L15 42 L21 38 L22 26 L8 34 L6 30 L22 18 Z"
	style="fill:none;stroke:#000000;stroke-width:4"/>
  <path d="M25 5 L28 18 L44 30 L42 34 L28 26 L29 38 L35 42 L35 45 L28 43 L27 48 L23 48 L22 43 L15 45 L15 42 L21 38 L22 26 L8 34 L6 30 L22 18 Z"
	style="fill:none;stroke:#ffffff;stroke-width:2"/>
  <path d="M25 5 L28 18 L44 30 L42 34 L28 26 L29 38 L35 42 L35 45 L28 43 L27 48 L23 48 L22 43 L15 45 L15 42 L21 38 L22 26 L8 34 L6 30 L22 18 Z"
	style="fill:pink;stroke:none"/>
</svg>
