<?xml version="1.0" encoding="UTF-8" standalone="no"?>
<svg
   version="1.1"
   id="icon"
   x="0px"
   y="0px"
   viewBox="0 0 125.59162 104.11479"
   xml:space="preserve"
   width="126"
   height="126"
   xmlns="http://www.w3.org/2000/svg"
   xmlns:svg="http://www.w3.org/2000/svg"><defs
   id="defs3" />
<path
   stroke="#000000"
   stroke-width="10"
   d="m 66.545938,81 c 1.1,0.2 2.2,0.5 3.3,0.7 3.3,0.6 6.6,1.2 9.9,1.9 1.2,0.2 2.4,0.4 3.5,0.7 2,0.4 2.9,1.6 2.9,3.6 0,1.1 0,2.2 0,3.2 0,2 -1.2,3.5 -3.1,3.7 -2.7,0.4 -5.4,0.7 -8.1,1 -1.8,0.2 -3.6,0.5 -5.4,0.7 -1.5,0.2 -2.7,-0.2 -3.7,-1.4 -0.4,-0.4 -0.8,-0.8 -1.2,-1.2 -0.1,0 -0.1,0.1 -0.2,0.1 -0.1,1.2 -0.2,2.3 -0.4,3.5 -0.2,0.9 -0.7,1.5 -1.5,1.6 -0.7,0.1 -1.2,-0.2 -1.4,-0.8 -0.2,-0.4 -0.4,-0.8 -0.5,-1.3 -0.1,-0.8 -0.2,-1.5 -0.3,-2.3 0,-0.2 -0.1,-0.5 -0.2,-1 -0.5,0.5 -1,0.8 -1.3,1.2 -1,1.3 -2.4,1.8 -4,1.5 -3,-0.4 -6,-0.8 -9,-1.2 -1.4,-0.2 -2.8,-0.4 -4.2,-0.6 -1.8,-0.4 -2.9,-1.8 -2.9,-3.6 0,-1.1 0,-2.2 0,-3.3 0,-2 0.9,-3.2 2.9,-3.6 3,-0.6 6.1,-1.2 9.1,-1.8 2.3,-0.5 4.7,-0.9 7,-1.4 0.5,-0.1 0.6,-0.3 0.5,-0.7 -0.7,-3.8 -1.3,-7.5 -2,-11.3 -0.5,-3.2 -1.1,-6.3 -1.6,-9.5 -0.3,-1.8 -0.5,-3.6 -0.9,-5.3 -0.4,-2 -1.5,-2.7 -3.5,-2.8 -4.4,-0.2 -8.9,-0.3 -13.3,-0.5 -2,-0.1 -4,-0.4 -6,-0.7 -2.3,-0.3 -4.7,-0.6 -7,-0.8 -2.3,-0.3 -4.6,-0.6 -6.9,-0.8 -2.2,-0.3 -4.4,-0.6 -6.6,-0.8 C 8.5459381,47.5 6.9459381,47 5.8459381,45.3 c -0.7,-1.1 -0.8,-2.3 -0.8,-3.5 0,-2.8 -0.1,-5.7 0,-8.5 0.1,-2.8 2.3,-4.4 4.5,-4.4 10.8999999,0 21.7999999,0 32.7999999,0 3.4,0 6.8,-0.1 10.3,-0.1 0.4,0 0.7,-0.1 0.8,-0.6 0.5,-3.2 1,-6.5 1.6,-9.7 0.2,-1.1 0.6,-2.2 1,-3.3 0.6,-1.7 1.9,-2.7 3.6,-3.2 0.4,-0.2 0.5,-0.4 0.5,-0.8 0,-0.4 -0.4,-0.5 -0.7,-0.5 -1.4,0 -2.9,0.1 -4.3,0.1 -3,0 -6,-0.1 -9,-0.1 -0.3,0 -0.7,-0.1 -0.9,-0.3 -0.3,-0.3 -0.6,-0.7 -0.6,-1 0,-0.3 0.4,-0.8 0.7,-0.9 0.7,-0.2 1.4,-0.3 2.1,-0.3 4.1,0 8.1,0 12.2,0.1 0.6,0 0.8,-0.2 1,-0.8 0.2,-0.7 0.5,-1.3 1,-1.9 0.7,-0.8 1.7,-0.8 2.3,0 0.5,0.6 0.7,1.3 1,2 0.1,0.2 0.1,0.4 0.2,0.6 1.2,0 2.4,0 3.6,0 3.5,0 7,0 10.5,0 0.1,0 0.2,0 0.3,0 0.7,0.1 1.3,0.4 1.4,0.9 0.1,0.5 -0.5,1.2 -1.1,1.4 -0.4,0.1 -0.9,0.1 -1.3,0.1 -3.7,0 -7.5,0 -11.2,0 -0.4,0 -0.7,0 -1.1,0 -0.3,0 -0.7,-0.1 -0.7,0.4 0,0.4 -0.1,0.7 0.5,0.9 2.4,0.8 3.7,2.6 4.2,5 0.5,2.6 1,5.2 1.4,7.8 0.2,1.2 0.4,2.4 0.5,3.6 0.1,0.4 0.3,0.4 0.6,0.4 2.5,0 5,0.1 7.5,0.1 11.8,0 23.600002,0 35.400002,0 2.8,0 4.9,2 4.9,4.7 0,3 0.1,6 0,9 -0.1,2.9 -1.9,4.7 -4.7,5 -3.4,0.4 -6.9,0.8 -10.3,1.3 -3.3,0.4 -6.600002,0.8 -10.000002,1.2 -4.4,0.6 -8.8,1 -13.3,1.1 -2.5,0 -5.1,0.1 -7.6,0.2 -1.3,0 -2.4,0.6 -2.9,1.8 -0.3,0.6 -0.3,1.3 -0.4,2 -0.4,2.8 -0.9,5.6 -1.3,8.4 -0.4,2.8 -0.9,5.6 -1.3,8.3 -1.2,3.1 -1.7,6.1 -2.2,9.2 z"
   id="path1" />
<path
   stroke="#ffffff"
   stroke-width="8"
   d="m 66.545938,81 c 1.1,0.2 2.2,0.5 3.3,0.7 3.3,0.6 6.6,1.2 9.9,1.9 1.2,0.2 2.4,0.4 3.5,0.7 2,0.4 2.9,1.6 2.9,3.6 0,1.1 0,2.2 0,3.2 0,2 -1.2,3.5 -3.1,3.7 -2.7,0.4 -5.4,0.7 -8.1,1 -1.8,0.2 -3.6,0.5 -5.4,0.7 -1.5,0.2 -2.7,-0.2 -3.7,-1.4 -0.4,-0.4 -0.8,-0.8 -1.2,-1.2 -0.1,0 -0.1,0.1 -0.2,0.1 -0.1,1.2 -0.2,2.3 -0.4,3.5 -0.2,0.9 -0.7,1.5 -1.5,1.6 -0.7,0.1 -1.2,-0.2 -1.4,-0.8 -0.2,-0.4 -0.4,-0.8 -0.5,-1.3 -0.1,-0.8 -0.2,-1.5 -0.3,-2.3 0,-0.2 -0.1,-0.5 -0.2,-1 -0.5,0.5 -1,0.8 -1.3,1.2 -1,1.3 -2.4,1.8 -4,1.5 -3,-0.4 -6,-0.8 -9,-1.2 -1.4,-0.2 -2.8,-0.4 -4.2,-0.6 -1.8,-0.4 -2.9,-1.8 -2.9,-3.6 0,-1.1 0,-2.2 0,-3.3 0,-2 0.9,-3.2 2.9,-3.6 3,-0.6 6.1,-1.2 9.1,-1.8 2.3,-0.5 4.7,-0.9 7,-1.4 0.5,-0.1 0.6,-0.3 0.5,-0.7 -0.7,-3.8 -1.3,-7.5 -2,-11.3 -0.5,-3.2 -1.1,-6.3 -1.6,-9.5 -0.3,-1.8 -0.5,-3.6 -0.9,-5.3 -0.4,-2 -1.5,-2.7 -3.5,-2.8 -4.4,-0.2 -8.9,-0.3 -13.3,-0.5 -2,-0.1 -4,-0.4 -6,-0.7 -2.3,-0.3 -4.7,-0.6 -7,-0.8 -2.3,-0.3 -4.6,-0.6 -6.9,-0.8 -2.2,-0.3 -4.4,-0.6 -6.6,-0.8 C 8.5459381,47.5 6.9459381,47 5.8459381,45.3 c -0.7,-1.1 -0.8,-2.3 -0.8,-3.5 0,-2.8 -0.1,-5.7 0,-8.5 0.1,-2.8 2.3,-4.4 4.5,-4.4 10.8999999,0 21.7999999,0 32.7999999,0 3.4,0 6.8,-0.1 10.3,-0.1 0.4,0 0.7,-0.1 0.8,-0.6 0.5,-3.2 1,-6.5 1.6,-9.7 0.2,-1.1 0.6,-2.2 1,-3.3 0.6,-1.7 1.9,-2.7 3.6,-3.2 0.4,-0.2 0.5,-0.4 0.5,-0.8 0,-0.4 -0.4,-0.5 -0.7,-0.5 -1.4,0 -2.9,0.1 -4.3,0.1 -3,0 -6,-0.1 -9,-0.1 -0.3,0 -0.7,-0.1 -0.9,-0.3 -0.3,-0.3 -0.6,-0.7 -0.6,-1 0,-0.3 0.4,-0.8 0.7,-0.9 0.7,-0.2 1.4,-0.3 2.1,-0.3 4.1,0 8.1,0 12.2,0.1 0.6,0 0.8,-0.2 1,-0.8 0.2,-0.7 0.5,-1.3 1,-1.9 0.7,-0.8 1.7,-0.8 2.3,0 0.5,0.6 0.7,1.3 1,2 0.1,0.2 0.1,0.4 0.2,0.6 1.2,0 2.4,0 3.6,0 3.5,0 7,0 10.5,0 0.1,0 0.2,0 0.3,0 0.7,0.1 1.3,0.4 1.4,0.9 0.1,0.5 -0.5,1.2 -1.1,1.4 -0.4,0.1 -0.9,0.1 -1.3,0.1 -3.7,0 -7.5,0 -11.2,0 -0.4,0 -0.7,0 -1.1,0 -0.3,0 -0.7,-0.1 -0.7,0.4 0,0.4 -0.1,0.7 0.5,0.9 2.4,0.8 3.7,2.6 4.2,5 0.5,2.6 1,5.2 1.4,7.8 0.2,1.2 0.4,2.4 0.5,3.6 0.1,0.4 0.3,0.4 0.6,0.4 2.5,0 5,0.1 7.5,0.1 11.8,0 23.600002,0 35.400002,0 2.8,0 4.9,2 4.9,4.7 0,3 0.1,6 0,9 -0.1,2.9 -1.9,4.7 -4.7,5 -3.4,0.4 -6.9,0.8 -10.3,1.3 -3.3,0.4 -6.600002,0.8 -10.000002,1.2 -4.4,0.6 -8.8,1 -13.3,1.1 -2.5,0 -5.1,0.1 -7.6,0.2 -1.3,0 -2.4,0.6 -2.9,1.8 -0.3,0.6 -0.3,1.3 -0.4,2 -0.4,2.8 -0.9,5.6 -1.3,8.4 -0.4,2.8 -0.9,5.6 -1.3,8.3 -1.2,3.1 -1.7,6.1 -2.2,9.2 z"
   id="path2" />
<path
   fill="#ffc0cb"
   d="m 66.545938,81 c 1.1,0.2 2.2,0.5 3.3,0.7 3.3,0.6 6.6,1.2 9.9,1.9 1.2,0.2 2.4,0.4 3.5,0.7 2,0.4 2.9,1.6 2.9,3.6 0,1.1 0,2.2 0,3.2 0,2 -1.2,3.5 -3.1,3.7 -2.7,0.4 -5.4,0.7 -8.1,1 -1.8,0.2 -3.6,0.5 -5.4,0.7 -1.5,0.2 -2.7,-0.2 -3.7,-1.4 -0.4,-0.4 -0.8,-0.8 -1.2,-1.2 -0.1,0 -0.1,0.1 -0.2,0.1 -0.1,1.2 -0.2,2.3 -0.4,3.5 -0.2,0.9 -0.7,1.5 -1.5,1.6 -0.7,0.1 -1.2,-0.2 -1.4,-0.8 -0.2,-0.4 -0.4,-0.8 -0.5,-1.3 -0.1,-0.8 -0.2,-1.5 -0.3,-2.3 0,-0.2 -0.1,-0.5 -0.2,-1 -0.5,0.5 -1,0.8 -1.3,1.2 -1,1.3 -2.4,1.8 -4,1.5 -3,-0.4 -6,-0.8 -9,-1.2 -1.4,-0.2 -2.8,-0.4 -4.2,-0.6 -1.8,-0.4 -2.9,-1.8 -2.9,-3.6 0,-1.1 0,-2.2 0,-3.3 0,-2 0.9,-3.2 2.9,-3.6 3,-0.6 6.1,-1.2 9.1,-1.8 2.3,-0.5 4.7,-0.9 7,-1.4 0.5,-0.1 0.6,-0.3 0.5,-0.7 -0.7,-3.8 -1.3,-7.5 -2,-11.3 -0.5,-3.2 -1.1,-6.3 -1.6,-9.5 -0.3,-1.8 -0.5,-3.6 -0.9,-5.3 -0.4,-2 -1.5,-2.7 -3.5,-2.8 -4.4,-0.2 -8.9,-0.3 -13.3,-0.5 -2,-0.1 -4,-0.4 -6,-0.7 -2.3,-0.3 -4.7,-0.6 -7,-0.8 -2.3,-0.3 -4.6,-0.6 -6.9,-0.8 -2.2,-0.3 -4.4,-0.6 -6.6,-0.8 C 8.5459381,47.5 6.9459381,47 5.8459381,45.3 c -0.7,-1.1 -0.8,-2.3 -0.8,-3.5 0,-2.8 -0.1,-5.7 0,-8.5 0.1,-2.8 2.3,-4.4 4.5,-4.4 10.8999999,0 21.7999999,0 32.7999999,0 3.4,0 6.8,-0.1 10.3,-0.1 0.4,0 0.7,-0.1 0.8,-0.6 0.5,-3.2 1,-6.5 1.6,-9.7 0.2,-1.1 0.6,-2.2 1,-3.3 0.6,-1.7 1.9,-2.7 3.6,-3.2 0.4,-0.2 0.5,-0.4 0.5,-0.8 0,-0.4 -0.4,-0.5 -0.7,-0.5 -1.4,0 -2.9,0.1 -4.3,0.1 -3,0 -6,-0.1 -9,-0.1 -0.3,0 -0.7,-0.1 -0.9,-0.3 -0.3,-0.3 -0.6,-0.7 -0.6,-1 0,-0.3 0.4,-0.8 0.7,-0.9 0.7,-0.2 1.4,-0.3 2.1,-0.3 4.1,0 8.1,0 12.2,0.1 0.6,0 0.8,-0.2 1,-0.8 0.2,-0.7 0.5,-1.3 1,-1.9 0.7,-0.8 1.7,-0.8 2.3,0 0.5,0.6 0.7,1.3 1,2 0.1,0.2 0.1,0.4 0.2,0.6 1.2,0 2.4,0 3.6,0 3.5,0 7,0 10.5,0 0.1,0 0.2,0 0.3,0 0.7,0.1 1.3,0.4 1.4,0.9 0.1,0.5 -0.5,1.2 -1.1,1.4 -0.4,0.1 -0.9,0.1 -1.3,0.1 -3.7,0 -7.5,0 -11.2,0 -0.4,0 -0.7,0 -1.1,0 -0.3,0 -0.7,-0.1 -0.7,0.4 0,0.4 -0.1,0.7 0.5,0.9 2.4,0.8 3.7,2.6 4.2,5 0.5,2.6 1,5.2 1.4,7.8 0.2,1.2 0.4,2.4 0.5,3.6 0.1,0.4 0.3,0.4 0.6,0.4 2.5,0 5,0.1 7.5,0.1 11.8,0 23.600002,0 35.400002,0 2.8,0 4.9,2 4.9,4.7 0,3 0.1,6 0,9 -0.1,2.9 -1.9,4.7 -4.7,5 -3.4,0.4 -6.9,0.8 -10.3,1.3 -3.3,0.4 -6.600002,0.8 -10.000002,1.2 -4.4,0.6 -8.8,1 -13.3,1.1 -2.5,0 -5.1,0.1 -7.6,0.2 -1.3,0 -2.4,0.6 -2.9,1.8 -0.3,0.6 -0.3,1.3 -0.4,2 -0.4,2.8 -0.9,5.6 -1.3,8.4 -0.4,2.8 -0.9,5.6 -1.3,8.3 -1.2,3.1 -1.7,6.1 -2.2,9.2 z"
   id="path3" />

</svg>
