<?xml version="1.0" encoding="UTF-8" standalone="no"?>

<svg
   width="50mm"
   height="50mm"
   viewBox="0 0 50 50">

  <path d="M25 7 L27 17 L43 21 L43 25 L27 23 L27 37 L34 41 L34 44 L27 42 L26 47 L24 47 L23 42 L16 44 L16 41 L23 37 L23 23 L7 25 L7 21 L23 17 Z"
	style="fill:none;stroke:#000000;stroke-width:4"/>
  <path d="M25 7 L27 17 L43 21 L43 25 L27 23 L27 37 L34 41 L34 44 L27 42 L26 47 L24 47 L23 42 L16 44 L16 41 L23 37 L23 23 L7 25 L7 21 L23 17 Z"
	style="fill:none;stroke:#ffffff;stroke-width:2"/>
  <path d="M25 7 L27 17 L43 21 L43 25 L27 23 L27 37 L34 41 L34 44 L27 42 L26 47 L24 47 L23 42 L16 44 L16 41 L23 37 L23 23 L7 25 L7 21 L23 17 Z"
	style="fill:#a00000;stroke:none"/>
</svg>
