<svg id="icon" xmlns="http://www.w3.org/2000/svg" viewBox="0 0 200 200">
  <title>uav</title>
  <path stroke="black" stroke-width="10" d="M104.68,109.74a19,19,0,0,1,5.12-5.1.67.67,0,0,0,.33-.82,16.61,16.61,0,0,1,0-7.68.62.62,0,0,0-.31-.77,18.57,18.57,0,0,1-5.14-5.16.64.64,0,0,0-.78-.31,15.73,15.73,0,0,1-5.34.36c-.88-.1-1.75-.25-2.8-.41a.89.89,0,0,0-.24.2A20.24,20.24,0,0,1,90.2,95.4a.67.67,0,0,0-.18.53,17.67,17.67,0,0,1,0,8.15.6.6,0,0,0,.2.51,19.9,19.9,0,0,1,5.15,5.16A.56.56,0,0,0,96,110a17,17,0,0,1,8,0A.55.55,0,0,0,104.68,109.74Z"/>
  <path stroke="black" stroke-width="10" d="M78.88,98.09A19,19,0,1,0,60,79,19,19,0,0,0,78.88,98.09Zm.27-36.95a17.92,17.92,0,1,1-18,17.74A17.92,17.92,0,0,1,79.15,61.14Z"/>
  <path stroke="black" stroke-width="10" d="M79.07,101.9a19,19,0,1,0,19,19.17A19.09,19.09,0,0,0,79.07,101.9Zm0,37A17.92,17.92,0,1,1,97,121,17.9,17.9,0,0,1,79,138.88Z"/>
  <path stroke="black" stroke-width="10" d="M121.06,98.09A19,19,0,1,0,101.9,78.94,19,19,0,0,0,121.06,98.09Zm-.5-36.94a17.91,17.91,0,1,1-17.51,18.23A17.9,17.9,0,0,1,120.56,61.15Z"/>
  <path stroke="black" stroke-width="10" d="M120.9,101.9A19.05,19.05,0,1,0,140,121,19,19,0,0,0,120.9,101.9Zm0,37a17.92,17.92,0,1,1,18-18A17.93,17.93,0,0,1,120.91,138.88Z"/>
  <path stroke="black" stroke-width="10" d="M67.28,91a5.79,5.79,0,0,0,1.61-.55,19.66,19.66,0,0,0,5.32-4.27c1.19-1.31,2.25-2.73,3.42-4.18A20.52,20.52,0,0,1,84,85.85c.69-.67,1.33-1.3,2-1.93a20.8,20.8,0,0,1-4-6.54,1.37,1.37,0,0,1,.18-.15,24.46,24.46,0,0,0,7.14-6.64,14.46,14.46,0,0,0,1.64-3c.39-.95-.3-1.61-1.28-1.31a6.59,6.59,0,0,0-1.51.66,24.56,24.56,0,0,0-8,8,.6.6,0,0,1-.78.35,3.11,3.11,0,0,0-2.87.69,3.48,3.48,0,0,0-1.07,3.81,25.1,25.1,0,0,0-8.18,8,8.05,8.05,0,0,0-1,2.33C66.19,90.73,66.6,91.1,67.28,91Z"/>
  <path stroke="black" stroke-width="10" d="M86.18,87.89c1,1.73,2,3.35,3,5A15.87,15.87,0,0,0,93,89.05l-5-3Z"/>
  <path stroke="black" stroke-width="10" d="M86.4,84.27l-2,2,1.4,1.27c.61-.56,1.27-1.18,1.87-1.75Z"/>
  <path stroke="black" stroke-width="10" d="M88.52,128.18a23.4,23.4,0,0,0-6.46-5.65A21.63,21.63,0,0,1,86,116l-2-1.88A20.75,20.75,0,0,1,77.49,118l-.24-.38a24.6,24.6,0,0,0-7.84-7.82,8.11,8.11,0,0,0-2.11-.85.77.77,0,0,0-1,.89,4.13,4.13,0,0,0,.31,1.13,16.49,16.49,0,0,0,3.11,4.43,23.81,23.81,0,0,0,5.72,4.71c0,.11,0,.18,0,.26a3.39,3.39,0,0,0,4.15,4.2c.35-.11.45.07.58.31A23.26,23.26,0,0,0,87,132.14a18.52,18.52,0,0,0,2.87,1.48.8.8,0,0,0,1-.28,1.34,1.34,0,0,0-.08-1.51A30.33,30.33,0,0,0,88.52,128.18Z"/>
  <path stroke="black" stroke-width="10" d="M89.15,107.06l-3,4.89L88,113.82l4.93-3A16.27,16.27,0,0,0,89.15,107.06Z"/>
  <path stroke="black" stroke-width="10" d="M87.68,114.16l-2-1.85-1.13,1.18,1.8,2.05Z"/>
  <path stroke="black" stroke-width="10" d="M110.41,70.09a25.78,25.78,0,0,0,7.66,7.26,20.85,20.85,0,0,1-3.95,6.59l1.92,2,.59-.49a21.1,21.1,0,0,1,5.61-3.34c.33-.14.48-.07.67.21a29.7,29.7,0,0,0,1.78,2.5,22.83,22.83,0,0,0,6.6,5.66,5.32,5.32,0,0,0,1.62.53.78.78,0,0,0,.89-1,4,4,0,0,0-.41-1.28,29.63,29.63,0,0,0-2.06-3.09,24.1,24.1,0,0,0-6.67-5.85,1.08,1.08,0,0,1,0-.19,3.44,3.44,0,0,0-4.2-4.32A.62.62,0,0,1,120,75a24.73,24.73,0,0,0-7.08-7.43,11.17,11.17,0,0,0-2.68-1.33c-.89-.31-1.47.26-1.16,1.14A10.78,10.78,0,0,0,110.41,70.09Z"/>
  <path stroke="black" stroke-width="10" d="M110.9,93l3-5.06L112,86.16l-5,3A17.53,17.53,0,0,0,110.9,93Z"/>
  <path stroke="black" stroke-width="10" d="M112.4,85.75l1.93,1.83,1.3-1.29-1.89-2Z"/>
  <path stroke="black" stroke-width="10" d="M132.47,109a5.5,5.5,0,0,0-1.2.49,20.44,20.44,0,0,0-5.61,4.56c-1.1,1.23-2.07,2.57-3.14,3.9a21,21,0,0,1-6.44-3.91l-2,2a20.34,20.34,0,0,1,4,6.58,25.28,25.28,0,0,0-7.77,7.39,13.24,13.24,0,0,0-1.17,2.24c-.19.43-.34,1,.1,1.31a1.94,1.94,0,0,0,1.27.08,3.55,3.55,0,0,0,1.19-.5,24.34,24.34,0,0,0,8.22-8.08c.16-.25.23-.48.66-.39a3.37,3.37,0,0,0,4.14-4.1.49.49,0,0,1,.25-.62,24.29,24.29,0,0,0,7.48-7.11,11.21,11.21,0,0,0,1.26-2.52C134,109.34,133.38,108.7,132.47,109Z"/>
  <path stroke="black" stroke-width="10" d="M114,112l-3-5a16.1,16.1,0,0,0-3.86,3.82l5,3Z"/>
  <path stroke="black" stroke-width="10" d="M113.78,115.55l2-1.93-1.43-1.23-1.88,1.86Z"/>

  <path stroke="white" stroke-width="8" d="M104.68,109.74a19,19,0,0,1,5.12-5.1.67.67,0,0,0,.33-.82,16.61,16.61,0,0,1,0-7.68.62.62,0,0,0-.31-.77,18.57,18.57,0,0,1-5.14-5.16.64.64,0,0,0-.78-.31,15.73,15.73,0,0,1-5.34.36c-.88-.1-1.75-.25-2.8-.41a.89.89,0,0,0-.24.2A20.24,20.24,0,0,1,90.2,95.4a.67.67,0,0,0-.18.53,17.67,17.67,0,0,1,0,8.15.6.6,0,0,0,.2.51,19.9,19.9,0,0,1,5.15,5.16A.56.56,0,0,0,96,110a17,17,0,0,1,8,0A.55.55,0,0,0,104.68,109.74Z"/>
  <path stroke="white" stroke-width="8" d="M78.88,98.09A19,19,0,1,0,60,79,19,19,0,0,0,78.88,98.09Zm.27-36.95a17.92,17.92,0,1,1-18,17.74A17.92,17.92,0,0,1,79.15,61.14Z"/>
  <path stroke="white" stroke-width="8" d="M79.07,101.9a19,19,0,1,0,19,19.17A19.09,19.09,0,0,0,79.07,101.9Zm0,37A17.92,17.92,0,1,1,97,121,17.9,17.9,0,0,1,79,138.88Z"/>
  <path stroke="white" stroke-width="8" d="M121.06,98.09A19,19,0,1,0,101.9,78.94,19,19,0,0,0,121.06,98.09Zm-.5-36.94a17.91,17.91,0,1,1-17.51,18.23A17.9,17.9,0,0,1,120.56,61.15Z"/>
  <path stroke="white" stroke-width="8" d="M120.9,101.9A19.05,19.05,0,1,0,140,121,19,19,0,0,0,120.9,101.9Zm0,37a17.92,17.92,0,1,1,18-18A17.93,17.93,0,0,1,120.91,138.88Z"/>
  <path stroke="white" stroke-width="8" d="M67.28,91a5.79,5.79,0,0,0,1.61-.55,19.66,19.66,0,0,0,5.32-4.27c1.19-1.31,2.25-2.73,3.42-4.18A20.52,20.52,0,0,1,84,85.85c.69-.67,1.33-1.3,2-1.93a20.8,20.8,0,0,1-4-6.54,1.37,1.37,0,0,1,.18-.15,24.46,24.46,0,0,0,7.14-6.64,14.46,14.46,0,0,0,1.64-3c.39-.95-.3-1.61-1.28-1.31a6.59,6.59,0,0,0-1.51.66,24.56,24.56,0,0,0-8,8,.6.6,0,0,1-.78.35,3.11,3.11,0,0,0-2.87.69,3.48,3.48,0,0,0-1.07,3.81,25.1,25.1,0,0,0-8.18,8,8.05,8.05,0,0,0-1,2.33C66.19,90.73,66.6,91.1,67.28,91Z"/>
  <path stroke="white" stroke-width="8" d="M86.18,87.89c1,1.73,2,3.35,3,5A15.87,15.87,0,0,0,93,89.05l-5-3Z"/>
  <path stroke="white" stroke-width="8" d="M86.4,84.27l-2,2,1.4,1.27c.61-.56,1.27-1.18,1.87-1.75Z"/>
  <path stroke="white" stroke-width="8" d="M88.52,128.18a23.4,23.4,0,0,0-6.46-5.65A21.63,21.63,0,0,1,86,116l-2-1.88A20.75,20.75,0,0,1,77.49,118l-.24-.38a24.6,24.6,0,0,0-7.84-7.82,8.11,8.11,0,0,0-2.11-.85.77.77,0,0,0-1,.89,4.13,4.13,0,0,0,.31,1.13,16.49,16.49,0,0,0,3.11,4.43,23.81,23.81,0,0,0,5.72,4.71c0,.11,0,.18,0,.26a3.39,3.39,0,0,0,4.15,4.2c.35-.11.45.07.58.31A23.26,23.26,0,0,0,87,132.14a18.52,18.52,0,0,0,2.87,1.48.8.8,0,0,0,1-.28,1.34,1.34,0,0,0-.08-1.51A30.33,30.33,0,0,0,88.52,128.18Z"/>
  <path stroke="white" stroke-width="8" d="M89.15,107.06l-3,4.89L88,113.82l4.93-3A16.27,16.27,0,0,0,89.15,107.06Z"/>
  <path stroke="white" stroke-width="8" d="M87.68,114.16l-2-1.85-1.13,1.18,1.8,2.05Z"/>
  <path stroke="white" stroke-width="8" d="M110.41,70.09a25.78,25.78,0,0,0,7.66,7.26,20.85,20.85,0,0,1-3.95,6.59l1.92,2,.59-.49a21.1,21.1,0,0,1,5.61-3.34c.33-.14.48-.07.67.21a29.7,29.7,0,0,0,1.78,2.5,22.83,22.83,0,0,0,6.6,5.66,5.32,5.32,0,0,0,1.62.53.78.78,0,0,0,.89-1,4,4,0,0,0-.41-1.28,29.63,29.63,0,0,0-2.06-3.09,24.1,24.1,0,0,0-6.67-5.85,1.08,1.08,0,0,1,0-.19,3.44,3.44,0,0,0-4.2-4.32A.62.62,0,0,1,120,75a24.73,24.73,0,0,0-7.08-7.43,11.17,11.17,0,0,0-2.68-1.33c-.89-.31-1.47.26-1.16,1.14A10.78,10.78,0,0,0,110.41,70.09Z"/>
  <path stroke="white" stroke-width="8" d="M110.9,93l3-5.06L112,86.16l-5,3A17.53,17.53,0,0,0,110.9,93Z"/>
  <path stroke="white" stroke-width="8" d="M112.4,85.75l1.93,1.83,1.3-1.29-1.89-2Z"/>
  <path stroke="white" stroke-width="8" d="M132.47,109a5.5,5.5,0,0,0-1.2.49,20.44,20.44,0,0,0-5.61,4.56c-1.1,1.23-2.07,2.57-3.14,3.9a21,21,0,0,1-6.44-3.91l-2,2a20.34,20.34,0,0,1,4,6.58,25.28,25.28,0,0,0-7.77,7.39,13.24,13.24,0,0,0-1.17,2.24c-.19.43-.34,1,.1,1.31a1.94,1.94,0,0,0,1.27.08,3.55,3.55,0,0,0,1.19-.5,24.34,24.34,0,0,0,8.22-8.08c.16-.25.23-.48.66-.39a3.37,3.37,0,0,0,4.14-4.1.49.49,0,0,1,.25-.62,24.29,24.29,0,0,0,7.48-7.11,11.21,11.21,0,0,0,1.26-2.52C134,109.34,133.38,108.7,132.47,109Z"/>
  <path stroke="white" stroke-width="8" d="M114,112l-3-5a16.1,16.1,0,0,0-3.86,3.82l5,3Z"/>
  <path stroke="white" stroke-width="8" d="M113.78,115.55l2-1.93-1.43-1.23-1.88,1.86Z"/>

  <path fill="pink" d="M104.68,109.74a19,19,0,0,1,5.12-5.1.67.67,0,0,0,.33-.82,16.61,16.61,0,0,1,0-7.68.62.62,0,0,0-.31-.77,18.57,18.57,0,0,1-5.14-5.16.64.64,0,0,0-.78-.31,15.73,15.73,0,0,1-5.34.36c-.88-.1-1.75-.25-2.8-.41a.89.89,0,0,0-.24.2A20.24,20.24,0,0,1,90.2,95.4a.67.67,0,0,0-.18.53,17.67,17.67,0,0,1,0,8.15.6.6,0,0,0,.2.51,19.9,19.9,0,0,1,5.15,5.16A.56.56,0,0,0,96,110a17,17,0,0,1,8,0A.55.55,0,0,0,104.68,109.74Z"/>
  <path fill="pink" d="M78.88,98.09A19,19,0,1,0,60,79,19,19,0,0,0,78.88,98.09Zm.27-36.95a17.92,17.92,0,1,1-18,17.74A17.92,17.92,0,0,1,79.15,61.14Z"/>
  <path fill="pink" d="M79.07,101.9a19,19,0,1,0,19,19.17A19.09,19.09,0,0,0,79.07,101.9Zm0,37A17.92,17.92,0,1,1,97,121,17.9,17.9,0,0,1,79,138.88Z"/>
  <path fill="pink" d="M121.06,98.09A19,19,0,1,0,101.9,78.94,19,19,0,0,0,121.06,98.09Zm-.5-36.94a17.91,17.91,0,1,1-17.51,18.23A17.9,17.9,0,0,1,120.56,61.15Z"/>
  <path fill="pink" d="M120.9,101.9A19.05,19.05,0,1,0,140,121,19,19,0,0,0,120.9,101.9Zm0,37a17.92,17.92,0,1,1,18-18A17.93,17.93,0,0,1,120.91,138.88Z"/>
  <path fill="pink" d="M67.28,91a5.79,5.79,0,0,0,1.61-.55,19.66,19.66,0,0,0,5.32-4.27c1.19-1.31,2.25-2.73,3.42-4.18A20.52,20.52,0,0,1,84,85.85c.69-.67,1.33-1.3,2-1.93a20.8,20.8,0,0,1-4-6.54,1.37,1.37,0,0,1,.18-.15,24.46,24.46,0,0,0,7.14-6.64,14.46,14.46,0,0,0,1.64-3c.39-.95-.3-1.61-1.28-1.31a6.59,6.59,0,0,0-1.51.66,24.56,24.56,0,0,0-8,8,.6.6,0,0,1-.78.35,3.11,3.11,0,0,0-2.87.69,3.48,3.48,0,0,0-1.07,3.81,25.1,25.1,0,0,0-8.18,8,8.05,8.05,0,0,0-1,2.33C66.19,90.73,66.6,91.1,67.28,91Z"/>
  <path fill="pink" d="M86.18,87.89c1,1.73,2,3.35,3,5A15.87,15.87,0,0,0,93,89.05l-5-3Z"/>
  <path fill="pink" d="M86.4,84.27l-2,2,1.4,1.27c.61-.56,1.27-1.18,1.87-1.75Z"/>
  <path fill="pink" d="M88.52,128.18a23.4,23.4,0,0,0-6.46-5.65A21.63,21.63,0,0,1,86,116l-2-1.88A20.75,20.75,0,0,1,77.49,118l-.24-.38a24.6,24.6,0,0,0-7.84-7.82,8.11,8.11,0,0,0-2.11-.85.77.77,0,0,0-1,.89,4.13,4.13,0,0,0,.31,1.13,16.49,16.49,0,0,0,3.11,4.43,23.81,23.81,0,0,0,5.72,4.71c0,.11,0,.18,0,.26a3.39,3.39,0,0,0,4.15,4.2c.35-.11.45.07.58.31A23.26,23.26,0,0,0,87,132.14a18.52,18.52,0,0,0,2.87,1.48.8.8,0,0,0,1-.28,1.34,1.34,0,0,0-.08-1.51A30.33,30.33,0,0,0,88.52,128.18Z"/>
  <path fill="pink" d="M89.15,107.06l-3,4.89L88,113.82l4.93-3A16.27,16.27,0,0,0,89.15,107.06Z"/>
  <path fill="pink" d="M87.68,114.16l-2-1.85-1.13,1.18,1.8,2.05Z"/>
  <path fill="pink" d="M110.41,70.09a25.78,25.78,0,0,0,7.66,7.26,20.85,20.85,0,0,1-3.95,6.59l1.92,2,.59-.49a21.1,21.1,0,0,1,5.61-3.34c.33-.14.48-.07.67.21a29.7,29.7,0,0,0,1.78,2.5,22.83,22.83,0,0,0,6.6,5.66,5.32,5.32,0,0,0,1.62.53.78.78,0,0,0,.89-1,4,4,0,0,0-.41-1.28,29.63,29.63,0,0,0-2.06-3.09,24.1,24.1,0,0,0-6.67-5.85,1.08,1.08,0,0,1,0-.19,3.44,3.44,0,0,0-4.2-4.32A.62.62,0,0,1,120,75a24.73,24.73,0,0,0-7.08-7.43,11.17,11.17,0,0,0-2.68-1.33c-.89-.31-1.47.26-1.16,1.14A10.78,10.78,0,0,0,110.41,70.09Z"/>
  <path fill="pink" d="M110.9,93l3-5.06L112,86.16l-5,3A17.53,17.53,0,0,0,110.9,93Z"/>
  <path fill="pink" d="M112.4,85.75l1.93,1.83,1.3-1.29-1.89-2Z"/>
  <path fill="pink" d="M132.47,109a5.5,5.5,0,0,0-1.2.49,20.44,20.44,0,0,0-5.61,4.56c-1.1,1.23-2.07,2.57-3.14,3.9a21,21,0,0,1-6.44-3.91l-2,2a20.34,20.34,0,0,1,4,6.58,25.28,25.28,0,0,0-7.77,7.39,13.24,13.24,0,0,0-1.17,2.24c-.19.43-.34,1,.1,1.31a1.94,1.94,0,0,0,1.27.08,3.55,3.55,0,0,0,1.19-.5,24.34,24.34,0,0,0,8.22-8.08c.16-.25.23-.48.66-.39a3.37,3.37,0,0,0,4.14-4.1.49.49,0,0,1,.25-.62,24.29,24.29,0,0,0,7.48-7.11,11.21,11.21,0,0,0,1.26-2.52C134,109.34,133.38,108.7,132.47,109Z"/>
  <path fill="pink" d="M114,112l-3-5a16.1,16.1,0,0,0-3.86,3.82l5,3Z"/>
  <path fill="pink" d="M113.78,115.55l2-1.93-1.43-1.23-1.88,1.86Z"/>
</svg>
