<?xml version="1.0" encoding="UTF-8" standalone="no"?>

<svg
   width="50mm"
   height="50mm"
   viewBox="0 0 50 50">

  <!-- X-shaped rotor blades -->
  <path d="M8 3 L42 29 M8 29 L42 3"
	style="fill:none;stroke:#000000;stroke-width:5;stroke-linecap:round"/>
  <path d="M8 3 L42 29 M8 29 L42 3"
	style="fill:none;stroke:#ffffff;stroke-width:3;stroke-linecap:round"/>
  <path d="M8 3 L42 29 M8 29 L42 3"
	style="fill:none;stroke:#f0f000;stroke-width:1.5;stroke-linecap:round"/>

  <!-- Body + tail boom + tail rotor -->
  <path d="M22 10 C22 6 28 6 28 10 L28 24 L25 28 L22 24 Z M24 28 L24 44 L26 44 L26 28 Z M18 42 L32 42 L32 45 L18 45 Z"
	style="fill:none;stroke:#000000;stroke-width:4"/>
  <path d="M22 10 C22 6 28 6 28 10 L28 24 L25 28 L22 24 Z M24 28 L24 44 L26 44 L26 28 Z M18 42 L32 42 L32 45 L18 45 Z"
	style="fill:none;stroke:#ffffff;stroke-width:2"/>
  <path d="M22 10 C22 6 28 6 28 10 L28 24 L25 28 L22 24 Z M24 28 L24 44 L26 44 L26 28 Z M18 42 L32 42 L32 45 L18 45 Z"
	style="fill:#f0f000;stroke:none"/>
</svg>
