<svg id="icon" xmlns="http://www.w3.org/2000/svg" viewBox="0 0 200 200">
  <title>hand_glider</title>
  <path stroke="black" stroke-width="10" d="M156.48,104.78,111.17,76.46a21,21,0,0,0-22.34,0L43.52,104.78A18.49,18.49,0,0,0,35,120.49v.11a2.89,2.89,0,0,0,3.8,2.84l54.66-19.6a19.33,19.33,0,0,1,13.08,0l54.66,19.6a2.89,2.89,0,0,0,3.8-2.84v-.11A18.49,18.49,0,0,0,156.48,104.78Z"/><path d="M116.08,117H83.92c-2.25,0-4.08,2.18-4.08,4.88s1.83,4.89,4.08,4.89h32.16c2.25,0,4.08-2.19,4.08-4.89S118.33,117,116.08,117Z"/>
  <path stroke="black" stroke-width="10" d="M116.08,117H83.92c-2.25,0-4.08,2.18-4.08,4.88s1.83,4.89,4.08,4.89h32.16c2.25,0,4.08-2.19,4.08-4.89S118.33,117,116.08,117Z"/>
  <path stroke="white" stroke-width="8" d="M156.48,104.78,111.17,76.46a21,21,0,0,0-22.34,0L43.52,104.78A18.49,18.49,0,0,0,35,120.49v.11a2.89,2.89,0,0,0,3.8,2.84l54.66-19.6a19.33,19.33,0,0,1,13.08,0l54.66,19.6a2.89,2.89,0,0,0,3.8-2.84v-.11A18.49,18.49,0,0,0,156.48,104.78Z"/><path d="M116.08,117H83.92c-2.25,0-4.08,2.18-4.08,4.88s1.83,4.89,4.08,4.89h32.16c2.25,0,4.08-2.19,4.08-4.89S118.33,117,116.08,117Z"/>
  <path stroke="white" stroke-width="8" d="M116.08,117H83.92c-2.25,0-4.08,2.18-4.08,4.88s1.83,4.89,4.08,4.89h32.16c2.25,0,4.08-2.19,4.08-4.89S118.33,117,116.08,117Z"/>
  <path fill="pink" d="M156.48,104.78,111.17,76.46a21,21,0,0,0-22.34,0L43.52,104.78A18.49,18.49,0,0,0,35,120.49v.11a2.89,2.89,0,0,0,3.8,2.84l54.66-19.6a19.33,19.33,0,0,1,13.08,0l54.66,19.6a2.89,2.89,0,0,0,3.8-2.84v-.11A18.49,18.49,0,0,0,156.48,104.78Z"/>
  <path fill="pink" d="M116.08,117H83.92c-2.25,0-4.08,2.18-4.08,4.88s1.83,4.89,4.08,4.89h32.16c2.25,0,4.08-2.19,4.08-4.89S118.33,117,116.08,117Z"/>
</svg>
