<?xml version="1.0" encoding="UTF-8" standalone="no"?>
<svg
   id="icon"
   viewBox="0 0 78.607933 100"
   version="1.1"
   width="100"
   height="100"
   xmlns="http://www.w3.org/2000/svg"
   xmlns:svg="http://www.w3.org/2000/svg">
  <defs
     id="defs12" />
  <title
     id="title1">ballon</title>
  <path
     stroke="#000000"
     stroke-width="10"
     d="m 73.282513,29.12 a 25.75,25.75 0 0 0 -6.55,-14.4 c -4.93,-5.31 -11.27,-7.82 -18.24,-9 -1.75,-0.3 -3.53,-0.48 -5.29,-0.71 h -1.23 c 7.07,1.54 11.13,6.26 13.46,12.8 a 43,43 0 0 1 2.13,11.19 78.56,78.56 0 0 1 -2.21,24.15 c -0.37,1.58 -0.77,3.16 -1.15,4.74 a 1.21,1.21 0 0 0 0.24,0.07 c 3.93,0 7.86,0 11.79,0 a 1.06,1.06 0 0 0 0.73,-0.56 c 0.8,-1.56 1.61,-3.12 2.32,-4.73 3.27,-7.54 5.12,-15.3 4,-23.55 z"
     id="path1" />
  <path
     stroke="#000000"
     stroke-width="10"
     d="m 23.502513,57.94 c 0.28,0 0.55,0 0.87,0 -0.06,-0.29 -0.1,-0.48 -0.15,-0.68 a 92.83,92.83 0 0 1 -3.31,-19.76 53.24,53.24 0 0 1 2,-18.87 20.92,20.92 0 0 1 6.83,-10.53 18,18 0 0 1 6.9,-3.1 h -1.23 a 6.41,6.41 0 0 1 -0.76,0.16 44,44 0 0 0 -10.83,2.1 c -5.88,2 -10.88,5.22 -14.3299995,10.5 -4.14,6.34 -5.07,13.38 -4.21,20.74 0.75,6.7 3.17,12.87 6.2599995,18.8 a 1.12,1.12 0 0 0 1.17,0.66 c 3.57,-0.02 7.19,0.04 10.79,-0.02 z"
     id="path2" />
  <path
     stroke="#000000"
     stroke-width="10"
     d="m 28.572513,18.41 a 40.08,40.08 0 0 0 -2.47,14.38 84,84 0 0 0 3.62,24.59 c 0.16,0.55 0.45,0.58 0.89,0.58 h 8.67 c 2.87,0 5.75,0 8.62,0 0.57,0 0.83,-0.16 0.95,-0.73 0.74,-3.25 1.62,-6.47 2.26,-9.75 a 62.56,62.56 0 0 0 0.44,-23.58 21.16,21.16 0 0 0 -4.15,-9.9 10.5,10.5 0 0 0 -14.79,-1.46 14.38,14.38 0 0 0 -4.04,5.87 z"
     id="path3" />
  <path
     stroke="#000000"
     stroke-width="10"
     d="m 63.362513,63.22 c -1.81,0 -3.63,0 -5.44,0 a 1.37,1.37 0 0 0 -1.22,0.64 c -2.47,3.13 -5,6.22 -7.44,9.34 a 1.55,1.55 0 0 1 -1.35,0.61 c -5.75,0 -11.49,0 -17.24,0 a 1.6,1.6 0 0 1 -1.41,-0.66 c -2.46,-3.15 -4.98,-6.15 -7.41,-9.28 -0.19,-0.23 -0.44,-0.6 -0.67,-0.61 -2,-0.05 -4,0 -6,0 l -0.16,0.24 7.62,10.33 h -1.77 v 5.28 h 5.23 V 95 h 26.39 V 79.05 h 5.2 v -5.31 h -1.73 l 7.58,-10.27 z"
     id="path4" />
  <path
     stroke="#ffffff"
     stroke-width="8"
     d="m 73.282513,29.12 a 25.75,25.75 0 0 0 -6.55,-14.4 c -4.93,-5.31 -11.27,-7.82 -18.24,-9 -1.75,-0.3 -3.53,-0.48 -5.29,-0.71 h -1.23 c 7.07,1.54 11.13,6.26 13.46,12.8 a 43,43 0 0 1 2.13,11.19 78.56,78.56 0 0 1 -2.21,24.15 c -0.37,1.58 -0.77,3.16 -1.15,4.74 a 1.21,1.21 0 0 0 0.24,0.07 c 3.93,0 7.86,0 11.79,0 a 1.06,1.06 0 0 0 0.73,-0.56 c 0.8,-1.56 1.61,-3.12 2.32,-4.73 3.27,-7.54 5.12,-15.3 4,-23.55 z"
     id="path5" />
  <path
     stroke="#ffffff"
     stroke-width="8"
     d="m 23.502513,57.94 c 0.28,0 0.55,0 0.87,0 -0.06,-0.29 -0.1,-0.48 -0.15,-0.68 a 92.83,92.83 0 0 1 -3.31,-19.76 53.24,53.24 0 0 1 2,-18.87 20.92,20.92 0 0 1 6.83,-10.53 18,18 0 0 1 6.9,-3.1 h -1.23 a 6.41,6.41 0 0 1 -0.76,0.16 44,44 0 0 0 -10.83,2.1 c -5.88,2 -10.88,5.22 -14.3299995,10.5 -4.14,6.34 -5.07,13.38 -4.21,20.74 0.75,6.7 3.17,12.87 6.2599995,18.8 a 1.12,1.12 0 0 0 1.17,0.66 c 3.57,-0.02 7.19,0.04 10.79,-0.02 z"
     id="path6" />
  <path
     stroke="#ffffff"
     stroke-width="8"
     d="m 28.572513,18.41 a 40.08,40.08 0 0 0 -2.47,14.38 84,84 0 0 0 3.62,24.59 c 0.16,0.55 0.45,0.58 0.89,0.58 h 8.67 c 2.87,0 5.75,0 8.62,0 0.57,0 0.83,-0.16 0.95,-0.73 0.74,-3.25 1.62,-6.47 2.26,-9.75 a 62.56,62.56 0 0 0 0.44,-23.58 21.16,21.16 0 0 0 -4.15,-9.9 10.5,10.5 0 0 0 -14.79,-1.46 14.38,14.38 0 0 0 -4.04,5.87 z"
     id="path7" />
  <path
     stroke="#ffffff"
     stroke-width="8"
     d="m 63.362513,63.22 c -1.81,0 -3.63,0 -5.44,0 a 1.37,1.37 0 0 0 -1.22,0.64 c -2.47,3.13 -5,6.22 -7.44,9.34 a 1.55,1.55 0 0 1 -1.35,0.61 c -5.75,0 -11.49,0 -17.24,0 a 1.6,1.6 0 0 1 -1.41,-0.66 c -2.46,-3.15 -4.98,-6.15 -7.41,-9.28 -0.19,-0.23 -0.44,-0.6 -0.67,-0.61 -2,-0.05 -4,0 -6,0 l -0.16,0.24 7.62,10.33 h -1.77 v 5.28 h 5.23 V 95 h 26.39 V 79.05 h 5.2 v -5.31 h -1.73 l 7.58,-10.27 z"
     id="path8" />
  <path
     fill="#ffc0cb"
     d="m 73.282513,29.12 a 25.75,25.75 0 0 0 -6.55,-14.4 c -4.93,-5.31 -11.27,-7.82 -18.24,-9 -1.75,-0.3 -3.53,-0.48 -5.29,-0.71 h -1.23 c 7.07,1.54 11.13,6.26 13.46,12.8 a 43,43 0 0 1 2.13,11.19 78.56,78.56 0 0 1 -2.21,24.15 c -0.37,1.58 -0.77,3.16 -1.15,4.74 a 1.21,1.21 0 0 0 0.24,0.07 c 3.93,0 7.86,0 11.79,0 a 1.06,1.06 0 0 0 0.73,-0.56 c 0.8,-1.56 1.61,-3.12 2.32,-4.73 3.27,-7.54 5.12,-15.3 4,-23.55 z"
     id="path9" />
  <path
     fill="#ffc0cb"
     d="m 23.502513,57.94 c 0.28,0 0.55,0 0.87,0 -0.06,-0.29 -0.1,-0.48 -0.15,-0.68 a 92.83,92.83 0 0 1 -3.31,-19.76 53.24,53.24 0 0 1 2,-18.87 20.92,20.92 0 0 1 6.83,-10.53 18,18 0 0 1 6.9,-3.1 h -1.23 a 6.41,6.41 0 0 1 -0.76,0.16 44,44 0 0 0 -10.83,2.1 c -5.88,2 -10.88,5.22 -14.3299995,10.5 -4.14,6.34 -5.07,13.38 -4.21,20.74 0.75,6.7 3.17,12.87 6.2599995,18.8 a 1.12,1.12 0 0 0 1.17,0.66 c 3.57,-0.02 7.19,0.04 10.79,-0.02 z"
     id="path10" />
  <path
     fill="#ffc0cb"
     d="m 28.572513,18.41 a 40.08,40.08 0 0 0 -2.47,14.38 84,84 0 0 0 3.62,24.59 c 0.16,0.55 0.45,0.58 0.89,0.58 h 8.67 c 2.87,0 5.75,0 8.62,0 0.57,0 0.83,-0.16 0.95,-0.73 0.74,-3.25 1.62,-6.47 2.26,-9.75 a 62.56,62.56 0 0 0 0.44,-23.58 21.16,21.16 0 0 0 -4.15,-9.9 10.5,10.5 0 0 0 -14.79,-1.46 14.38,14.38 0 0 0 -4.04,5.87 z"
     id="path11" />
  <path
     fill="#ffc0cb"
     d="m 63.362513,63.22 c -1.81,0 -3.63,0 -5.44,0 a 1.37,1.37 0 0 0 -1.22,0.64 c -2.47,3.13 -5,6.22 -7.44,9.34 a 1.55,1.55 0 0 1 -1.35,0.61 c -5.75,0 -11.49,0 -17.24,0 a 1.6,1.6 0 0 1 -1.41,-0.66 c -2.46,-3.15 -4.98,-6.15 -7.41,-9.28 -0.19,-0.23 -0.44,-0.6 -0.67,-0.61 -2,-0.05 -4,0 -6,0 l -0.16,0.24 7.62,10.33 h -1.77 v 5.28 h 5.23 V 95 h 26.39 V 79.05 h 5.2 v -5.31 h -1.73 l 7.58,-10.27 z"
     id="path12" />
</svg>
