<?xml version="1.0" encoding="UTF-8" standalone="no"?>
<svg
   width="18"
   height="18"
   viewBox="0 0 18 18"
   version="1.1"
   id="svg1">
  <defs id="defs1" />
  <path
     d="M0 0h18v18H0z"
     fill="none"
     id="path1" />
  <!-- white outline -->
  <g style="stroke:#ffffff;stroke-width:3;stroke-linecap:round;stroke-linejoin:round;fill:#ffffff">
    <!-- canopy dome -->
    <path d="M2 8 C2 1 9 0 9 0 C9 0 16 1 16 8" />
    <!-- canopy ribs -->
    <path d="M2 8 C4 6 6 8 9 5 C12 8 14 6 16 8" style="fill:none" />
    <!-- suspension lines -->
    <line x1="2" y1="8" x2="9" y2="16" />
    <line x1="9" y1="5" x2="9" y2="16" />
    <line x1="16" y1="8" x2="9" y2="16" />
    <!-- jumper dot -->
    <circle cx="9" cy="16.5" r="1" />
  </g>
  <!-- red fill -->
  <g style="stroke:#ff0000;stroke-width:1;stroke-linecap:round;stroke-linejoin:round;fill:#ff0000">
    <!-- canopy dome -->
    <path d="M2 8 C2 1 9 0 9 0 C9 0 16 1 16 8" />
    <!-- canopy ribs -->
    <path d="M2 8 C4 6 6 8 9 5 C12 8 14 6 16 8" style="fill:none" />
    <!-- suspension lines -->
    <line x1="2" y1="8" x2="9" y2="16" style="fill:none" />
    <line x1="9" y1="5" x2="9" y2="16" style="fill:none" />
    <line x1="16" y1="8" x2="9" y2="16" style="fill:none" />
    <!-- jumper dot -->
    <circle cx="9" cy="16.5" r="1" />
  </g>
</svg>
