<?xml version="1.0" encoding="UTF-8" standalone="no"?>
<svg
   width="50mm"
   height="43.189365mm">
  <path
     d="M 47.204854,0 0,81.617699 47.204854,163.2354 H 141.73228 L 188.97638,81.617699 141.73228,0 Z"
     style="fill:#ffffff;fill-opacity:0.8" />
  <path
     d="M 47.204854,0 0,81.617699 47.204854,163.2354 H 141.73228 L 188.97638,81.617699 141.73228,0 Z m 3.649252,6.278285 h 87.228924 l 43.63408,75.339414 -43.63408,75.339421 H 50.854106 L 7.2592668,81.617699 Z m 43.634081,62.782848 c -6.931227,0 -12.55657,5.625346 -12.55657,12.556566 0,6.93123 5.625343,12.55657 12.55657,12.55657 6.931233,0 12.556573,-5.62534 12.556573,-12.55657 0,-6.93122 -5.62534,-12.556566 -12.556573,-12.556566 z"
     style="fill:#1000b0;fill-opacity:1;stroke-width:2" />
</svg>
