<?xml version="1.0" encoding="UTF-8" standalone="no"?>

<svg
   width="50mm"
   height="43.660789mm"
   viewBox="0 0 188.97637 165.01715">
  <path
     d="M 0,0 V 165.01715 H 188.97638 V 0 Z"
     style="fill:#ffffff;fill-opacity:0.8" />
  <path
     d="M 0,0 V 165.01715 H 188.97638 V 0 Z M 6.3468137,6.346813 H 43.317004 L 6.3468137,70.568634 Z m 139.2728963,0 h 37.00986 V 70.64797 Z m -94.924536,0.0396 H 138.2812 L 182.15355,82.548178 138.2812,158.6306 H 50.695174 L 6.8228248,82.548245 Z m 43.793015,63.428474 c -7.006882,0 -12.693627,5.686745 -12.693627,12.693627 0,7.006885 5.686745,12.693645 12.693627,12.693635 7.006891,0 12.693631,-5.68674 12.693631,-12.693635 0,-7.006882 -5.68674,-12.693627 -12.693631,-12.693627 z M 182.62957,94.369129 V 158.67033 H 145.65938 Z M 6.3468137,94.448429 43.277336,158.67024 H 6.3468137 Z"
     style="fill:#1000b0;fill-opacity:1;stroke-width:2" />
</svg>
