<?xml version="1.0" encoding="UTF-8" standalone="no"?>

<svg
   width="50mm"
   height="43.313084mm">

  <path
     d="M 34.522,0 0,59.796 25.56,74.558 59.938,134.123 v 29.58 h 69.042 v -29.41 h 0.057 L 163.501,74.527 188.975,59.822 154.457,0.04 128.983,14.745 59.998,14.715 Z"
     style="fill:#ffffff" />
  <path
     d="M 34.522,0 0,59.796 25.56,74.558 59.938,134.123 v 29.58 h 69.042 v -29.41 h 0.057 L 163.501,74.527 188.975,59.822 154.457,0.04 128.983,14.745 59.998,14.715 Z m 28.117,19.3 63.7,0.03 31.88,55.2 -31.85,55.17 -63.672,-0.03 -31.88,-55.2 z m 31.888,46.01 c -5.073,0 -9.2,4.117 -9.2,9.2 0,5.083 4.117,9.2 9.2,9.2 5.083001,0 9.2,-4.117 9.2,-9.2 0,-5.083 -4.116999,-9.2 -9.2,-9.2 z"
     style="fill:#1000b0" />
</svg>
